<?xml version="1.0" encoding="utf-8"?>
<!-- Generator: Adobe Illustrator 23.1.0, SVG Export Plug-In . SVG Version: 6.00 Build 0)  -->
<svg version="1.1" id="Capa_1" xmlns="http://www.w3.org/2000/svg" xmlns:xlink="http://www.w3.org/1999/xlink" x="0px" y="0px"
	 viewBox="0 0 40 40" style="enable-background:new 0 0 40 40;" xml:space="preserve">
<style type="text/css">
	.st0{fill:#1B915F;}
</style>
<path class="st0" d="M20,0C8.95,0,0,8.95,0,20s8.95,20,20,20s20-8.95,20-20S31.05,0,20,0z M24.55,13.6c0,0-1.54,0-2.15,0
	c-0.76,0-0.92,0.31-0.92,1.1c0,0.65,0,1.9,0,1.9h3.07l-0.3,3.33h-2.77v9.94h-3.97v-9.9h-2.07v-3.37h2.07c0,0,0-0.48,0-2.65
	c0-2.49,1.33-3.79,4.29-3.79c0.48,0,2.75,0,2.75,0V13.6z"/>
</svg>
