<svg id="Capa_1" data-name="Capa 1" xmlns="http://www.w3.org/2000/svg" viewBox="0 0 40 40"><defs><style>.cls-1{fill:#1b915f;}</style></defs><title>insta</title><circle class="cls-1" cx="20" cy="20" r="2.98"/><path class="cls-1" d="M27,14.73a3,3,0,0,0-1.7-1.7,4.92,4.92,0,0,0-1.66-.31c-.94,0-1.22-.05-3.61-.05s-2.67,0-3.61.05a4.92,4.92,0,0,0-1.66.31,3,3,0,0,0-1.7,1.7,4.92,4.92,0,0,0-.31,1.66c0,.94-.05,1.22-.05,3.61s0,2.67.05,3.61A4.92,4.92,0,0,0,13,25.27a3,3,0,0,0,1.7,1.7,4.92,4.92,0,0,0,1.66.31c.94,0,1.22,0,3.61,0s2.67,0,3.61,0A4.92,4.92,0,0,0,25.27,27a3,3,0,0,0,1.7-1.7,4.92,4.92,0,0,0,.31-1.66c0-.94,0-1.22,0-3.61s0-2.67,0-3.61A4.92,4.92,0,0,0,27,14.73Zm-7,9.86A4.59,4.59,0,1,1,24.59,20,4.58,4.58,0,0,1,20,24.59Zm4.77-8.29a1.08,1.08,0,1,1,1.08-1.07A1.07,1.07,0,0,1,24.77,16.3Z"/><path class="cls-1" d="M20,0A20,20,0,1,0,40,20,20,20,0,0,0,20,0Zm8.89,23.69a6.5,6.5,0,0,1-.42,2.17,4.57,4.57,0,0,1-2.61,2.61,6.5,6.5,0,0,1-2.17.42c-1,0-1.26.05-3.69.05s-2.73,0-3.69-.05a6.5,6.5,0,0,1-2.17-.42,4.57,4.57,0,0,1-2.61-2.61,6.5,6.5,0,0,1-.42-2.17c0-1,0-1.26,0-3.69s0-2.73,0-3.69a6.5,6.5,0,0,1,.42-2.17,4.57,4.57,0,0,1,2.61-2.61,6.5,6.5,0,0,1,2.17-.42c1,0,1.26,0,3.69,0s2.73,0,3.69,0a6.5,6.5,0,0,1,2.17.42,4.57,4.57,0,0,1,2.61,2.61,6.5,6.5,0,0,1,.42,2.17c0,1,.05,1.26.05,3.69S28.93,22.73,28.89,23.69Z"/></svg>