<?xml version="1.0" encoding="utf-8"?>
<!-- Generator: Adobe Illustrator 23.1.0, SVG Export Plug-In . SVG Version: 6.00 Build 0)  -->
<svg version="1.1" id="Capa_1" xmlns="http://www.w3.org/2000/svg" xmlns:xlink="http://www.w3.org/1999/xlink" x="0px" y="0px"
	 viewBox="0 0 40 40" style="enable-background:new 0 0 40 40;" xml:space="preserve">
<style type="text/css">
	.st0{fill:#1B915F;}
</style>
<g>
	<polygon class="st0" points="17.91,23.03 23.25,20 17.91,16.97 	"/>
	<path class="st0" d="M20,0C8.95,0,0,8.95,0,20s8.95,20,20,20c11.05,0,20-8.95,20-20S31.05,0,20,0z M29.77,24.94
		c-0.23,0.88-0.93,1.58-1.8,1.82C26.38,27.19,20,27.19,20,27.19s-6.38,0-7.97-0.43c-0.88-0.24-1.57-0.93-1.8-1.82
		C9.8,23.34,9.8,20,9.8,20s0-3.34,0.43-4.94c0.23-0.88,0.93-1.58,1.8-1.82c1.59-0.43,7.97-0.43,7.97-0.43s6.38,0,7.97,0.43
		c0.88,0.24,1.57,0.93,1.8,1.82C30.2,16.66,30.2,20,30.2,20S30.2,23.34,29.77,24.94z"/>
</g>
</svg>
