<?xml version="1.0" encoding="utf-8"?>
<!-- Generator: Adobe Illustrator 23.1.0, SVG Export Plug-In . SVG Version: 6.00 Build 0)  -->
<svg version="1.1" id="Logo" xmlns="http://www.w3.org/2000/svg" xmlns:xlink="http://www.w3.org/1999/xlink" x="0px" y="0px"
	 viewBox="0 0 595.28 841.89" style="enable-background:new 0 0 595.28 841.89;" xml:space="preserve">
<style type="text/css">
	.st0{fill-rule:evenodd;clip-rule:evenodd;fill:#FFFFFF;}
	.st1{fill:#FFFFFF;}
	.st2{fill-rule:evenodd;clip-rule:evenodd;fill:#FFFFFF;stroke:#FFFFFF;stroke-miterlimit:10;}
</style>
<g>
	<path class="st0" d="M91.08,278.48c0.4-0.67,0.81-1.28,1.07-1.81c0.34-0.27,0.54-0.74,0.54-1.41c0-0.74-0.47-1.75-1.68-2.69
		l0.87-0.87l17.46,14.64l-2.08,7.19l-1.41-0.47c0-4.7-1.81-8.66-5.57-11.89c-1.07-0.94-2.08-1.61-2.89-1.88
		c-0.4-0.27-0.81-0.13-1.21,0.07c-0.54,0.2-1.01,0.47-1.34,1.01c-0.13,0.13-0.34,0.34-0.47,0.47l-4.3,4.97
		c0.6,0.27,0.94,0.6,1.34,0.94c1.28,1.14,2.22,1.75,2.82,2.08c0.74,0.4,1.34,0.54,1.95,0.6c0.87,0,2.08-0.81,3.42-2.08l0.94,0.74
		l-7.93,9.34l-0.87-0.74c1.28-2.02,1.88-3.49,1.61-4.63c-0.34-0.74-0.47-1.28-0.87-1.68c-0.4-0.27-1.28-1.14-2.42-2.08l-1.28-0.94
		l-5.37,6.31c-0.6,0.87-1.14,1.48-1.34,2.08c-0.34,0.4-0.34,1.01-0.27,1.55c0.2,0.47,0.81,1.34,1.88,2.55l-0.6,0.81l-9.2-7.72
		l0.6-0.81c1.01,0.47,1.54,0.87,2.08,1.07c0.13,0.13,0.54,0.07,0.87,0c0.74,0,1.54-0.54,2.28-1.41L91.08,278.48L91.08,278.48z
		 M102.09,305.41l-0.81,0.81c-0.74,1.21-1.54,1.81-2.08,1.95c-0.87,0.4-1.95,0.07-3.16-0.87l-0.6,0.94l16.99,12.9l7.72-4.84
		l-0.4-1.28c-2.89,1.14-5.71,1.61-8.19,1.34c-2.42-0.27-4.43-1.28-6.11-2.49c-0.81-0.6-1.34-1.14-1.54-1.61
		c-0.54-0.4-0.6-0.94-0.4-1.34c0.2-0.6,0.47-1.34,0.94-2.02c0.2-0.2,0.47-0.47,0.6-0.67l10.14-13.63c0.94-1.21,1.95-1.68,2.82-1.68
		c0.47-0.2,0.6,0,1.14,0.2c0.2,0.34,0.74,0.54,1.41,1.01l0.94-1.08l-9.27-6.99l-0.94,1.01c1.14,0.81,1.61,1.55,1.75,2.42
		c0.07,0.74-0.13,1.68-0.87,2.49L102.09,305.41L102.09,305.41z M127.08,315.49c-0.81,1.54-1.48,2.96-1.88,4.5
		c-0.34,1.48-0.47,2.96-0.27,4.37c0.07,1.41,0.67,2.69,1.34,3.76c0.74,1.28,1.81,2.22,3.09,3.02c0.07,0,0.07,0,0.07,0l0.13-0.07
		c1.34,0.81,2.75,1.28,4.1,1.41c1.48-0.07,2.89-0.34,4.03-0.87c1.41-0.74,2.55-1.61,3.49-2.75c1.14-0.74,2.28-2.22,3.09-3.63
		c1.08-2.02,1.81-3.96,2.28-5.84c0.13-1.88-0.07-3.83-0.74-5.31c-0.67-1.75-1.95-3.09-3.69-4.16c-1.21-0.67-2.35-1.14-3.69-1.34
		c-1.07-0.2-2.62-0.13-3.83,0.27c-1.28,0.4-2.35,1.14-3.69,2.15C129.56,312.19,128.29,313.74,127.08,315.49L127.08,315.49z
		 M122.85,313.2c1.08-1.81,2.49-3.36,4.23-4.57c1.21-1.28,3.09-1.88,4.84-2.48c1.81-0.34,3.63-0.54,5.57-0.07
		c1.95,0.2,3.83,0.74,5.78,1.88c1.88,1.07,3.29,2.49,4.5,4.16c1.01,1.34,1.88,3.16,2.28,5.04c0.47,1.68,0.47,3.43,0.2,5.37
		c-0.27,1.61-0.94,3.49-1.88,5.17c-0.81,1.34-2.15,2.82-3.49,3.96c-1.28,1.28-2.96,2.15-4.9,2.75c-1.54,0.67-3.63,0.74-5.64,0.74
		c-1.81-0.4-3.76-0.94-5.71-2.28c-2.15-1.21-3.96-2.82-5.31-4.37c-1.07-1.68-1.81-3.63-2.35-5.37c-0.07-1.81-0.13-3.63,0.27-5.31
		C121.5,316.02,122.04,314.48,122.85,313.2L122.85,313.2z M161.4,324.22l-3.96,8.19l4.43,2.15l1.54,0.74
		c4.36,2.08,7.32,1.21,9.13-2.55c0.54-1.21,0.6-2.35,0.34-3.49c-0.47-1.14-1.14-1.95-2.22-2.75c-1.01-0.94-2.15-1.48-3.22-2.08
		c-1.34-0.54-2.55-1.01-3.83-1.21C162.54,323.01,161.87,323.21,161.4,324.22L161.4,324.22z M149.78,338.86l7.52-16.19
		c0.6-1.14,0.6-1.88,0.07-2.49c-0.4-0.67-1.07-1.28-2.28-1.88l0.6-1.28l11.96,5.58l2.01,0.94c2.62,1.34,4.7,2.69,5.57,4.1
		c0.54,0.54,1.21,1.28,1.41,1.95c0.07,0.47,0.27,1.28,0.27,2.42c-0.07,1.08-0.27,1.81-0.81,3.22c-0.54,1.01-1.41,1.88-2.55,2.62
		c-0.87,0.47-2.02,0.74-3.36,0.87c-1.14-0.07-2.49-0.13-3.76-0.6c0.67,2.49,1.34,5.98,1.95,10.48c0.2,1.68,0.54,2.62,1.14,3.42
		c0.2,0.6,1.14,1.28,1.95,1.95l-0.47,1.07l-6.18-2.82L162,336.44l-5.17-2.49l-3.56,7.39c-0.6,1.34-0.74,2.22-0.4,2.89
		c0.2,0.67,1.01,1.61,2.42,2.15l-0.4,1.01l-11.08-5.17l0.4-1.01c1.21,0.54,2.08,0.67,2.62,0.67c0.74,0,1.28-0.34,1.68-0.87
		C148.7,340.74,149.17,339.93,149.78,338.86L149.78,338.86z M182.02,334.09c0.34-0.87,0.47-1.68,0.67-2.15
		c-0.07-0.34,0-0.87-0.27-1.41c-0.27-0.67-1.01-1.28-2.49-1.75l0.54-1.48l22.3,7.72l0.34,7.93l-1.41-0.07
		c-0.67-2.42-1.88-4.37-3.76-5.78c-1.68-1.61-3.83-2.89-6.11-3.69c-1.21-0.47-2.22-0.6-3.16-0.81c-1.21,0.13-2.08,0.74-2.62,2.15
		l-2.08,6.18c0.6,0.27,1.01,0.34,1.28,0.47c1.68,0.54,2.89,0.87,3.56,1.07c1.01,0.2,1.68,0.13,2.01,0c0.67-0.4,1.68-1.61,2.55-3.36
		l1.48,0.47l-4.1,11.82l-1.41-0.47c0.6-2.35,0.47-3.9-0.13-5.11c-0.54-0.67-1.61-1.48-3.36-2.02l-2.62-0.94l-2.82,8.19
		c-0.34,1.01-0.47,1.88-0.13,2.62c0.07,0.67,0.81,1.55,2.08,2.02c0.27,0.07,0.74,0.4,1.61,0.67c1.75,0.67,3.36,0.81,5.24,0.74
		c1.95,0,3.63-0.27,5.31-0.87c1.61-0.67,3.29-1.48,4.9-2.62l1.07,1.01l-6.45,6.99l-22.63-7.99l0.27-0.94c0.2,0,0.47,0.2,0.87,0.27
		c0.34,0.07,0.54,0.07,0.81,0c0.2,0.13,0.6,0.07,0.81,0.13c0.13-0.13,0.47-0.2,0.6-0.27c0.67-0.4,1.21-1.07,1.54-2.15L182.02,334.09
		L182.02,334.09z M216.07,341.88l-7.19,11.01l9.07,2.08L216.07,341.88L216.07,341.88z M202.5,358.07c-0.6,0.81-1.14,1.48-1.88,2.08
		c-0.54,0.4-1.14,0.74-1.81,1.08c-0.47,0.2-1.07,0.13-1.95,0.13l-0.13,1.01l10.34,2.62l0.13-1.01c-1.14-0.4-2.02-0.94-2.35-1.41
		c-0.4-0.4-0.67-0.94-0.54-1.61c0.2-0.74,0.4-1.34,0.94-1.95c0.27-0.67,0.74-1.55,1.41-2.42c0.6-0.87,1.01-1.54,1.14-1.95
		l10.41,2.42c0.2,0.81,0.2,1.81,0.47,2.95c0.07,1.48,0.34,2.22,0.2,2.69c0.07,0.4,0.27,0.94,0.27,1.41
		c-0.27,1.54-1.61,2.08-3.69,1.61l-0.13,1.01l11.15,2.69l0.2-0.94c-0.34-0.2-0.74-0.27-1.14-0.54c-0.4-0.2-0.74-0.4-0.94-0.6
		c-0.27-0.47-0.6-1.01-0.87-1.61c-0.07-0.6-0.4-1.41-0.4-2.69l-3.63-23.78l-3.69-0.87L202.5,358.07L202.5,358.07z M238.91,366.87
		l3.43-18.6c0.13-0.87,0.07-1.48,0-1.75c-0.07-0.47-0.54-0.67-1.28-0.74c-1.41-0.27-2.69-0.34-3.9,0c-1.28,0.27-2.55,0.87-3.49,1.61
		c-1.14,0.81-2.01,1.75-2.75,2.62l-1.21-0.81l3.09-6.38l23.51,4.16l1.07,7.32l-1.48,0.4c-0.4-1.48-0.94-2.62-1.75-3.63
		c-0.74-1.14-1.68-2.01-2.62-2.75c-1.07-0.67-2.02-1.08-3.16-1.28c-0.6-0.07-1.01-0.13-1.34-0.07c-0.34,0.07-0.47,0.2-0.6,0.47
		c-0.13,0.13-0.2,0.54-0.34,1.14c0,0,0,0.13,0,0.27l-3.49,18.81c-0.13,0.94-0.13,1.68,0.07,2.22c0.07,0.67,0.47,1.14,1.01,1.55
		c0.54,0.34,1.54,0.6,2.75,0.81l-0.2,1.07l-12.63-2.22l0.13-1.01c1.21,0.27,2.02,0.27,2.69,0.2c0.67,0,1.21-0.27,1.61-0.87
		C238.44,368.95,238.71,368.08,238.91,366.87L238.91,366.87z M340.86,356.86c-1.01-1.28-2.02-2.08-2.69-2.15
		c-0.6-0.34-1.21-0.47-2.42-0.4l-0.47-1.28l11.62-3.09l0.47,1.21c-1.41,0.4-2.08,0.94-2.55,1.34c-0.47,0.27-0.67,0.87-0.4,1.34
		c0,0.27,0.27,1.01,1.21,2.22l11.49,15.78l2.28-20.08c0-0.34,0.07-0.74-0.07-1.21c-0.27-0.74-0.74-1.21-1.48-1.68
		c-0.67-0.13-1.68-0.13-2.82,0.34l-0.4-1.28l10.68-2.96l0.34,1.28c-0.94,0.13-1.54,0.6-2.08,1.07c-0.6,0.34-0.94,1.01-1.21,1.75
		c-0.27,0.81-0.67,1.81-0.74,3.22l-2.96,23.51l-2.42,0.67L340.86,356.86L340.86,356.86z M371.69,348.6
		c-0.47-0.87-0.67-1.61-0.87-2.15c-0.13-0.34-0.6-0.81-1.01-1.01c-0.67-0.47-1.95-0.27-3.29,0.13l-0.47-1.28l22.5-7.19l5.11,6.11
		l-1.28,0.81c-1.95-1.48-4.23-2.28-6.51-2.55c-2.28-0.27-4.63,0.07-6.92,0.87c-1.28,0.34-2.22,0.74-2.82,1.34
		c-1.21,0.54-1.34,1.54-0.87,3.02l2.08,6.31c0.54-0.2,0.94-0.2,1.34-0.47c1.48-0.4,2.62-1.01,3.29-1.21
		c0.87-0.34,1.28-0.81,1.61-1.34c0.27-0.74,0.4-2.22-0.07-4.16l1.48-0.54l3.76,11.96l-1.54,0.4c-0.67-2.08-1.81-3.36-3.02-3.83
		c-0.81-0.34-2.08-0.27-3.76,0.2l-2.49,1.01l2.49,8.26c0.2,1.01,0.87,1.81,1.21,2.15c0.6,0.54,1.61,0.67,3.02,0.4
		c0.2-0.07,0.74-0.13,1.68-0.34c1.75-0.6,3.29-1.54,4.84-2.69c1.41-1.07,2.55-2.42,3.56-3.89c1.07-1.48,1.81-3.22,2.35-5.04
		l1.48,0.13l-0.87,9.4l-22.84,7.32l-0.47-0.94c0.27,0,0.47-0.2,0.81-0.2c0.54-0.4,0.74-0.34,0.94-0.54c0.27-0.2,0.4-0.34,0.54-0.6
		c0.07-0.13,0.2-0.27,0.27-0.47c0.34-0.81,0.34-1.48,0-2.48L371.69,348.6L371.69,348.6z M404.07,353.64
		c0.6,1.28,0.87,2.15,0.87,2.55c0.13,0.6-0.07,1.28-0.47,1.68c-0.47,0.47-1.01,1.08-2.22,1.55l0.54,1.14l11.22-4.97l-0.47-1.01
		c-1.41,0.54-2.69,0.67-3.36,0.47c-0.6-0.34-1.21-0.87-1.75-2.28l-3.43-7.39l5.24-2.28l13.84,7.93l6.25-2.62l-0.54-1.01
		c-1.08,0.34-2.02,0.4-2.69,0.13c-0.87-0.07-1.95-0.4-3.36-1.41c-3.9-2.42-6.92-4.1-9.34-5.37c1.34-0.67,2.15-1.41,3.02-2.42
		c0.94-1.07,1.28-2.08,1.41-3.16c0.34-1.21,0.13-2.42-0.07-3.49c-0.54-1.28-1.34-2.22-2.08-2.96c-0.67-0.67-1.41-1.14-2.08-1.28
		c-0.74-0.27-1.41-0.34-2.35-0.4c-1.61-0.07-3.96,0.47-6.72,1.81l-2.01,0.87l-12.02,5.31l0.4,1.28c1.28-0.54,2.28-0.67,3.09-0.67
		c0.67,0.2,1.34,0.54,1.81,1.75L404.07,353.64L404.07,353.64z M400.57,335.5c-0.34-1.08-0.27-1.81,0.81-2.49
		c0.81-0.94,1.95-1.55,3.43-2.15c1.01-0.54,2.28-0.74,3.69-1.01c1.01-0.27,2.49-0.2,3.36,0.2c1.07,0.54,2.08,1.28,2.62,2.35
		c1.48,4.03,0.4,6.78-4.1,8.73l-1.54,0.67l-4.43,2.01L400.57,335.5L400.57,335.5z M424.42,325.43c-0.67-1.07-1.14-1.68-1.88-1.88
		c-0.67-0.27-1.55-0.2-2.35,0.2l-0.47,0.27l-0.67-1.14l9.67-5.24l0.6,1.21l-0.27,0.07c0,0.2-0.34,0.4-0.74,0.54
		c-0.4,0.47-0.67,0.6-0.67,1.07c-0.2,0.27-0.34,0.67-0.27,1.14c-0.07,0.67,0.2,1.34,0.67,1.95l8.73,16.46
		c0.54,1.01,1.28,1.61,1.95,1.75c0.67,0.27,1.61,0.07,2.62-0.54l0.6,1.14l-9.74,5.04l-0.6-0.94c1.01-0.67,1.68-1.21,1.95-1.81
		c0.27-0.74,0.07-1.68-0.47-2.69L424.42,325.43L424.42,325.43z M451.28,330.13c0.67,1.01,0.94,1.81,0.87,2.49
		c0.27,0.67-0.07,1.14-0.67,1.54c-0.4,0.6-1.14,1.28-2.15,1.81l0.54,0.94l11.55-6.52l-0.74-1.21c-1.01,0.67-1.95,1.07-2.62,1.21
		c-0.81,0.13-1.34-0.13-1.81-0.67c-0.54-0.07-1.01-0.87-1.41-1.61l-9.87-16.99c0-0.13-0.2-0.2-0.2-0.2c-0.4-0.54-0.47-0.81-0.4-1.07
		c-0.07-0.34-0.07-0.47,0.07-0.87c0.34-0.27,0.67-0.4,1.34-0.81c0.94-0.47,1.81-0.87,3.29-0.87c0.94-0.13,2.35-0.34,3.63,0.27
		c1.41,0.34,2.49,0.87,3.9,1.68l1.01-1.21l-5.71-5.17l-21.43,12.02l1.88,7.39l1.41-0.13c-0.07-1.14-0.07-2.55,0.27-4.03
		c0.4-1.28,1.07-2.35,1.81-3.36c0.81-1.01,2.02-1.95,3.22-2.75c0.6-0.34,1.01-0.47,1.28-0.2c0.34,0.2,0.81,0.74,1.07,1.54
		L451.28,330.13L451.28,330.13z M467.67,293.79l2.89,12.9l7.59-5.1L467.67,293.79L467.67,293.79z M469.89,315.15l-4.84-23.31
		l3.36-2.08l19.34,13.97c1.01,0.74,1.54,1.08,2.35,1.55c0.6,0,1.01,0.34,1.55,0.34c0.4,0.2,0.87-0.07,1.21-0.13
		c0.47-0.4,0.87-0.54,1.21-0.54l0.54,1.01l-9.67,6.11l-0.74-1.01c1.95-1.01,2.42-2.42,1.55-3.63c-0.27-0.27-0.81-0.67-1.07-0.94
		c-0.47-0.4-1.28-0.81-2.28-1.61c-0.94-0.74-1.75-1.21-2.42-1.75l-8.8,5.71c0.2,0.54,0.27,1.14,0.6,2.22
		c0.13,1.14,0.4,2.02,0.6,2.69c0.07,0.74,0.34,1.48,0.74,1.95c0.34,0.67,1.01,0.6,1.54,0.81c0.6,0,1.48-0.34,2.62-0.74l0.67,0.87
		l-8.93,5.64l-0.54-0.94c0.47-0.47,0.87-1.01,1.21-1.54c0.34-0.54,0.34-1.14,0.54-2.02C470.36,316.9,470.09,315.96,469.89,315.15
		L469.89,315.15z M498.84,285.53c3.16-1.41,5.24-1.34,6.65,0.54c0.81,0.94,1.14,1.95,1.14,3.09c0,1.21-0.4,2.42-0.87,3.36
		c-0.67,1.34-1.41,2.22-2.28,2.89c-0.81,0.6-1.41,0.74-1.61,0.94c-1.95,1.34-3.9,1.75-6.25,1.68c-2.22-0.13-4.37-0.74-6.85-1.68
		l-0.87,1.14l8.06,5.84l1.21-1.01l-0.94-2.15c3.22,0,6.05-1.07,8.6-3.09c1.54-1.21,2.62-2.82,3.69-4.16
		c0.87-1.75,1.21-3.49,1.14-5.37c-0.07-1.75-0.6-3.43-1.75-4.84c-2.28-2.69-4.97-3.29-8.6-2.02c-0.94,0.47-2.35,0.94-4.57,2.02
		c-1.61,0.87-3.22,1.68-4.7,2.15c-1.14,0.6-2.01,0.67-3.22,0.87c-1.14-0.2-2.28-0.6-2.96-1.61c-0.54-0.94-0.74-1.95-0.27-3.29
		c0.6-1.34,1.48-2.49,2.62-3.36c1.75-1.34,3.43-2.22,5.84-2.28c2.02-0.27,4.16,0.07,6.31,0.74l0.74-1.21l-6.65-4.3l-1.21,0.87
		l0.6,1.81c-1.07-0.13-2.15-0.07-3.49,0.6c-1.28,0.6-2.62,1.21-3.76,2.15c-0.74,0.6-1.34,1.34-1.88,1.75
		c-0.67,0.81-1.21,1.68-1.48,2.35c-0.54,0.74-0.81,1.48-1.01,2.35c-0.07,0.81-0.07,1.61,0.2,2.42c0.07,1.07,0.74,2.15,1.34,3.29
		c1.01,0.87,2.01,1.55,3.09,2.15c1.21-0.13,2.35,0,3.63-0.4c1.48-0.27,2.69-0.87,3.9-1.34
		C493.66,287.95,495.68,287.01,498.84,285.53z"/>
	<g>
		<path class="st1" d="M122.59,542.1c-10.67-1.68-16.13,4.21-24.96,6.67c14.52,14.3,42.02,30.85,43.25,8.04
			C135.1,548.28,127.85,543.14,122.59,542.1z M130.62,563.98c-9.27-1.8-16.29-2.99-25.38-13.55c9.15-7.27,19.71-9.63,32.64,6.32
			C137.96,561.27,133.83,564.34,130.62,563.98z"/>
		<path class="st1" d="M128.93,527.23c-4.58-7.13-10.09-11.64-14.48-12.96c-10.75-4.37-15.37,3.65-23.3,5.89
			c9,8.88,20.21,14.19,28.55,15.77C125.2,536.43,129.25,534.79,128.93,527.23z M97.27,521.57c8.38-1.19,16.02-11.46,28.8,5.05
			C121.66,539.98,105.52,527.8,97.27,521.57z"/>
		<path class="st1" d="M98.8,500.36c5.54,4.95,18.41,15.53,22.94,7.12c-3.25-9.95-11.88-16.73-15.36-18.26
			c-7.88-2.84-14.15-1.38-21.75-3.42C89.25,491.44,94.28,496.4,98.8,500.36z M117.6,503.69c-3.94,9.8-22.21-7.2-25.44-13.51
			C99.56,491.55,110.08,487.84,117.6,503.69z"/>
		<path class="st1" d="M103,485.78c2.94,2.4,6.04,3.75,8.67,3.63c1.11,0.09,4.88-0.42,4.82-4.5c-9.58-18.89-25.04-19.76-35.67-24.59
			C87.42,470.44,93.96,478.4,103,485.78z M113.04,484.72c-9.84,1.36-21.02-12.67-24.98-18.89
			C87.51,465.79,108.01,469.32,113.04,484.72z"/>
		<path class="st1" d="M127.52,460.54c11.76,2.24,13.63-10.6,15.94-20.48c-7.63-0.28-18.13-3-23.42,1.85
			c-1.42,1.52-3.15,4.64-2.21,10.8C121.14,457.96,124.55,460.93,127.52,460.54z M121,447c2.3-5.38,10.09-7.05,19.1-4.6
			c-0.55,7.19-7.97,23.71-18.68,11.15C120.71,451.34,120.37,449.3,121,447z"/>
		<path class="st1" d="M99.55,462.78c7.98,5.06,9.88,5.02,12.42,0.38c-1.73-9.25-5.87-13.04-9.49-16.31
			c-8.86-7.52-16.82-8.93-25.7-12.86C82.23,443.69,90.86,456.42,99.55,462.78z M109.07,462.11c-1.21,1.82-5.54,1.38-8.65-0.89
			c-3.96-3.01-12.78-12.39-16.67-20.95C92.25,444.02,107.33,446,109.07,462.11z"/>
		<path class="st1" d="M122.2,474.24c-0.83,1.99-0.5,4.04,0.32,8.47c3.65,4.98,8.13,7.6,11.83,6.22
			c8.59,0.02,11.94-10.26,15.25-17.76C139.8,470.77,126.29,464.79,122.2,474.24z M136.35,485.16c-3.64,2.25-6.99,2.46-11.4-2.88
			c-3.44-16.68,11.83-9.26,19.36-8.09C142.15,479.01,140.51,482.52,136.35,485.16z"/>
		<path class="st1" d="M127.62,495.77c-0.94,2.99-1.13,6.34-0.13,10.64c3.44,3.4,8.89,7.04,12.74,6.01
			c10-2.41,9.08-4.93,14.26-19.22C141.72,489.86,131.31,488.44,127.62,495.77z M150.09,495.09c-2.25,6.62-6.43,14.77-13.53,15.01
			c-2.87-0.61-5.38-1.86-7-3.86c-0.31-2.52-0.47-4.69-0.22-6.25C130.62,493.09,144.25,491.65,150.09,495.09z"/>
		<path class="st1" d="M137.68,528.52c0.07,1.78,0.41,3.82,0.74,5.86c2.61,3.46,5.72,5.73,9.18,6.82
			c12.72,1.99,17.54-10.77,21.62-21.13C158.74,519.71,137.47,509.89,137.68,528.52z M147.02,537.51c-2.69-0.75-4.39-1.31-6.82-4
			c-3.55-18.89,12.28-11.43,22.62-10.51C160.85,530.42,155.74,539.27,147.02,537.51z"/>
		<path class="st1" d="M154.39,547.6c0,0-2.13,5.25-0.73,10.53c3.54,5.61,7.41,7.31,10.66,8.1c12.89,2.23,20.73-10.84,25.19-21.04
			C178.37,543.87,159.83,535.76,154.39,547.6z M182.55,548.09c-3.66,7.76-10.48,18.34-20.7,14.49c-1.7-0.57-4.31-2.75-5.97-5.18
			C157.56,541.57,167.74,545.36,182.55,548.09z"/>
		<path class="st1" d="M179.32,586.68c-34.95-26.49-47.93-42.4-63.15-129.31c-0.41-0.61-3.15,0.51-3.22-0.36
			c16.03,91.71,29.27,105.68,67.39,134.4C179.58,591.06,180.29,587.33,179.32,586.68z"/>
	</g>
	<g>
		<path class="st1" d="M472.67,542.1c-5.25,1.04-12.5,6.18-18.29,14.7c1.23,22.82,28.73,6.27,43.25-8.04
			C488.8,546.31,483.35,540.42,472.67,542.1z M464.65,563.98c-3.22,0.36-7.34-2.72-7.26-7.23c12.92-15.95,23.48-13.59,32.64-6.32
			C480.94,560.99,473.92,562.18,464.65,563.98z"/>
		<path class="st1" d="M480.81,514.28c-4.39,1.31-9.9,5.83-14.48,12.96c-0.31,7.56,3.74,9.19,9.23,8.7
			c8.34-1.58,19.55-6.89,28.55-15.77C496.18,517.93,491.56,509.91,480.81,514.28z M469.2,526.62c12.78-16.51,20.42-6.24,28.8-5.05
			C489.75,527.8,473.61,539.98,469.2,526.62z"/>
		<path class="st1" d="M473.53,507.48c4.53,8.41,17.4-2.17,22.94-7.12c4.53-3.96,9.56-8.92,14.17-14.56
			c-7.6,2.04-13.87,0.58-21.75,3.42C485.4,490.75,476.78,497.53,473.53,507.48z M477.67,503.69c7.51-15.85,18.04-12.14,25.44-13.51
			C499.88,496.49,481.61,513.49,477.67,503.69z"/>
		<path class="st1" d="M478.78,484.91c-0.06,4.08,3.71,4.59,4.82,4.5c2.63,0.12,5.73-1.23,8.67-3.63
			c9.04-7.39,15.58-15.35,22.18-25.46C503.82,465.15,488.36,466.01,478.78,484.91z M507.21,465.83
			c-3.96,6.22-15.14,20.25-24.98,18.89C487.26,469.32,507.76,465.79,507.21,465.83z"/>
		<path class="st1" d="M467.74,460.54c2.98,0.38,6.39-2.58,9.68-7.82c0.95-6.17-0.78-9.29-2.21-10.8
			c-5.28-4.85-15.79-2.13-23.42-1.85C454.11,449.94,455.99,462.79,467.74,460.54z M474.27,447c0.63,2.3,0.29,4.34-0.42,6.56
			c-10.71,12.56-18.13-3.96-18.68-11.15C464.18,439.95,471.97,441.62,474.27,447z"/>
		<path class="st1" d="M495.71,462.78c8.69-6.36,17.32-19.09,22.77-28.78c-8.88,3.93-16.83,5.34-25.7,12.86
			c-3.61,3.27-7.76,7.05-9.49,16.31C485.83,467.8,487.73,467.84,495.71,462.78z M511.51,440.27c-3.88,8.56-12.7,17.95-16.67,20.95
			c-3.11,2.27-7.44,2.71-8.65,0.89C487.94,446,503.02,444.02,511.51,440.27z"/>
		<path class="st1" d="M460.91,488.93c3.7,1.38,8.19-1.24,11.83-6.22c0.82-4.43,1.15-6.47,0.32-8.47
			c-4.08-9.45-17.59-3.47-27.4-3.07C448.97,478.67,452.32,488.95,460.91,488.93z M470.32,482.28c-4.41,5.33-7.77,5.13-11.4,2.88
			c-4.16-2.64-5.8-6.15-7.96-10.96C458.5,473.02,473.77,465.6,470.32,482.28z"/>
		<path class="st1" d="M455.04,512.41c3.85,1.03,9.3-2.61,12.74-6.01c0.99-4.3,0.81-7.64-0.13-10.64
			c-3.69-7.33-14.1-5.91-26.86-2.58C445.96,507.49,445.04,510.01,455.04,512.41z M465.92,499.99c0.25,1.56,0.09,3.73-0.22,6.25
			c-1.62,2-4.13,3.25-7,3.86c-7.1-0.24-11.28-8.39-13.52-15.01C451.02,491.65,464.65,493.09,465.92,499.99z"/>
		<path class="st1" d="M447.67,541.2c3.45-1.09,6.57-3.36,9.18-6.82c0.33-2.04,0.67-4.08,0.74-5.86c0.21-18.63-21.06-8.8-31.54-8.45
			C430.13,530.44,434.95,543.19,447.67,541.2z M455.07,533.51c-2.43,2.68-4.13,3.25-6.82,4c-8.72,1.76-13.83-7.09-15.79-14.5
			C442.79,522.08,458.62,514.62,455.07,533.51z"/>
		<path class="st1" d="M430.95,566.24c3.25-0.79,7.12-2.49,10.66-8.1c1.4-5.28-0.73-10.53-0.73-10.53
			c-5.44-11.84-23.98-3.73-35.12-2.4C410.22,555.39,418.06,568.46,430.95,566.24z M439.39,557.4c-1.65,2.44-4.27,4.61-5.97,5.18
			c-10.22,3.85-17.05-6.73-20.7-14.49C427.52,545.36,437.71,541.57,439.39,557.4z"/>
		<path class="st1" d="M479.1,457.37c-15.22,86.91-28.2,102.81-63.15,129.31c-0.97,0.65-0.26,4.39-1.03,4.74
			c38.12-28.72,51.36-42.69,67.39-134.4C482.25,457.88,479.51,456.76,479.1,457.37z"/>
	</g>
	<path class="st0" d="M261.11,336.27h-22.87c1.89-30.78,22.01-47.24,44.72-51.16v-0.81h-44.83v-20.7h44.83v-0.99
		c-24.06-4.16-45.24-21.25-44.96-50.64h22.59c0,15.43,10.04,25.57,22.37,29.4v-29.32h22.51v29.31
		c11.38-3.64,20.84-13.17,22.31-29.39h22.87c-0.25,30.23-21.33,46.94-45.18,50.78v0.86h45.18v20.7h-45.18v0.91
		c24.05,4.31,45.31,22.01,45.28,51.06h-22.59c0-15.59-10.22-25.78-22.69-29.52v29.52h-22.51v-29.26
		C271.79,310.76,262.57,320.24,261.11,336.27z"/>
	<path class="st2" d="M214.07,100.78c0.22,4.38,0.48,8.75,0.7,13.13c0.22,4.39,0.48,8.78,0.73,13.18c-0.48,0.1-0.95,0.2-1.43,0.3
		c-1.88-7.51-4.54-12.53-8.06-14.85c-3.47-2.28-7.74-2.47-12.6-0.58c-4.15,1.61-7.83,4.37-11.14,8.02
		c-3.29,3.63-5.93,8.14-7.84,13.57c-0.95,2.68-1.68,5.53-2.13,8.52c-0.45,2.97-0.7,6.15-0.7,9.52c0,5.56,0.92,10.23,2.69,14.1
		c1.82,3.99,4.54,7.01,8.09,9.15c3.64,2.2,7.73,3.32,12.35,3.2c4-0.1,7.57-1.2,10.61-3.38c3.09-2.22,6.47-6.66,10.14-13.35
		c0.48,0.36,0.95,0.72,1.43,1.08c-3.11,7.18-6.7,12.4-10.89,15.64c-4.1,3.17-9.07,4.67-14.75,4.67c-10.28,0-18.14-3.86-23.85-10.95
		c-2.01-2.5-3.71-5.12-4.76-8.01c-1.03-2.83-1.57-5.95-1.57-9.42c0-2.79,0.37-5.6,1.04-8.41c0.68-2.85,1.76-5.77,3.14-8.78
		c2.8-6.13,6.6-11.78,11.42-16.94c4.89-5.23,10.1-9.26,15.93-11.69c4.39-1.83,8.89-2.2,13.24-0.98c1.28,0.36,2.18,0.52,2.72,0.35
		c0.81-0.26,1.57-0.86,2.16-1.77c0.81-1.26,1.34-2.86,1.68-4.81C212.95,101.13,213.51,100.95,214.07,100.78z"/>
	<path class="st2" d="M249.15,178.4c0,0.78,0,1.56,0,2.34c-8.88,0.03-17.75,0.08-26.62,0.13c0-0.73,0-1.45,0-2.19
		c0.73-0.01,1.46-0.02,2.21-0.03c2.58-0.03,4.45-1.04,5.6-3.04c0.76-1.32,1.09-4.46,1.09-9.42c0-8.93,0-17.88,0-26.81
		c0-8.93,0-17.88,0-26.82c0-4.19-0.19-6.92-0.59-8.17c-0.3-0.96-0.94-1.71-1.9-2.21c-1.33-0.69-2.74-0.79-4.2-0.41
		c-0.76,0.19-1.48,0.38-2.21,0.57c0-0.73,0-1.46,0-2.19c8.87-2.2,17.75-4.08,26.62-5.65c0,0.78,0,1.57,0,2.34
		c-0.76,0.12-1.48,0.22-2.21,0.34c-2.55,0.41-4.38,1.79-5.54,4.02c-0.77,1.49-1.15,4.75-1.15,9.82c0,9.14,0,18.28,0,27.41
		c0,9.13,0,18.27,0,27.4c0,4.29,0.19,7.11,0.59,8.47c0.3,1.04,0.95,1.93,1.93,2.66c1.32,0.99,2.69,1.48,4.17,1.47
		C247.67,178.42,248.39,178.41,249.15,178.4z"/>
	<path class="st2" d="M271.02,96.67c0,5.85,0,11.7,0,17.55c0,5.85,0,11.7,0,17.55c4.56-0.18,9.13-0.34,13.69-0.44
		c3.55-0.08,5.9-0.86,7.11-2.41c1.59-2.04,2.46-5.62,2.66-10.73c0.56-0.01,1.12-0.01,1.68-0.01c0,5.22,0,10.44,0,15.66
		c0,5.21,0,10.44,0,15.65c-0.56,0-1.12,0-1.68,0.01c-0.45-4.38-0.85-7.2-1.29-8.44c-0.54-1.54-1.46-2.75-2.72-3.62
		c-1.26-0.87-3.16-1.29-5.77-1.24c-4.56,0.09-9.13,0.24-13.69,0.4c0,4.89,0,9.78,0,14.66c0,4.88,0,9.76,0,14.64
		c0,3.94,0.11,6.32,0.36,7.17c0.25,0.85,0.69,1.53,1.29,2.03c0.6,0.5,1.76,0.75,3.47,0.75c3.5-0.02,7-0.03,10.53-0.04
		c3.5-0.01,6.05-0.37,7.64-1.07c1.57-0.7,3.11-2.11,4.56-4.18c1.91-2.73,3.84-6.86,5.82-12.36c0.62,0,1.23,0,1.88,0.01
		c-1.79,7.49-3.58,14.98-5.38,22.47c-15.99,0-31.94,0.03-47.9,0.07c0-0.78,0-1.56,0-2.35c0.73-0.01,1.46-0.01,2.21-0.01
		c1.46-0.01,2.83-0.55,4.17-1.53c0.96-0.71,1.64-1.74,1.99-3.13c0.35-1.4,0.53-4.23,0.53-8.53c0-9.53,0-19.06,0-28.59
		c0-9.53,0-19.07,0-28.61c0-5.58-0.37-8.97-1.18-10.15c-1.1-1.6-2.94-2.22-5.52-1.9c-0.76,0.09-1.48,0.18-2.21,0.29
		c0-0.78,0-1.57,0-2.36c15.96-1.83,31.94-2.8,47.93-3.01c0.2,6.59,0.42,13.19,0.64,19.78c-0.59-0.01-1.18-0.01-1.76-0.02
		c-0.64-4.77-1.34-8.06-2.13-9.85c-0.78-1.79-1.92-3.16-3.47-4.06c-1.17-0.68-3.36-0.99-6.44-0.9
		C282.38,95.97,276.7,96.3,271.02,96.67z"/>
	<path class="st2" d="M372.14,180.86c-5.57-0.03-11.12-0.06-16.66-0.09c-3.53-6.66-7.1-13.4-10.58-20.24
		c-3.52-6.91-7.03-13.87-10.53-20.9c-1.51-0.01-2.74-0.02-3.7-0.07c-0.39-0.02-0.81-0.06-1.26-0.1c-0.45-0.04-0.9-0.08-1.4-0.15
		c0,4.29,0,8.58,0,12.88c0,4.29,0,8.58,0,12.88c0,5.56,0.45,9,1.29,10.35c1.18,1.91,2.88,2.89,5.21,2.9c0.81,0,1.62,0.01,2.44,0.01
		c0,0.8,0,1.58,0,2.37c-8.9-0.02-17.78-0.04-26.65-0.05c0-0.81,0-1.61,0-2.43c0.76,0,1.54,0,2.32,0c2.63,0.01,4.49-1.24,5.63-3.67
		c0.63-1.34,0.95-4.56,0.95-9.63c0-9.61,0-19.23,0-28.84c0-9.61,0-19.23,0-28.85c0-5.6-0.42-9.11-1.26-10.5
		c-1.2-2.01-2.97-3.08-5.32-3.17c-0.78-0.03-1.57-0.06-2.32-0.09c0-0.81,0-1.62,0-2.44c7.53,0.37,15.11,0.81,22.65,1.64
		c6.63,0.73,11.48,2.21,14.59,4.02c3.14,1.83,5.79,4.76,7.98,8.66c2.18,3.87,3.28,8.21,3.28,13.04c0,5.17-1.23,9.5-3.72,13.03
		c-2.52,3.57-6.35,5.93-11.59,7.13c2.13,4.29,4.28,8.55,6.41,12.77c2.13,4.21,4.31,8.39,6.47,12.53c2.94,5.65,5.44,9.4,7.56,11.25
		c2.11,1.84,4.84,3,8.23,3.54C372.14,179.41,372.14,180.14,372.14,180.86L372.14,180.86z M328.02,135.19
		c0.59,0.03,1.09,0.05,1.51,0.09c0.42,0.04,0.76,0.08,1.04,0.1c5.85,0.35,10.26-1.16,13.24-4.48c2.98-3.31,4.48-7.66,4.48-13.15
		c0-5.35-1.2-9.88-3.58-13.59c-2.4-3.73-5.6-5.83-9.57-6.3c-1.73-0.21-4.12-0.05-7.11,0.49c0,6.14,0,12.29,0,18.43
		C328.02,122.91,328.02,129.05,328.02,135.19z"/>
	<path class="st2" d="M428.78,121.11c0.25,3.24,0.53,6.48,0.78,9.68c0.25,3.18,0.53,6.37,0.81,9.54c-0.59-0.24-1.15-0.46-1.71-0.68
		c-1.6-5.26-3.71-9.7-6.24-13.29c-3.71-5.27-8.37-9.36-14.22-11.8c-7.81-3.25-13.91-1.69-17.97,4.63c-1.76,2.72-3.05,5.95-3.89,9.61
		c-0.84,3.69-1.29,7.83-1.29,12.35c0,7.35,1.13,14.19,3.44,20.44c2.27,6.13,5.25,10.63,8.99,13.47c3.68,2.79,7.53,4.15,11.42,4.23
		c2.3,0.05,4.51-0.23,6.66-0.78c2.13-0.54,4.17-1.34,6.16-2.41c0-3.02,0-6.04,0-9.05c0-3.02,0-6.04,0-9.05
		c0-3.14-0.23-5.25-0.7-6.33c-0.48-1.1-1.21-2.02-2.21-2.79c-0.99-0.76-2.74-1.47-5.24-2.09c0-0.6,0-1.19,0-1.8
		c8.01,2.14,16.01,4.46,24.05,6.97c0,0.49,0,0.98,0,1.46c-0.42-0.12-0.81-0.24-1.18-0.34c-2.38-0.71-4.02-0.47-4.9,0.74
		c-0.63,0.87-0.9,2.88-0.9,6c0,2.96,0,5.92,0,8.87c0,2.95,0,5.91,0,8.86c-3.5,1.67-6.98,2.92-10.39,3.78
		c-3.43,0.87-7.22,1.36-11.39,1.36c-12.01,0-21.12-4.71-27.33-14.54c-2.39-3.78-4.12-7.88-5.26-12.25
		c-1.15-4.39-1.74-9.03-1.74-13.9c0-7.06,1.3-13.62,3.95-19.46c3.09-6.8,7.29-11.49,12.79-13.56c4.49-1.68,9.92-1.06,16.13,1.6
		c2.25,0.96,4.28,2.1,6.13,3.37c1.85,1.27,4.47,3.32,7.87,6.25c1.7,1.47,2.86,2.39,3.42,2.67c0.59,0.29,1.06,0.27,1.48-0.03
		c0.42-0.3,0.67-1.18,0.76-2.65C427.63,120.5,428.19,120.8,428.78,121.11z"/>
	<path class="st0" d="M214.07,100.78c0.22,4.38,0.48,8.75,0.7,13.13c0.22,4.39,0.48,8.78,0.73,13.18c-0.48,0.1-0.95,0.2-1.43,0.3
		c-1.88-7.51-4.54-12.53-8.06-14.85c-3.47-2.28-7.74-2.47-12.6-0.58c-4.15,1.61-7.83,4.37-11.14,8.02
		c-3.29,3.63-5.93,8.14-7.84,13.57c-0.95,2.68-1.68,5.53-2.13,8.52c-0.45,2.97-0.7,6.15-0.7,9.52c0,5.56,0.92,10.23,2.69,14.1
		c1.82,3.99,4.54,7.01,8.09,9.15c3.64,2.2,7.73,3.32,12.35,3.2c4-0.1,7.57-1.2,10.61-3.38c3.09-2.22,6.47-6.66,10.14-13.35
		c0.48,0.36,0.95,0.72,1.43,1.08c-3.11,7.18-6.7,12.4-10.89,15.64c-4.1,3.17-9.07,4.67-14.75,4.67c-10.28,0-18.14-3.86-23.85-10.95
		c-2.01-2.5-3.71-5.12-4.76-8.01c-1.03-2.83-1.57-5.95-1.57-9.42c0-2.79,0.37-5.6,1.04-8.41c0.68-2.85,1.76-5.77,3.14-8.78
		c2.8-6.13,6.6-11.78,11.42-16.94c4.89-5.23,10.1-9.26,15.93-11.69c4.39-1.83,8.89-2.2,13.24-0.98c1.28,0.36,2.18,0.52,2.72,0.35
		c0.81-0.26,1.57-0.86,2.16-1.77c0.81-1.26,1.34-2.86,1.68-4.81C212.95,101.13,213.51,100.95,214.07,100.78z"/>
	<path class="st0" d="M249.15,178.4c0,0.78,0,1.56,0,2.34c-8.88,0.03-17.75,0.08-26.62,0.13c0-0.73,0-1.45,0-2.19
		c0.73-0.01,1.46-0.02,2.21-0.03c2.58-0.03,4.45-1.04,5.6-3.04c0.76-1.32,1.09-4.46,1.09-9.42c0-8.93,0-17.88,0-26.81
		c0-8.93,0-17.88,0-26.82c0-4.19-0.19-6.92-0.59-8.17c-0.3-0.96-0.94-1.71-1.9-2.21c-1.33-0.69-2.74-0.79-4.2-0.41
		c-0.76,0.19-1.48,0.38-2.21,0.57c0-0.73,0-1.46,0-2.19c8.87-2.2,17.75-4.08,26.62-5.65c0,0.78,0,1.57,0,2.34
		c-0.76,0.12-1.48,0.22-2.21,0.34c-2.55,0.41-4.38,1.79-5.54,4.02c-0.77,1.49-1.15,4.75-1.15,9.82c0,9.14,0,18.28,0,27.41
		c0,9.13,0,18.27,0,27.4c0,4.29,0.19,7.11,0.59,8.47c0.3,1.04,0.95,1.93,1.93,2.66c1.32,0.99,2.69,1.48,4.17,1.47
		C247.67,178.42,248.39,178.41,249.15,178.4z"/>
	<path class="st0" d="M271.02,96.67c0,5.85,0,11.7,0,17.55c0,5.85,0,11.7,0,17.55c4.56-0.18,9.13-0.34,13.69-0.44
		c3.55-0.08,5.9-0.86,7.11-2.41c1.59-2.04,2.46-5.62,2.66-10.73c0.56-0.01,1.12-0.01,1.68-0.01c0,5.22,0,10.44,0,15.66
		c0,5.21,0,10.44,0,15.65c-0.56,0-1.12,0-1.68,0.01c-0.45-4.38-0.85-7.2-1.29-8.44c-0.54-1.54-1.46-2.75-2.72-3.62
		c-1.26-0.87-3.16-1.29-5.77-1.24c-4.56,0.09-9.13,0.24-13.69,0.4c0,4.89,0,9.78,0,14.66c0,4.88,0,9.76,0,14.64
		c0,3.94,0.11,6.32,0.36,7.17c0.25,0.85,0.69,1.53,1.29,2.03c0.6,0.5,1.76,0.75,3.47,0.75c3.5-0.02,7-0.03,10.53-0.04
		c3.5-0.01,6.05-0.37,7.64-1.07c1.57-0.7,3.11-2.11,4.56-4.18c1.91-2.73,3.84-6.86,5.82-12.36c0.62,0,1.23,0,1.88,0.01
		c-1.79,7.49-3.58,14.98-5.38,22.47c-15.99,0-31.94,0.03-47.9,0.07c0-0.78,0-1.56,0-2.35c0.73-0.01,1.46-0.01,2.21-0.01
		c1.46-0.01,2.83-0.55,4.17-1.53c0.96-0.71,1.64-1.74,1.99-3.13c0.35-1.4,0.53-4.23,0.53-8.53c0-9.53,0-19.06,0-28.59
		c0-9.53,0-19.07,0-28.61c0-5.58-0.37-8.97-1.18-10.15c-1.1-1.6-2.94-2.22-5.52-1.9c-0.76,0.09-1.48,0.18-2.21,0.29
		c0-0.78,0-1.57,0-2.36c15.96-1.83,31.94-2.8,47.93-3.01c0.2,6.59,0.42,13.19,0.64,19.78c-0.59-0.01-1.18-0.01-1.76-0.02
		c-0.64-4.77-1.34-8.06-2.13-9.85c-0.78-1.79-1.92-3.16-3.47-4.06c-1.17-0.68-3.36-0.99-6.44-0.9
		C282.38,95.97,276.7,96.3,271.02,96.67z"/>
	<path class="st0" d="M372.14,180.86c-5.57-0.03-11.12-0.06-16.66-0.09c-3.53-6.66-7.1-13.4-10.58-20.24
		c-3.52-6.91-7.03-13.87-10.53-20.9c-1.51-0.01-2.74-0.02-3.7-0.07c-0.39-0.02-0.81-0.06-1.26-0.1c-0.45-0.04-0.9-0.08-1.4-0.15
		c0,4.29,0,8.58,0,12.88c0,4.29,0,8.58,0,12.88c0,5.56,0.45,9,1.29,10.35c1.18,1.91,2.88,2.89,5.21,2.9c0.81,0,1.62,0.01,2.44,0.01
		c0,0.8,0,1.58,0,2.37c-8.9-0.02-17.78-0.04-26.65-0.05c0-0.81,0-1.61,0-2.43c0.76,0,1.54,0,2.32,0c2.63,0.01,4.49-1.24,5.63-3.67
		c0.63-1.34,0.95-4.56,0.95-9.63c0-9.61,0-19.23,0-28.84c0-9.61,0-19.23,0-28.85c0-5.6-0.42-9.11-1.26-10.5
		c-1.2-2.01-2.97-3.08-5.32-3.17c-0.78-0.03-1.57-0.06-2.32-0.09c0-0.81,0-1.62,0-2.44c7.53,0.37,15.11,0.81,22.65,1.64
		c6.63,0.73,11.48,2.21,14.59,4.02c3.14,1.83,5.79,4.76,7.98,8.66c2.18,3.87,3.28,8.21,3.28,13.04c0,5.17-1.23,9.5-3.72,13.03
		c-2.52,3.57-6.35,5.93-11.59,7.13c2.13,4.29,4.28,8.55,6.41,12.77c2.13,4.21,4.31,8.39,6.47,12.53c2.94,5.65,5.44,9.4,7.56,11.25
		c2.11,1.84,4.84,3,8.23,3.54C372.14,179.41,372.14,180.14,372.14,180.86L372.14,180.86z M328.02,135.19
		c0.59,0.03,1.09,0.05,1.51,0.09c0.42,0.04,0.76,0.08,1.04,0.1c5.85,0.35,10.26-1.16,13.24-4.48c2.98-3.31,4.48-7.66,4.48-13.15
		c0-5.35-1.2-9.88-3.58-13.59c-2.4-3.73-5.6-5.83-9.57-6.3c-1.73-0.21-4.12-0.05-7.11,0.49c0,6.14,0,12.29,0,18.43
		C328.02,122.91,328.02,129.05,328.02,135.19z"/>
	<path class="st0" d="M428.78,121.11c0.25,3.24,0.53,6.48,0.78,9.68c0.25,3.18,0.53,6.37,0.81,9.54c-0.59-0.24-1.15-0.46-1.71-0.68
		c-1.6-5.26-3.71-9.7-6.24-13.29c-3.71-5.27-8.37-9.36-14.22-11.8c-7.81-3.25-13.91-1.69-17.97,4.63c-1.76,2.72-3.05,5.95-3.89,9.61
		c-0.84,3.69-1.29,7.83-1.29,12.35c0,7.35,1.13,14.19,3.44,20.44c2.27,6.13,5.25,10.63,8.99,13.47c3.68,2.79,7.53,4.15,11.42,4.23
		c2.3,0.05,4.51-0.23,6.66-0.78c2.13-0.54,4.17-1.34,6.16-2.41c0-3.02,0-6.04,0-9.05c0-3.02,0-6.04,0-9.05
		c0-3.14-0.23-5.25-0.7-6.33c-0.48-1.1-1.21-2.02-2.21-2.79c-0.99-0.76-2.74-1.47-5.24-2.09c0-0.6,0-1.19,0-1.8
		c8.01,2.14,16.01,4.46,24.05,6.97c0,0.49,0,0.98,0,1.46c-0.42-0.12-0.81-0.24-1.18-0.34c-2.38-0.71-4.02-0.47-4.9,0.74
		c-0.63,0.87-0.9,2.88-0.9,6c0,2.96,0,5.92,0,8.87c0,2.95,0,5.91,0,8.86c-3.5,1.67-6.98,2.92-10.39,3.78
		c-3.43,0.87-7.22,1.36-11.39,1.36c-12.01,0-21.12-4.71-27.33-14.54c-2.39-3.78-4.12-7.88-5.26-12.25
		c-1.15-4.39-1.74-9.03-1.74-13.9c0-7.06,1.3-13.62,3.95-19.46c3.09-6.8,7.29-11.49,12.79-13.56c4.49-1.68,9.92-1.06,16.13,1.6
		c2.25,0.96,4.28,2.1,6.13,3.37c1.85,1.27,4.47,3.32,7.87,6.25c1.7,1.47,2.86,2.39,3.42,2.67c0.59,0.29,1.06,0.27,1.48-0.03
		c0.42-0.3,0.67-1.18,0.76-2.65C427.63,120.5,428.19,120.8,428.78,121.11z"/>
	<g>
		<path class="st1" d="M274.02,436.52c-2.52-0.86-7.64,0.63-9.41,0c4.63-2.7,5.25-5.61,1.18-5.19v-1.19
			c-0.59-0.63-4.99,1.19-9.64,5.52c0-2.16,1.31-4.1-0.95-5.72c-2.85-1.07-5.84,2.26-5.48,6.58c-2.62-2.49-5.25-4.33-6.2-4
			c-2.39,1.4,0,3.68,0.13,5.61c0,0.33-1.44-3.02-4.29-5.07c-1.9-1.28-2.49-2.05-4.06-1.93c-2.98,1.19-0.95,7.21,3.34,8.93
			c-4.65,0.23-13.58,2.28-14.3,3.47c-0.36,0.86,1.08,1.07,4.29,2.05c-3.21,1.93-11.18,3.56-9.54,6.23c1.44,1.84,5.48,1.09,9.77-0.86
			c-2.62,5.49,7.87,3.35,10.49,2.28c0.82,2.47,7.25,2.05,7.25-0.44c5.01,1.72,8.36-0.65,9.54-2.05c10.72,0.53,11.77-3.23,5.24-5.49
			c6.53,0.53,11.06,1.19,11.06-2.7c-0.46-0.44-3.21-0.74-3.91-1.07C276.97,440.06,274.48,436.73,274.02,436.52z M267.74,432.1
			c1.21,1.19-4.04,4.51-4.27,4.63c-1.57,0.65-5.96,1.28-7.87,1.28c0.36-0.21,0.72-0.54,1.08-0.74
			C260.62,434.57,266.56,430.15,267.74,432.1z M265.38,430.26l-0.23,1.4c-4.42,1.63-5.25,3.35-10.36,6.14
			C255.12,436.52,261.91,430.8,265.38,430.26z M254.78,430.26c2.13,1.07,0.82,3.12,0.82,5.61c-0.12,0.09-1.11,1.5-1.29,1.59
			c-0.01,0-0.02,0.02-0.02,0.02c0,0,0.02-0.01,0.02-0.02c-0.1-0.15-3.19-1.34-4.32-0.73C249.77,436.62,250,429.08,254.78,430.26z
			 M243.58,432.85c1.18,0,3.93,2.05,5.37,3.88c-1.67,0-3.57,0.09-5.14,1.07C243.81,437.38,241.21,433.38,243.58,432.85z
			 M246.13,437.72c4.05-0.98,7.72-0.33,8.19,1.46c0.47,1.79-2.44,4.03-6.49,5.02c-4.05,0.98-7.72,0.33-8.19-1.46
			C239.17,440.95,242.08,438.7,246.13,437.72z M235.48,431.45c0.85-0.65,7.36,4.5,7.38,6.67c0,0,0,0.01,0,0.01c0,0,0-0.01,0-0.01
			c-0.26,0.07-3.65,1.53-3.31,1.64C236.2,440.18,231.8,432.43,235.48,431.45z M227.38,444.81c-3.08-1.07-4.52-0.86-0.23-2.14
			c3.34-1.09,8.23-2.28,11.9-2.28c-0.36,0.65-0.72,1.63-0.72,2.37C234.52,443.29,230.36,445.78,227.38,444.81z M219.05,451.27
			c-1.31-1.93,15.25-7.21,18.82-8.19c1.31,0,1.18,0.21,2.49,1.51C236.92,444.71,222.49,456.44,219.05,451.27z M239.18,452.34
			c-0.23,1.51-13.83,4.09-9.77-1.49c2.73-2.05,8.69-5.72,11.08-6.05c0.36,0,1.18,0.54,1.31,0.77
			C241.21,448.16,239.77,450.3,239.18,452.34z M239.77,452.9c-0.13-0.23-0.13-0.56,0-0.86l2.49-6.58c0.59,0,0.72,0,0.95,0.44
			c0.26,2.58,1.31,4.51,2.75,6.56C247.02,454.18,240.49,455.58,239.77,452.9z M246.92,452.58c-1.18-0.44-4.88-7.33-2.75-7.12
			c1.08,0.12,2.75-0.21,4.06-0.42c1.08,0.3,7.38,3.77,7.38,5.91C253.34,452.9,249.18,453.65,246.92,452.58z M264.43,447.62
			c1.41,0.95-1.8,3.77-8.46,2.47c-2.75-2.91-4.29-3.33-7.15-5.17l4.16-2.16C256.92,443.94,261.91,445.78,264.43,447.62z
			 M264.53,441.15c1.8,0.65,5.73,1.19,7.28,1.61c1.08,5.82-18.95,0.12-18.46-0.21c1.54-1.3,2.13-2.7,1.67-4.21
			c6.3,0,16.92-2.47,18.46-1.51C276.56,439.2,268.95,441.48,264.53,441.15z"/>
	</g>
	<path class="st0" d="M514.34,186.19C480.28,122.88,395.86,77.87,297.55,77.87c-98.4,0-182.87,45.08-216.87,108.47l-56.38,0.02
		l0.15,190.13c0,2.38,0.04,4.75,0.1,7.11h-0.07c-0.12,4.68,0.15,9.46,0.85,14.73c11.94,149.74,144.6,277.5,275.23,365.67
		c106.32-74.17,270.28-222,270.28-387.81l0.15-190.03L514.34,186.19z M297.56,84.5c93.24,0,173.46,42.12,207.02,101.69l-414.12,0.15
		C123.97,126.69,204.25,84.5,297.56,84.5z M35.32,395.71l3.73-10.29h7.42l-9.56,26.38C36.22,406.46,35.7,401.1,35.32,395.71z
		 M524.24,414.78h-7.42l10.64-29.37h7.42L524.24,414.78z M544.91,385.42h7.42l-10.65,29.37h-7.42L544.91,385.42z M506.8,414.78
		h-7.42l10.64-29.37h7.42L506.8,414.78z M489.36,414.78h-7.42l10.65-29.37H500L489.36,414.78z M471.91,414.78h-7.42l10.64-29.37
		h7.42L471.91,414.78z M454.47,414.78h-7.42l10.65-29.37h7.42L454.47,414.78z M437.03,414.78h-7.42l10.65-29.37h7.42L437.03,414.78z
		 M419.58,414.78h-7.42l10.64-29.37h7.42L419.58,414.78z M402.14,414.78h-7.42l10.65-29.37h7.42L402.14,414.78z M384.7,414.78h-7.42
		l10.65-29.37h7.42L384.7,414.78z M367.25,414.78h-7.42l10.64-29.37h7.42L367.25,414.78z M349.81,414.78h-7.42l10.64-29.37h7.42
		L349.81,414.78z M332.37,414.78h-7.42l10.64-29.37h7.42L332.37,414.78z M314.92,414.78h-7.42l10.64-29.37h7.42L314.92,414.78z
		 M297.48,414.78h-7.42l10.64-29.37h7.42L297.48,414.78z M280.04,414.78h-7.42l10.65-29.37h7.42L280.04,414.78z M262.59,414.78
		h-7.42l10.64-29.37h7.42L262.59,414.78z M245.15,414.78h-7.42l10.64-29.37h7.42L245.15,414.78z M227.71,414.78h-7.42l10.64-29.37
		h7.42L227.71,414.78z M210.26,414.78h-7.42l10.64-29.37h7.42L210.26,414.78z M192.82,414.78h-7.42l10.65-29.37h7.42L192.82,414.78z
		 M175.38,414.78h-7.42l10.65-29.37h7.42L175.38,414.78z M157.93,414.78h-7.42l10.65-29.37h7.42L157.93,414.78z M140.49,414.78
		h-7.42l10.65-29.37h7.42L140.49,414.78z M123.05,414.78h-7.42l10.64-29.37h7.42L123.05,414.78z M105.6,414.78h-7.42l10.65-29.37
		h7.42L105.6,414.78z M88.16,414.78h-7.42l10.64-29.37h7.42L88.16,414.78z M70.71,414.78H63.3l10.64-29.37h7.42L70.71,414.78z
		 M53.27,414.78h-7.42l10.64-29.37h7.42L53.27,414.78z M37.59,416.59h158.04v252.85C116.53,598.55,51.79,512.54,37.59,416.59z
		 M300.48,750.55c-34.98-23.62-70.11-50.19-102.85-79.33V416.59h197.35v258.33C362.25,704.92,329.19,730.53,300.48,750.55z
		 M396.98,673.09v-256.5h160.55C541.92,515.23,470.56,605.22,396.98,673.09z M557.82,414.78h-6.1l8.57-23.64
		C559.83,399.07,559,406.95,557.82,414.78z M560.69,377.2c0,2.14-0.03,4.28-0.09,6.41H34.75c-0.05-2.04-0.08-4.08-0.08-6.13
		l-0.14-183.04l42.14-0.02l441.7-0.16l42.47-0.02L560.69,377.2z"/>
	<g>
		<path class="st1" d="M354.02,434.3c-2.52-0.86-7.64,0.63-9.41,0c4.63-2.7,5.25-5.61,1.18-5.19v-1.19
			c-0.59-0.63-4.99,1.19-9.64,5.52c0-2.16,1.31-4.1-0.95-5.72c-2.85-1.07-5.84,2.26-5.48,6.58c-2.62-2.49-5.25-4.33-6.2-4
			c-2.39,1.4,0,3.68,0.13,5.61c0,0.33-1.44-3.02-4.29-5.07c-1.9-1.28-2.49-2.05-4.06-1.93c-2.98,1.19-0.95,7.21,3.34,8.93
			c-4.65,0.23-13.58,2.28-14.3,3.47c-0.36,0.86,1.08,1.07,4.29,2.05c-3.21,1.93-11.18,3.56-9.54,6.23c1.44,1.84,5.48,1.09,9.77-0.86
			c-2.62,5.49,7.87,3.35,10.49,2.28c0.82,2.47,7.25,2.05,7.25-0.44c5.01,1.72,8.36-0.65,9.54-2.05c10.72,0.53,11.77-3.23,5.24-5.49
			c6.53,0.53,11.06,1.19,11.06-2.7c-0.46-0.44-3.21-0.74-3.91-1.07C356.97,437.83,354.48,434.5,354.02,434.3z M347.74,429.88
			c1.21,1.19-4.04,4.51-4.27,4.63c-1.57,0.65-5.96,1.28-7.87,1.28c0.36-0.21,0.72-0.54,1.08-0.74
			C340.62,432.34,346.56,427.92,347.74,429.88z M345.38,428.04l-0.23,1.4c-4.42,1.63-5.25,3.35-10.36,6.14
			C335.12,434.3,341.9,428.57,345.38,428.04z M334.78,428.04c2.13,1.07,0.82,3.12,0.82,5.61c-0.12,0.09-1.11,1.5-1.29,1.59
			c-0.01,0-0.02,0.02-0.02,0.02c0,0,0.02-0.01,0.02-0.02c-0.1-0.15-3.19-1.34-4.32-0.73C329.77,434.39,330,426.85,334.78,428.04z
			 M323.57,430.62c1.18,0,3.93,2.05,5.37,3.88c-1.67,0-3.57,0.09-5.14,1.07C323.8,435.16,321.21,431.15,323.57,430.62z
			 M326.13,435.49c4.05-0.98,7.72-0.33,8.19,1.46c0.47,1.79-2.44,4.03-6.49,5.02c-4.05,0.98-7.72,0.33-8.19-1.46
			C319.17,438.72,322.08,436.48,326.13,435.49z M315.47,429.22c0.85-0.65,7.36,4.5,7.38,6.67c0,0,0,0.01,0,0.01c0,0,0-0.01,0-0.01
			c-0.26,0.07-3.65,1.53-3.31,1.64C316.19,437.95,311.8,430.2,315.47,429.22z M307.37,442.58c-3.08-1.07-4.52-0.86-0.23-2.14
			c3.34-1.09,8.23-2.28,11.9-2.28c-0.36,0.65-0.72,1.63-0.72,2.37C314.52,441.07,310.36,443.56,307.37,442.58z M299.05,449.05
			c-1.31-1.93,15.25-7.21,18.82-8.19c1.31,0,1.18,0.21,2.49,1.51C316.91,442.49,302.49,454.21,299.05,449.05z M319.18,450.12
			c-0.23,1.51-13.83,4.09-9.77-1.49c2.73-2.05,8.69-5.72,11.08-6.05c0.36,0,1.18,0.54,1.31,0.77
			C321.21,445.93,319.77,448.07,319.18,450.12z M319.77,450.68c-0.13-0.23-0.13-0.56,0-0.86l2.49-6.58c0.59,0,0.72,0,0.95,0.44
			c0.26,2.58,1.31,4.51,2.75,6.56C327.02,451.96,320.49,453.35,319.77,450.68z M326.91,450.35c-1.18-0.44-4.88-7.33-2.75-7.12
			c1.08,0.12,2.75-0.21,4.06-0.42c1.08,0.3,7.38,3.77,7.38,5.91C333.34,450.68,329.18,451.42,326.91,450.35z M344.42,445.39
			c1.41,0.95-1.8,3.77-8.46,2.47c-2.75-2.91-4.29-3.33-7.15-5.17l4.16-2.16C336.92,441.72,341.9,443.56,344.42,445.39z
			 M344.53,438.93c1.8,0.65,5.73,1.19,7.28,1.61c1.08,5.82-18.95,0.12-18.46-0.21c1.54-1.3,2.13-2.7,1.67-4.21
			c6.3,0,16.92-2.47,18.46-1.51C356.56,436.97,348.95,439.25,344.53,438.93z"/>
	</g>
	<g>
		<path class="st1" d="M304.17,464.1c-2.52-0.86-7.64,0.63-9.41,0c4.63-2.7,5.25-5.61,1.18-5.19v-1.19
			c-0.59-0.63-4.99,1.19-9.64,5.52c0-2.16,1.31-4.1-0.95-5.72c-2.85-1.07-5.84,2.26-5.48,6.58c-2.62-2.49-5.25-4.33-6.2-4
			c-2.39,1.4,0,3.68,0.13,5.61c0,0.33-1.44-3.02-4.29-5.07c-1.9-1.28-2.49-2.05-4.06-1.93c-2.98,1.19-0.95,7.21,3.34,8.93
			c-4.65,0.23-13.58,2.28-14.3,3.47c-0.36,0.86,1.08,1.07,4.29,2.05c-3.21,1.93-11.18,3.56-9.54,6.23c1.44,1.84,5.48,1.09,9.77-0.86
			c-2.62,5.49,7.87,3.35,10.49,2.28c0.82,2.47,7.25,2.05,7.25-0.44c5.01,1.72,8.36-0.65,9.54-2.05c10.72,0.53,11.77-3.23,5.24-5.49
			c6.53,0.53,11.06,1.19,11.06-2.7c-0.46-0.44-3.21-0.74-3.91-1.07C307.13,467.64,304.64,464.31,304.17,464.1z M297.9,459.68
			c1.21,1.19-4.04,4.51-4.27,4.63c-1.57,0.65-5.96,1.28-7.87,1.28c0.36-0.21,0.72-0.54,1.08-0.74
			C290.78,462.15,296.72,457.73,297.9,459.68z M295.53,457.84l-0.23,1.4c-4.42,1.63-5.25,3.35-10.36,6.14
			C285.28,464.1,292.06,458.38,295.53,457.84z M284.94,457.84c2.13,1.07,0.82,3.12,0.82,5.61c-0.12,0.09-1.11,1.5-1.29,1.59
			c-0.01,0-0.02,0.02-0.02,0.02c0,0,0.02-0.01,0.02-0.02c-0.1-0.15-3.19-1.34-4.32-0.73C279.93,464.19,280.16,456.66,284.94,457.84z
			 M273.73,460.43c1.18,0,3.93,2.05,5.37,3.88c-1.67,0-3.57,0.09-5.14,1.07C273.96,464.96,271.37,460.96,273.73,460.43z
			 M276.29,465.3c4.05-0.98,7.72-0.33,8.19,1.46c0.47,1.79-2.44,4.03-6.49,5.02c-4.05,0.98-7.72,0.33-8.19-1.46
			C269.33,468.53,272.24,466.28,276.29,465.3z M265.63,459.03c0.85-0.65,7.36,4.5,7.38,6.67c0,0,0,0.01,0,0.01c0,0,0-0.01,0-0.01
			c-0.26,0.07-3.65,1.53-3.31,1.64C266.35,467.76,261.96,460.01,265.63,459.03z M257.53,472.38c-3.08-1.07-4.52-0.86-0.23-2.14
			c3.34-1.09,8.23-2.28,11.9-2.28c-0.36,0.65-0.72,1.63-0.72,2.37C264.68,470.87,260.52,473.36,257.53,472.38z M249.2,478.85
			c-1.31-1.93,15.25-7.21,18.82-8.19c1.31,0,1.18,0.21,2.49,1.51C267.07,472.29,252.65,484.02,249.2,478.85z M269.34,479.92
			c-0.23,1.51-13.83,4.09-9.77-1.49c2.73-2.05,8.69-5.72,11.08-6.05c0.36,0,1.18,0.54,1.31,0.77
			C271.37,475.74,269.93,477.88,269.34,479.92z M269.93,480.48c-0.13-0.23-0.13-0.56,0-0.86l2.49-6.58c0.59,0,0.72,0,0.95,0.44
			c0.26,2.58,1.31,4.51,2.75,6.56C277.18,481.76,270.65,483.16,269.93,480.48z M277.07,480.16c-1.18-0.44-4.88-7.33-2.75-7.12
			c1.08,0.12,2.75-0.21,4.06-0.42c1.08,0.3,7.38,3.77,7.38,5.91C283.5,480.48,279.34,481.23,277.07,480.16z M294.58,475.2
			c1.41,0.95-1.8,3.77-8.46,2.47c-2.75-2.91-4.29-3.33-7.15-5.17l4.16-2.16C287.08,471.52,292.06,473.36,294.58,475.2z
			 M294.69,468.73c1.8,0.65,5.73,1.19,7.28,1.61c1.08,5.82-18.95,0.12-18.46-0.21c1.54-1.3,2.13-2.7,1.67-4.21
			c6.3,0,16.92-2.47,18.46-1.51C306.72,466.78,299.11,469.06,294.69,468.73z"/>
	</g>
	<g>
		<path class="st1" d="M375.6,463.07c-2.52-0.86-7.64,0.63-9.41,0c4.63-2.7,5.25-5.61,1.18-5.19v-1.19
			c-0.59-0.63-4.99,1.19-9.64,5.52c0-2.16,1.31-4.1-0.95-5.72c-2.85-1.07-5.84,2.26-5.48,6.58c-2.62-2.49-5.25-4.33-6.2-4
			c-2.39,1.4,0,3.68,0.13,5.61c0,0.33-1.44-3.02-4.29-5.07c-1.9-1.28-2.49-2.05-4.06-1.93c-2.98,1.19-0.95,7.21,3.34,8.93
			c-4.65,0.23-13.58,2.28-14.3,3.47c-0.36,0.86,1.08,1.07,4.29,2.05c-3.21,1.93-11.18,3.56-9.54,6.23c1.44,1.84,5.48,1.09,9.77-0.86
			c-2.62,5.49,7.87,3.35,10.49,2.28c0.82,2.47,7.25,2.05,7.25-0.44c5.01,1.72,8.36-0.65,9.54-2.05c10.72,0.53,11.77-3.23,5.24-5.49
			c6.53,0.53,11.06,1.19,11.06-2.7c-0.46-0.44-3.21-0.74-3.91-1.07C378.56,466.61,376.06,463.28,375.6,463.07z M369.33,458.65
			c1.21,1.19-4.04,4.51-4.27,4.63c-1.57,0.65-5.96,1.28-7.87,1.28c0.36-0.21,0.72-0.54,1.08-0.74
			C362.2,461.12,368.14,456.7,369.33,458.65z M366.96,456.81l-0.23,1.4c-4.42,1.63-5.25,3.35-10.36,6.14
			C356.7,463.07,363.49,457.35,366.96,456.81z M356.37,456.81c2.13,1.07,0.82,3.12,0.82,5.61c-0.12,0.09-1.11,1.5-1.29,1.59
			c-0.01,0-0.02,0.02-0.02,0.02c0,0,0.02-0.01,0.02-0.02c-0.1-0.15-3.19-1.34-4.32-0.73C351.35,463.16,351.59,455.63,356.37,456.81z
			 M345.16,459.4c1.18,0,3.93,2.05,5.37,3.88c-1.67,0-3.57,0.09-5.14,1.07C345.39,463.93,342.79,459.93,345.16,459.4z
			 M347.72,464.27c4.05-0.98,7.72-0.33,8.19,1.46c0.47,1.79-2.44,4.03-6.49,5.02c-4.05,0.98-7.72,0.33-8.19-1.46
			C340.75,467.5,343.66,465.25,347.72,464.27z M337.06,458c0.85-0.65,7.36,4.5,7.38,6.67c0,0,0,0.01,0,0.01c0,0,0-0.01,0-0.01
			c-0.26,0.07-3.65,1.53-3.31,1.64C337.78,466.73,333.38,458.98,337.06,458z M328.96,471.35c-3.08-1.07-4.52-0.86-0.23-2.14
			c3.34-1.09,8.23-2.28,11.9-2.28c-0.36,0.65-0.72,1.63-0.72,2.37C336.11,469.84,331.94,472.33,328.96,471.35z M320.63,477.82
			c-1.31-1.93,15.25-7.21,18.82-8.19c1.31,0,1.18,0.21,2.49,1.51C338.5,471.26,324.08,482.99,320.63,477.82z M340.76,478.89
			c-0.23,1.51-13.83,4.09-9.77-1.49c2.73-2.05,8.69-5.72,11.08-6.05c0.36,0,1.18,0.54,1.31,0.77
			C342.79,474.71,341.35,476.85,340.76,478.89z M341.35,479.45c-0.13-0.23-0.13-0.56,0-0.86l2.49-6.58c0.59,0,0.72,0,0.95,0.44
			c0.26,2.58,1.31,4.51,2.75,6.56C348.6,480.73,342.07,482.13,341.35,479.45z M348.5,479.13c-1.18-0.44-4.88-7.33-2.75-7.12
			c1.08,0.12,2.75-0.21,4.06-0.42c1.08,0.3,7.38,3.77,7.38,5.91C354.93,479.45,350.76,480.2,348.5,479.13z M366.01,474.17
			c1.41,0.95-1.8,3.77-8.46,2.47c-2.75-2.91-4.29-3.33-7.15-5.17l4.16-2.16C358.5,470.49,363.49,472.33,366.01,474.17z
			 M366.11,467.7c1.8,0.65,5.73,1.19,7.28,1.61c1.08,5.82-18.95,0.12-18.46-0.21c1.54-1.3,2.13-2.7,1.67-4.21
			c6.3,0,16.92-2.47,18.46-1.51C378.14,465.75,370.53,468.03,366.11,467.7z"/>
	</g>
	<g>
		<path class="st1" d="M272.46,497.5c-2.52-0.86-7.64,0.63-9.41,0c4.63-2.7,5.25-5.61,1.18-5.19v-1.19
			c-0.59-0.63-4.99,1.19-9.64,5.52c0-2.16,1.31-4.1-0.95-5.72c-2.85-1.07-5.84,2.26-5.48,6.58c-2.62-2.49-5.25-4.33-6.2-4
			c-2.39,1.4,0,3.68,0.13,5.61c0,0.33-1.44-3.02-4.29-5.07c-1.9-1.28-2.49-2.05-4.06-1.93c-2.98,1.19-0.95,7.21,3.34,8.93
			c-4.65,0.23-13.58,2.28-14.3,3.47c-0.36,0.86,1.08,1.07,4.29,2.05c-3.21,1.93-11.18,3.56-9.54,6.23c1.44,1.84,5.48,1.09,9.77-0.86
			c-2.62,5.49,7.87,3.35,10.49,2.28c0.82,2.47,7.25,2.05,7.25-0.44c5.01,1.72,8.36-0.65,9.54-2.05c10.72,0.53,11.77-3.23,5.24-5.49
			c6.53,0.53,11.06,1.19,11.06-2.7c-0.46-0.44-3.21-0.74-3.91-1.07C275.42,501.04,272.93,497.71,272.46,497.5z M266.19,493.08
			c1.21,1.19-4.04,4.51-4.27,4.63c-1.57,0.65-5.96,1.28-7.87,1.28c0.36-0.21,0.72-0.54,1.08-0.74
			C259.07,495.55,265.01,491.13,266.19,493.08z M263.82,491.25l-0.23,1.4c-4.42,1.63-5.25,3.35-10.36,6.14
			C253.57,497.5,260.35,491.78,263.82,491.25z M253.23,491.25c2.13,1.07,0.82,3.12,0.82,5.61c-0.12,0.09-1.11,1.5-1.29,1.59
			c-0.01,0-0.02,0.02-0.02,0.02c0,0,0.02-0.01,0.02-0.02c-0.1-0.15-3.19-1.34-4.32-0.73C248.22,497.6,248.45,490.06,253.23,491.25z
			 M242.02,493.83c1.18,0,3.93,2.05,5.37,3.88c-1.67,0-3.57,0.09-5.14,1.07C242.25,498.36,239.66,494.36,242.02,493.83z
			 M244.58,498.7c4.05-0.98,7.72-0.33,8.19,1.46c0.47,1.79-2.44,4.03-6.49,5.02c-4.05,0.98-7.72,0.33-8.19-1.46
			C237.62,501.93,240.53,499.68,244.58,498.7z M233.92,492.43c0.85-0.65,7.36,4.5,7.38,6.67c0,0,0,0.01,0,0.01c0,0,0-0.01,0-0.01
			c-0.26,0.07-3.65,1.53-3.31,1.64C234.64,501.16,230.25,493.41,233.92,492.43z M225.82,505.79c-3.08-1.07-4.52-0.86-0.23-2.14
			c3.34-1.09,8.23-2.28,11.9-2.28c-0.36,0.65-0.72,1.63-0.72,2.37C232.97,504.27,228.81,506.76,225.82,505.79z M217.49,512.25
			c-1.31-1.93,15.25-7.21,18.82-8.19c1.31,0,1.18,0.21,2.49,1.51C235.36,505.69,220.94,517.42,217.49,512.25z M237.62,513.33
			c-0.23,1.51-13.83,4.09-9.77-1.49c2.73-2.05,8.69-5.72,11.08-6.05c0.36,0,1.18,0.54,1.31,0.77
			C239.66,509.14,238.22,511.28,237.62,513.33z M238.22,513.88c-0.13-0.23-0.13-0.56,0-0.86l2.49-6.58c0.59,0,0.72,0,0.95,0.44
			c0.26,2.58,1.31,4.51,2.75,6.56C245.47,515.16,238.94,516.56,238.22,513.88z M245.36,513.56c-1.18-0.44-4.88-7.33-2.75-7.12
			c1.08,0.12,2.75-0.21,4.06-0.42c1.08,0.3,7.38,3.77,7.38,5.91C251.79,513.88,247.63,514.63,245.36,513.56z M262.87,508.6
			c1.41,0.95-1.8,3.77-8.46,2.47c-2.75-2.91-4.29-3.33-7.15-5.17l4.16-2.16C255.36,504.93,260.35,506.76,262.87,508.6z
			 M262.97,502.13c1.8,0.65,5.73,1.19,7.28,1.61c1.08,5.82-18.95,0.12-18.46-0.21c1.54-1.3,2.13-2.7,1.67-4.21
			c6.3,0,16.92-2.47,18.46-1.51C275.01,500.18,267.4,502.46,262.97,502.13z"/>
	</g>
	<g>
		<path class="st1" d="M352.46,495.28c-2.52-0.86-7.64,0.63-9.41,0c4.63-2.7,5.25-5.61,1.18-5.19v-1.19
			c-0.59-0.63-4.99,1.19-9.64,5.52c0-2.16,1.31-4.1-0.95-5.72c-2.85-1.07-5.84,2.26-5.48,6.58c-2.62-2.49-5.25-4.33-6.2-4
			c-2.39,1.4,0,3.68,0.13,5.61c0,0.33-1.44-3.02-4.29-5.07c-1.9-1.28-2.49-2.05-4.06-1.93c-2.98,1.19-0.95,7.21,3.34,8.93
			c-4.65,0.23-13.58,2.28-14.3,3.47c-0.36,0.86,1.08,1.07,4.29,2.05c-3.21,1.93-11.18,3.56-9.54,6.23c1.44,1.84,5.48,1.09,9.77-0.86
			c-2.62,5.49,7.87,3.35,10.49,2.28c0.82,2.47,7.25,2.05,7.25-0.44c5.01,1.72,8.36-0.65,9.54-2.05c10.72,0.53,11.77-3.23,5.24-5.49
			c6.53,0.53,11.06,1.19,11.06-2.7c-0.46-0.44-3.21-0.74-3.91-1.07C355.42,498.81,352.92,495.49,352.46,495.28z M346.19,490.86
			c1.21,1.19-4.04,4.51-4.27,4.63c-1.57,0.65-5.96,1.28-7.87,1.28c0.36-0.21,0.72-0.54,1.08-0.74
			C339.07,493.32,345,488.9,346.19,490.86z M343.82,489.02l-0.23,1.4c-4.42,1.63-5.25,3.35-10.36,6.14
			C333.56,495.28,340.35,489.55,343.82,489.02z M333.23,489.02c2.13,1.07,0.82,3.12,0.82,5.61c-0.12,0.09-1.11,1.5-1.29,1.59
			c-0.01,0-0.02,0.02-0.02,0.02c0,0,0.02-0.01,0.02-0.02c-0.1-0.15-3.19-1.34-4.32-0.73C328.22,495.37,328.45,487.83,333.23,489.02z
			 M322.02,491.6c1.18,0,3.93,2.05,5.37,3.88c-1.67,0-3.57,0.09-5.14,1.07C322.25,496.14,319.65,492.14,322.02,491.6z
			 M324.58,496.47c4.05-0.98,7.72-0.33,8.19,1.46c0.47,1.79-2.44,4.03-6.49,5.02c-4.05,0.98-7.72,0.33-8.19-1.46
			C317.62,499.7,320.52,497.46,324.58,496.47z M313.92,490.2c0.85-0.65,7.36,4.5,7.38,6.67c0,0,0,0.01,0,0.01c0,0,0-0.01,0-0.01
			c-0.26,0.07-3.65,1.53-3.31,1.64C314.64,498.93,310.24,491.18,313.92,490.2z M305.82,503.56c-3.08-1.07-4.52-0.86-0.23-2.14
			c3.34-1.09,8.23-2.28,11.9-2.28c-0.36,0.65-0.72,1.63-0.72,2.37C312.97,502.05,308.8,504.54,305.82,503.56z M297.49,510.03
			c-1.31-1.93,15.25-7.21,18.82-8.19c1.31,0,1.18,0.21,2.49,1.51C315.36,503.47,300.94,515.19,297.49,510.03z M317.62,511.1
			c-0.23,1.51-13.83,4.09-9.77-1.49c2.73-2.05,8.69-5.72,11.08-6.05c0.36,0,1.18,0.54,1.31,0.77
			C319.65,506.91,318.21,509.05,317.62,511.1z M318.21,511.66c-0.13-0.23-0.13-0.56,0-0.86l2.49-6.58c0.59,0,0.72,0,0.95,0.44
			c0.26,2.58,1.31,4.51,2.75,6.56C325.46,512.94,318.93,514.33,318.21,511.66z M325.36,511.33c-1.18-0.44-4.88-7.33-2.75-7.12
			c1.08,0.12,2.75-0.21,4.06-0.42c1.08,0.3,7.38,3.77,7.38,5.91C331.79,511.66,327.62,512.4,325.36,511.33z M342.87,506.37
			c1.41,0.95-1.8,3.77-8.46,2.47c-2.75-2.91-4.29-3.33-7.15-5.17l4.16-2.16C335.36,502.7,340.35,504.54,342.87,506.37z
			 M342.97,499.91c1.8,0.65,5.73,1.19,7.28,1.61c1.08,5.82-18.95,0.12-18.46-0.21c1.54-1.3,2.13-2.7,1.67-4.21
			c6.3,0,16.92-2.47,18.46-1.51C355.01,497.95,347.4,500.23,342.97,499.91z"/>
	</g>
	<g>
		<path class="st1" d="M299.13,526.58c-2.52-0.86-7.64,0.63-9.41,0c4.63-2.7,5.25-5.61,1.18-5.19v-1.19
			c-0.59-0.63-4.99,1.19-9.64,5.52c0-2.16,1.31-4.1-0.95-5.72c-2.85-1.07-5.84,2.26-5.48,6.58c-2.62-2.49-5.25-4.33-6.2-4
			c-2.39,1.4,0,3.68,0.13,5.61c0,0.33-1.44-3.02-4.29-5.07c-1.9-1.28-2.49-2.05-4.06-1.93c-2.98,1.19-0.95,7.21,3.34,8.93
			c-4.65,0.23-13.58,2.28-14.3,3.47c-0.36,0.86,1.08,1.07,4.29,2.05c-3.21,1.93-11.18,3.56-9.54,6.23c1.44,1.84,5.48,1.09,9.77-0.86
			c-2.62,5.49,7.87,3.35,10.49,2.28c0.82,2.47,7.25,2.05,7.25-0.44c5.01,1.72,8.36-0.65,9.54-2.05c10.72,0.53,11.77-3.23,5.24-5.49
			c6.53,0.53,11.06,1.19,11.06-2.7c-0.46-0.44-3.21-0.74-3.91-1.07C302.08,530.12,299.59,526.79,299.13,526.58z M292.85,522.16
			c1.21,1.19-4.04,4.51-4.27,4.63c-1.57,0.65-5.96,1.28-7.87,1.28c0.36-0.21,0.72-0.54,1.08-0.74
			C285.73,524.63,291.67,520.21,292.85,522.16z M290.49,520.32l-0.23,1.4c-4.42,1.63-5.25,3.35-10.36,6.14
			C280.23,526.58,287.02,520.86,290.49,520.32z M279.89,520.32c2.13,1.07,0.82,3.12,0.82,5.61c-0.12,0.09-1.11,1.5-1.29,1.59
			c-0.01,0-0.02,0.02-0.02,0.02c0,0,0.02-0.01,0.02-0.02c-0.1-0.15-3.19-1.34-4.32-0.73C274.88,526.67,275.11,519.13,279.89,520.32z
			 M268.68,522.91c1.18,0,3.93,2.05,5.37,3.88c-1.67,0-3.57,0.09-5.14,1.07C268.91,527.44,266.32,523.44,268.68,522.91z
			 M271.24,527.78c4.05-0.98,7.72-0.33,8.19,1.46c0.47,1.79-2.44,4.03-6.49,5.02c-4.05,0.98-7.72,0.33-8.19-1.46
			C264.28,531.01,267.19,528.76,271.24,527.78z M260.58,521.51c0.85-0.65,7.36,4.5,7.38,6.67c0,0,0,0.01,0,0.01c0,0,0-0.01,0-0.01
			c-0.26,0.07-3.65,1.53-3.31,1.64C261.3,530.23,256.91,522.49,260.58,521.51z M252.49,534.86c-3.08-1.07-4.52-0.86-0.23-2.14
			c3.34-1.09,8.23-2.28,11.9-2.28c-0.36,0.65-0.72,1.63-0.72,2.37C259.63,533.35,255.47,535.84,252.49,534.86z M244.16,541.33
			c-1.31-1.93,15.25-7.21,18.82-8.19c1.31,0,1.18,0.21,2.49,1.51C262.02,534.77,247.6,546.5,244.16,541.33z M264.29,542.4
			c-0.23,1.51-13.83,4.09-9.77-1.49c2.73-2.05,8.69-5.72,11.08-6.05c0.36,0,1.18,0.54,1.31,0.77
			C266.32,538.21,264.88,540.35,264.29,542.4z M264.88,542.96c-0.13-0.23-0.13-0.56,0-0.86l2.49-6.58c0.59,0,0.72,0,0.95,0.44
			c0.26,2.58,1.31,4.51,2.75,6.56C272.13,544.24,265.6,545.64,264.88,542.96z M272.03,542.64c-1.18-0.44-4.88-7.33-2.75-7.12
			c1.08,0.12,2.75-0.21,4.06-0.42c1.08,0.3,7.38,3.77,7.38,5.91C278.45,542.96,274.29,543.71,272.03,542.64z M289.54,537.68
			c1.41,0.95-1.8,3.77-8.46,2.47c-2.75-2.91-4.29-3.33-7.15-5.17l4.16-2.16C282.03,534,287.02,535.84,289.54,537.68z M289.64,531.21
			c1.8,0.65,5.73,1.19,7.28,1.61c1.08,5.82-18.95,0.12-18.46-0.21c1.54-1.3,2.13-2.7,1.67-4.21c6.3,0,16.92-2.47,18.46-1.51
			C301.67,529.26,294.06,531.54,289.64,531.21z"/>
	</g>
	<g>
		<path class="st1" d="M374.05,525.55c-2.52-0.86-7.64,0.63-9.41,0c4.63-2.7,5.25-5.61,1.18-5.19v-1.19
			c-0.59-0.63-4.99,1.19-9.64,5.52c0-2.16,1.31-4.1-0.95-5.72c-2.85-1.07-5.84,2.26-5.48,6.58c-2.62-2.49-5.25-4.33-6.2-4
			c-2.39,1.4,0,3.68,0.13,5.61c0,0.33-1.44-3.02-4.29-5.07c-1.9-1.28-2.49-2.05-4.06-1.93c-2.98,1.19-0.95,7.21,3.34,8.93
			c-4.65,0.23-13.58,2.28-14.3,3.47c-0.36,0.86,1.08,1.07,4.29,2.05c-3.21,1.93-11.18,3.56-9.54,6.23c1.44,1.84,5.48,1.09,9.77-0.86
			c-2.62,5.49,7.87,3.35,10.49,2.28c0.82,2.47,7.25,2.05,7.25-0.44c5.01,1.72,8.36-0.65,9.54-2.05c10.72,0.53,11.77-3.23,5.24-5.49
			c6.53,0.53,11.06,1.19,11.06-2.7c-0.46-0.44-3.21-0.74-3.91-1.07C377,529.09,374.51,525.76,374.05,525.55z M367.77,521.13
			c1.21,1.19-4.04,4.51-4.27,4.63c-1.57,0.65-5.96,1.28-7.87,1.28c0.36-0.21,0.72-0.54,1.08-0.74
			C360.65,523.6,366.59,519.18,367.77,521.13z M365.41,519.29l-0.23,1.4c-4.42,1.63-5.25,3.35-10.36,6.14
			C355.15,525.55,361.94,519.83,365.41,519.29z M354.81,519.29c2.13,1.07,0.82,3.12,0.82,5.61c-0.12,0.09-1.11,1.5-1.29,1.59
			c-0.01,0-0.02,0.02-0.02,0.02c0,0,0.02-0.01,0.02-0.02c-0.1-0.15-3.19-1.34-4.32-0.73C349.8,525.64,350.03,518.1,354.81,519.29z
			 M343.6,521.88c1.18,0,3.93,2.05,5.37,3.88c-1.67,0-3.57,0.09-5.14,1.07C343.83,526.41,341.24,522.41,343.6,521.88z
			 M346.16,526.75c4.05-0.98,7.72-0.33,8.19,1.46c0.47,1.79-2.44,4.03-6.49,5.02c-4.05,0.98-7.72,0.33-8.19-1.46
			C339.2,529.98,342.11,527.73,346.16,526.75z M335.5,520.48c0.85-0.65,7.36,4.5,7.38,6.67c0,0,0,0.01,0,0.01c0,0,0-0.01,0-0.01
			c-0.26,0.07-3.65,1.53-3.31,1.64C336.23,529.2,331.83,521.46,335.5,520.48z M327.41,533.83c-3.08-1.07-4.52-0.86-0.23-2.14
			c3.34-1.09,8.23-2.28,11.9-2.28c-0.36,0.65-0.72,1.63-0.72,2.37C334.55,532.32,330.39,534.81,327.41,533.83z M319.08,540.3
			c-1.31-1.93,15.25-7.21,18.82-8.19c1.31,0,1.18,0.21,2.49,1.51C336.94,533.74,322.52,545.47,319.08,540.3z M339.21,541.37
			c-0.23,1.51-13.83,4.09-9.77-1.49c2.73-2.05,8.69-5.72,11.08-6.05c0.36,0,1.18,0.54,1.31,0.77
			C341.24,537.18,339.8,539.32,339.21,541.37z M339.8,541.93c-0.13-0.23-0.13-0.56,0-0.86l2.49-6.58c0.59,0,0.72,0,0.95,0.44
			c0.26,2.58,1.31,4.51,2.75,6.56C347.05,543.21,340.52,544.61,339.8,541.93z M346.95,541.61c-1.18-0.44-4.88-7.33-2.75-7.12
			c1.08,0.12,2.75-0.21,4.06-0.42c1.08,0.3,7.38,3.77,7.38,5.91C353.37,541.93,349.21,542.68,346.95,541.61z M364.46,536.65
			c1.41,0.95-1.8,3.77-8.46,2.47c-2.75-2.91-4.29-3.33-7.15-5.17l4.16-2.16C356.95,532.97,361.94,534.81,364.46,536.65z
			 M364.56,530.18c1.8,0.65,5.73,1.19,7.28,1.61c1.08,5.82-18.95,0.12-18.46-0.21c1.54-1.3,2.13-2.7,1.67-4.21
			c6.3,0,16.92-2.47,18.46-1.51C376.59,528.23,368.98,530.51,364.56,530.18z"/>
	</g>
	<g>
		<path class="st1" d="M266.92,562.48c-2.52-0.86-7.64,0.63-9.41,0c4.63-2.7,5.25-5.61,1.18-5.19v-1.19
			c-0.59-0.63-4.99,1.19-9.64,5.52c0-2.16,1.31-4.1-0.95-5.72c-2.85-1.07-5.84,2.26-5.48,6.58c-2.62-2.49-5.25-4.33-6.2-4
			c-2.39,1.4,0,3.68,0.13,5.61c0,0.33-1.44-3.02-4.29-5.07c-1.9-1.28-2.49-2.05-4.06-1.93c-2.98,1.19-0.95,7.21,3.34,8.93
			c-4.65,0.23-13.58,2.28-14.3,3.47c-0.36,0.86,1.08,1.07,4.29,2.05c-3.21,1.93-11.18,3.56-9.54,6.23c1.44,1.84,5.48,1.09,9.77-0.86
			c-2.62,5.49,7.87,3.35,10.49,2.28c0.82,2.47,7.25,2.05,7.25-0.44c5.01,1.72,8.36-0.65,9.54-2.05c10.72,0.53,11.77-3.23,5.24-5.49
			c6.53,0.53,11.06,1.19,11.06-2.7c-0.46-0.44-3.21-0.74-3.91-1.07C269.87,566.01,267.38,562.69,266.92,562.48z M260.64,558.06
			c1.21,1.19-4.04,4.51-4.27,4.63c-1.57,0.65-5.96,1.28-7.87,1.28c0.36-0.21,0.72-0.54,1.08-0.74
			C253.52,560.52,259.46,556.1,260.64,558.06z M258.28,556.22l-0.23,1.4c-4.42,1.63-5.25,3.35-10.36,6.14
			C248.02,562.48,254.81,556.76,258.28,556.22z M247.68,556.22c2.13,1.07,0.82,3.12,0.82,5.61c-0.12,0.09-1.11,1.5-1.29,1.59
			c-0.01,0-0.02,0.02-0.02,0.02c0,0,0.02-0.01,0.02-0.02c-0.1-0.15-3.19-1.34-4.32-0.73C242.67,562.57,242.9,555.03,247.68,556.22z
			 M236.47,558.8c1.18,0,3.93,2.05,5.37,3.88c-1.67,0-3.57,0.09-5.14,1.07C236.7,563.34,234.11,559.34,236.47,558.8z M239.03,563.67
			c4.05-0.98,7.72-0.33,8.19,1.46c0.47,1.79-2.44,4.03-6.49,5.02c-4.05,0.98-7.72,0.33-8.19-1.46
			C232.07,566.9,234.98,564.66,239.03,563.67z M228.37,557.41c0.85-0.65,7.36,4.5,7.38,6.67c0,0,0,0.01,0,0.01c0,0,0-0.01,0-0.01
			c-0.26,0.07-3.65,1.53-3.31,1.64C229.1,566.13,224.7,558.38,228.37,557.41z M220.28,570.76c-3.08-1.07-4.52-0.86-0.23-2.14
			c3.34-1.09,8.23-2.28,11.9-2.28c-0.36,0.65-0.72,1.63-0.72,2.37C227.42,569.25,223.26,571.74,220.28,570.76z M211.95,577.23
			c-1.31-1.93,15.25-7.21,18.82-8.19c1.31,0,1.18,0.21,2.49,1.51C229.81,570.67,215.39,582.39,211.95,577.23z M232.08,578.3
			c-0.23,1.51-13.83,4.09-9.77-1.49c2.73-2.05,8.69-5.72,11.08-6.05c0.36,0,1.18,0.54,1.31,0.77
			C234.11,574.11,232.67,576.25,232.08,578.3z M232.67,578.86c-0.13-0.23-0.13-0.56,0-0.86l2.49-6.58c0.59,0,0.72,0,0.95,0.44
			c0.26,2.58,1.31,4.51,2.75,6.56C239.92,580.14,233.39,581.53,232.67,578.86z M239.82,578.53c-1.18-0.44-4.88-7.33-2.75-7.12
			c1.08,0.12,2.75-0.21,4.06-0.42c1.08,0.3,7.38,3.77,7.38,5.91C246.24,578.86,242.08,579.6,239.82,578.53z M257.33,573.58
			c1.41,0.95-1.8,3.77-8.46,2.47c-2.75-2.91-4.29-3.33-7.15-5.17l4.16-2.16C249.82,569.9,254.81,571.74,257.33,573.58z
			 M257.43,567.11c1.8,0.65,5.73,1.19,7.28,1.61c1.08,5.82-18.95,0.12-18.46-0.21c1.54-1.3,2.13-2.7,1.67-4.21
			c6.3,0,16.92-2.47,18.46-1.51C269.46,565.15,261.85,567.43,257.43,567.11z"/>
	</g>
	<g>
		<path class="st1" d="M346.92,560.25c-2.52-0.86-7.64,0.63-9.41,0c4.63-2.7,5.25-5.61,1.18-5.19v-1.19
			c-0.59-0.63-4.99,1.19-9.64,5.52c0-2.16,1.31-4.1-0.95-5.72c-2.85-1.07-5.84,2.26-5.48,6.58c-2.62-2.49-5.25-4.33-6.2-4
			c-2.39,1.4,0,3.68,0.13,5.61c0,0.33-1.44-3.02-4.29-5.07c-1.9-1.28-2.49-2.05-4.06-1.93c-2.98,1.19-0.95,7.21,3.34,8.93
			c-4.65,0.23-13.58,2.28-14.3,3.47c-0.36,0.86,1.08,1.07,4.29,2.05c-3.21,1.93-11.18,3.56-9.54,6.23c1.44,1.84,5.48,1.09,9.77-0.86
			c-2.62,5.49,7.87,3.35,10.49,2.28c0.82,2.47,7.25,2.05,7.25-0.44c5.01,1.72,8.36-0.65,9.54-2.05c10.72,0.53,11.77-3.23,5.24-5.49
			c6.53,0.53,11.06,1.19,11.06-2.7c-0.46-0.44-3.21-0.74-3.91-1.07C349.87,563.79,347.38,560.46,346.92,560.25z M340.64,555.83
			c1.21,1.19-4.04,4.51-4.27,4.63c-1.57,0.65-5.96,1.28-7.87,1.28c0.36-0.21,0.72-0.54,1.08-0.74
			C333.52,558.3,339.46,553.88,340.64,555.83z M338.28,553.99l-0.23,1.4c-4.42,1.63-5.25,3.35-10.36,6.14
			C328.02,560.25,334.8,554.53,338.28,553.99z M327.68,553.99c2.13,1.07,0.82,3.12,0.82,5.61c-0.12,0.09-1.11,1.5-1.29,1.59
			c-0.01,0-0.02,0.02-0.02,0.02c0,0,0.02-0.01,0.02-0.02c-0.1-0.15-3.19-1.34-4.32-0.73C322.67,560.34,322.9,552.81,327.68,553.99z
			 M316.47,556.58c1.18,0,3.93,2.05,5.37,3.88c-1.67,0-3.57,0.09-5.14,1.07C316.7,561.11,314.11,557.11,316.47,556.58z
			 M319.03,561.45c4.05-0.98,7.72-0.33,8.19,1.46c0.47,1.79-2.44,4.03-6.49,5.02c-4.05,0.98-7.72,0.33-8.19-1.46
			C312.07,564.68,314.98,562.43,319.03,561.45z M308.37,555.18c0.85-0.65,7.36,4.5,7.38,6.67c0,0,0,0.01,0,0.01c0,0,0-0.01,0-0.01
			c-0.26,0.07-3.65,1.53-3.31,1.64C309.09,563.91,304.7,556.16,308.37,555.18z M300.27,568.53c-3.08-1.07-4.52-0.86-0.23-2.14
			c3.34-1.09,8.23-2.28,11.9-2.28c-0.36,0.65-0.72,1.63-0.72,2.37C307.42,567.02,303.26,569.51,300.27,568.53z M291.95,575
			c-1.31-1.93,15.25-7.21,18.82-8.19c1.31,0,1.18,0.21,2.49,1.51C309.81,568.44,295.39,580.17,291.95,575z M312.08,576.07
			c-0.23,1.51-13.83,4.09-9.77-1.49c2.73-2.05,8.69-5.72,11.08-6.05c0.36,0,1.18,0.54,1.31,0.77
			C314.11,571.89,312.67,574.03,312.08,576.07z M312.67,576.63c-0.13-0.23-0.13-0.56,0-0.86l2.49-6.58c0.59,0,0.72,0,0.95,0.44
			c0.26,2.58,1.31,4.51,2.75,6.56C319.92,577.91,313.39,579.31,312.67,576.63z M319.81,576.31c-1.18-0.44-4.88-7.33-2.75-7.12
			c1.08,0.12,2.75-0.21,4.06-0.42c1.08,0.3,7.38,3.77,7.38,5.91C326.24,576.63,322.08,577.38,319.81,576.31z M337.32,571.35
			c1.41,0.95-1.8,3.77-8.46,2.47c-2.75-2.91-4.29-3.33-7.15-5.17l4.16-2.16C329.82,567.67,334.8,569.51,337.32,571.35z
			 M337.43,564.88c1.8,0.65,5.73,1.19,7.28,1.61c1.08,5.82-18.95,0.12-18.46-0.21c1.54-1.3,2.13-2.7,1.67-4.21
			c6.3,0,16.92-2.47,18.46-1.51C349.46,562.93,341.85,565.21,337.43,564.88z"/>
	</g>
	<g>
		<path class="st1" d="M293.08,590.06c-2.52-0.86-7.64,0.63-9.41,0c4.63-2.7,5.25-5.61,1.18-5.19v-1.19
			c-0.59-0.63-4.99,1.19-9.64,5.52c0-2.16,1.31-4.1-0.95-5.72c-2.85-1.07-5.84,2.26-5.48,6.58c-2.62-2.49-5.25-4.33-6.2-4
			c-2.39,1.4,0,3.68,0.13,5.61c0,0.33-1.44-3.02-4.29-5.07c-1.9-1.28-2.49-2.05-4.06-1.93c-2.98,1.19-0.95,7.21,3.34,8.93
			c-4.65,0.23-13.58,2.28-14.3,3.47c-0.36,0.86,1.08,1.07,4.29,2.05c-3.21,1.93-11.18,3.56-9.54,6.23c1.44,1.84,5.48,1.09,9.77-0.86
			c-2.62,5.49,7.87,3.35,10.49,2.28c0.82,2.47,7.25,2.05,7.25-0.44c5.01,1.72,8.36-0.65,9.54-2.05c10.72,0.53,11.77-3.23,5.24-5.49
			c6.53,0.53,11.06,1.19,11.06-2.7c-0.46-0.44-3.21-0.74-3.91-1.07C296.04,593.59,293.54,590.27,293.08,590.06z M286.81,585.64
			c1.21,1.19-4.04,4.51-4.27,4.63c-1.57,0.65-5.96,1.28-7.87,1.28c0.36-0.21,0.72-0.54,1.08-0.74
			C279.68,588.1,285.62,583.68,286.81,585.64z M284.44,583.8l-0.23,1.4c-4.42,1.63-5.25,3.35-10.36,6.14
			C274.18,590.06,280.97,584.34,284.44,583.8z M273.85,583.8c2.13,1.07,0.82,3.12,0.82,5.61c-0.12,0.09-1.11,1.5-1.29,1.59
			c-0.01,0-0.02,0.02-0.02,0.02c0,0,0.02-0.01,0.02-0.02c-0.1-0.15-3.19-1.34-4.32-0.73C268.83,590.15,269.07,582.61,273.85,583.8z
			 M262.64,586.38c1.18,0,3.93,2.05,5.37,3.88c-1.67,0-3.57,0.09-5.14,1.07C262.87,590.92,260.27,586.92,262.64,586.38z
			 M265.2,591.25c4.05-0.98,7.72-0.33,8.19,1.46c0.47,1.79-2.44,4.03-6.49,5.02c-4.05,0.98-7.72,0.33-8.19-1.46
			C258.23,594.48,261.14,592.24,265.2,591.25z M254.54,584.99c0.85-0.65,7.36,4.5,7.38,6.67c0,0,0,0.01,0,0.01c0,0,0-0.01,0-0.01
			c-0.26,0.07-3.65,1.53-3.31,1.64C255.26,593.71,250.86,585.96,254.54,584.99z M246.44,598.34c-3.08-1.07-4.52-0.86-0.23-2.14
			c3.34-1.09,8.23-2.28,11.9-2.28c-0.36,0.65-0.72,1.63-0.72,2.37C253.59,596.83,249.42,599.32,246.44,598.34z M238.11,604.81
			c-1.31-1.93,15.25-7.21,18.82-8.19c1.31,0,1.18,0.21,2.49,1.51C255.98,598.25,241.56,609.97,238.11,604.81z M258.24,605.88
			c-0.23,1.51-13.83,4.09-9.77-1.49c2.73-2.05,8.69-5.72,11.08-6.05c0.36,0,1.18,0.54,1.31,0.77
			C260.27,601.69,258.83,603.83,258.24,605.88z M258.83,606.44c-0.13-0.23-0.13-0.56,0-0.86l2.49-6.58c0.59,0,0.72,0,0.95,0.44
			c0.26,2.58,1.31,4.51,2.75,6.56C266.08,607.72,259.55,609.11,258.83,606.44z M265.98,606.11c-1.18-0.44-4.88-7.33-2.75-7.12
			c1.08,0.12,2.75-0.21,4.06-0.42c1.08,0.3,7.38,3.77,7.38,5.91C272.41,606.44,268.24,607.18,265.98,606.11z M283.49,601.16
			c1.41,0.95-1.8,3.77-8.46,2.47c-2.75-2.91-4.29-3.33-7.15-5.17l4.16-2.16C275.98,597.48,280.97,599.32,283.49,601.16z
			 M283.59,594.69c1.8,0.65,5.73,1.19,7.28,1.61c1.08,5.82-18.95,0.12-18.46-0.21c1.54-1.3,2.13-2.7,1.67-4.21
			c6.3,0,16.92-2.47,18.46-1.51C295.62,592.73,288.01,595.01,283.59,594.69z"/>
	</g>
	<g>
		<path class="st1" d="M372.49,589.03c-2.52-0.86-7.64,0.63-9.41,0c4.63-2.7,5.25-5.61,1.18-5.19v-1.19
			c-0.59-0.63-4.99,1.19-9.64,5.52c0-2.16,1.31-4.1-0.95-5.72c-2.85-1.07-5.84,2.26-5.48,6.58c-2.62-2.49-5.25-4.33-6.2-4
			c-2.39,1.4,0,3.68,0.13,5.61c0,0.33-1.44-3.02-4.29-5.07c-1.9-1.28-2.49-2.05-4.06-1.93c-2.98,1.19-0.95,7.21,3.34,8.93
			c-4.65,0.23-13.58,2.28-14.3,3.47c-0.36,0.86,1.08,1.07,4.29,2.05c-3.21,1.93-11.18,3.56-9.54,6.23c1.44,1.84,5.48,1.09,9.77-0.86
			c-2.62,5.49,7.87,3.35,10.49,2.28c0.82,2.47,7.25,2.05,7.25-0.44c5.01,1.72,8.36-0.65,9.54-2.05c10.72,0.53,11.77-3.23,5.24-5.49
			c6.53,0.53,11.06,1.19,11.06-2.7c-0.46-0.44-3.21-0.74-3.91-1.07C375.45,592.56,372.96,589.24,372.49,589.03z M366.22,584.61
			c1.21,1.19-4.04,4.51-4.27,4.63c-1.57,0.65-5.96,1.28-7.87,1.28c0.36-0.21,0.72-0.54,1.08-0.74
			C359.1,587.07,365.04,582.65,366.22,584.61z M363.85,582.77l-0.23,1.4c-4.42,1.63-5.25,3.35-10.36,6.14
			C353.6,589.03,360.38,583.31,363.85,582.77z M353.26,582.77c2.13,1.07,0.82,3.12,0.82,5.61c-0.12,0.09-1.11,1.5-1.29,1.59
			c-0.01,0-0.02,0.02-0.02,0.02c0,0,0.02-0.01,0.02-0.02c-0.1-0.15-3.19-1.34-4.32-0.73C348.25,589.12,348.48,581.58,353.26,582.77z
			 M342.05,585.35c1.18,0,3.93,2.05,5.37,3.88c-1.67,0-3.57,0.09-5.14,1.07C342.28,589.89,339.69,585.89,342.05,585.35z
			 M344.61,590.22c4.05-0.98,7.72-0.33,8.19,1.46c0.47,1.79-2.44,4.03-6.49,5.02c-4.05,0.98-7.72,0.33-8.19-1.46
			C337.65,593.45,340.56,591.21,344.61,590.22z M333.95,583.96c0.85-0.65,7.36,4.5,7.38,6.67c0,0,0,0.01,0,0.01c0,0,0-0.01,0-0.01
			c-0.26,0.07-3.65,1.53-3.31,1.64C334.67,592.68,330.28,584.93,333.95,583.96z M325.85,597.31c-3.08-1.07-4.52-0.86-0.23-2.14
			c3.34-1.09,8.23-2.28,11.9-2.28c-0.36,0.65-0.72,1.63-0.72,2.37C333,595.8,328.84,598.29,325.85,597.31z M317.52,603.78
			c-1.31-1.93,15.25-7.21,18.82-8.19c1.31,0,1.18,0.21,2.49,1.51C335.39,597.22,320.97,608.94,317.52,603.78z M337.65,604.85
			c-0.23,1.51-13.83,4.09-9.77-1.49c2.73-2.05,8.69-5.72,11.08-6.05c0.36,0,1.18,0.54,1.31,0.77
			C339.69,600.66,338.25,602.8,337.65,604.85z M338.25,605.41c-0.13-0.23-0.13-0.56,0-0.86l2.49-6.58c0.59,0,0.72,0,0.95,0.44
			c0.26,2.58,1.31,4.51,2.75,6.56C345.5,606.69,338.97,608.08,338.25,605.41z M345.39,605.08c-1.18-0.44-4.88-7.33-2.75-7.12
			c1.08,0.12,2.75-0.21,4.06-0.42c1.08,0.3,7.38,3.77,7.38,5.91C351.82,605.41,347.66,606.15,345.39,605.08z M362.9,600.13
			c1.41,0.95-1.8,3.77-8.46,2.47c-2.75-2.91-4.29-3.33-7.15-5.17l4.16-2.16C355.39,596.45,360.38,598.29,362.9,600.13z M363,593.66
			c1.8,0.65,5.73,1.19,7.28,1.61c1.08,5.82-18.95,0.12-18.46-0.21c1.54-1.3,2.13-2.7,1.67-4.21c6.3,0,16.92-2.47,18.46-1.51
			C375.04,591.7,367.43,593.98,363,593.66z"/>
	</g>
	<g>
		<path class="st1" d="M256.62,620.34c-2.52-0.86-7.64,0.63-9.41,0c4.63-2.7,5.25-5.61,1.18-5.19v-1.19
			c-0.59-0.63-4.99,1.19-9.64,5.52c0-2.16,1.31-4.1-0.95-5.72c-2.85-1.07-5.84,2.26-5.48,6.58c-2.62-2.49-5.25-4.33-6.2-4
			c-2.39,1.4,0,3.68,0.13,5.61c0,0.33-1.44-3.02-4.29-5.07c-1.9-1.28-2.49-2.05-4.06-1.93c-2.98,1.19-0.95,7.21,3.34,8.93
			c-4.65,0.23-13.58,2.28-14.3,3.47c-0.36,0.86,1.08,1.07,4.29,2.05c-3.21,1.93-11.18,3.56-9.54,6.23c1.44,1.84,5.48,1.09,9.77-0.86
			c-2.62,5.49,7.87,3.35,10.49,2.28c0.82,2.47,7.25,2.05,7.25-0.44c5.01,1.72,8.36-0.65,9.54-2.05c10.72,0.53,11.77-3.23,5.24-5.49
			c6.53,0.53,11.06,1.19,11.06-2.7c-0.46-0.44-3.21-0.74-3.91-1.07C259.57,623.87,257.08,620.55,256.62,620.34z M250.34,615.92
			c1.21,1.19-4.04,4.51-4.27,4.63c-1.57,0.65-5.96,1.28-7.87,1.28c0.36-0.21,0.72-0.54,1.08-0.74
			C243.22,618.38,249.16,613.96,250.34,615.92z M247.98,614.08l-0.23,1.4c-4.42,1.63-5.25,3.35-10.36,6.14
			C237.72,620.34,244.51,614.62,247.98,614.08z M237.38,614.08c2.13,1.07,0.82,3.12,0.82,5.61c-0.12,0.09-1.11,1.5-1.29,1.59
			c-0.01,0-0.02,0.02-0.02,0.02c0,0,0.02-0.01,0.02-0.02c-0.1-0.15-3.19-1.34-4.32-0.73C232.37,620.43,232.6,612.89,237.38,614.08z
			 M226.17,616.66c1.18,0,3.93,2.05,5.37,3.88c-1.67,0-3.57,0.09-5.14,1.07C226.4,621.2,223.81,617.2,226.17,616.66z M228.73,621.53
			c4.05-0.98,7.72-0.33,8.19,1.46c0.47,1.79-2.44,4.03-6.49,5.02c-4.05,0.98-7.72,0.33-8.19-1.46
			C221.77,624.76,224.68,622.52,228.73,621.53z M218.07,615.27c0.85-0.65,7.36,4.5,7.38,6.67c0,0,0,0.01,0,0.01c0,0,0-0.01,0-0.01
			c-0.26,0.07-3.65,1.53-3.31,1.64C218.79,623.99,214.4,616.24,218.07,615.27z M209.97,628.62c-3.08-1.07-4.52-0.86-0.23-2.14
			c3.34-1.09,8.23-2.28,11.9-2.28c-0.36,0.65-0.72,1.63-0.72,2.37C217.12,627.11,212.96,629.6,209.97,628.62z M201.65,635.09
			c-1.31-1.93,15.25-7.21,18.82-8.19c1.31,0,1.18,0.21,2.49,1.51C219.51,628.53,205.09,640.25,201.65,635.09z M221.78,636.16
			c-0.23,1.51-13.83,4.09-9.77-1.49c2.73-2.05,8.69-5.72,11.08-6.05c0.36,0,1.18,0.54,1.31,0.77
			C223.81,631.97,222.37,634.11,221.78,636.16z M222.37,636.72c-0.13-0.23-0.13-0.56,0-0.86l2.49-6.58c0.59,0,0.72,0,0.95,0.44
			c0.26,2.58,1.31,4.51,2.75,6.56C229.62,638,223.09,639.39,222.37,636.72z M229.51,636.39c-1.18-0.44-4.88-7.33-2.75-7.12
			c1.08,0.12,2.75-0.21,4.06-0.42c1.08,0.3,7.38,3.77,7.38,5.91C235.94,636.72,231.78,637.46,229.51,636.39z M247.02,631.44
			c1.41,0.95-1.8,3.77-8.46,2.47c-2.75-2.91-4.29-3.33-7.15-5.17l4.16-2.16C239.52,627.76,244.51,629.6,247.02,631.44z
			 M247.13,624.97c1.8,0.65,5.73,1.19,7.28,1.61c1.08,5.82-18.95,0.12-18.46-0.21c1.54-1.3,2.13-2.7,1.67-4.21
			c6.3,0,16.92-2.47,18.46-1.51C259.16,623.01,251.55,625.29,247.13,624.97z"/>
	</g>
	<g>
		<path class="st1" d="M328.54,619.31c-2.52-0.86-7.64,0.63-9.41,0c4.63-2.7,5.25-5.61,1.18-5.19v-1.19
			c-0.59-0.63-4.99,1.19-9.64,5.52c0-2.16,1.31-4.1-0.95-5.72c-2.85-1.07-5.84,2.26-5.48,6.58c-2.62-2.49-5.25-4.33-6.2-4
			c-2.39,1.4,0,3.68,0.13,5.61c0,0.33-1.44-3.02-4.29-5.07c-1.9-1.28-2.49-2.05-4.06-1.93c-2.98,1.19-0.95,7.21,3.34,8.93
			c-4.65,0.23-13.58,2.28-14.3,3.47c-0.36,0.86,1.08,1.07,4.29,2.05c-3.21,1.93-11.18,3.56-9.54,6.23c1.44,1.84,5.48,1.09,9.77-0.86
			c-2.62,5.49,7.87,3.35,10.49,2.28c0.82,2.47,7.25,2.05,7.25-0.44c5.01,1.72,8.36-0.65,9.54-2.05c10.72,0.53,11.77-3.23,5.24-5.49
			c6.53,0.53,11.06,1.19,11.06-2.7c-0.46-0.44-3.21-0.74-3.91-1.07C331.5,622.85,329,619.52,328.54,619.31z M322.26,614.89
			c1.21,1.19-4.04,4.51-4.27,4.63c-1.57,0.65-5.96,1.28-7.87,1.28c0.36-0.21,0.72-0.54,1.08-0.74
			C315.14,617.36,321.08,612.93,322.26,614.89z M319.9,613.05l-0.23,1.4c-4.42,1.63-5.25,3.35-10.36,6.14
			C309.64,619.31,316.43,613.59,319.9,613.05z M309.31,613.05c2.13,1.07,0.82,3.12,0.82,5.61c-0.12,0.09-1.11,1.5-1.29,1.59
			c-0.01,0-0.02,0.02-0.02,0.02c0,0,0.02-0.01,0.02-0.02c-0.1-0.15-3.19-1.34-4.32-0.73C304.29,619.4,304.52,611.86,309.31,613.05z
			 M298.1,615.63c1.18,0,3.93,2.05,5.37,3.88c-1.67,0-3.57,0.09-5.14,1.07C298.33,620.17,295.73,616.17,298.1,615.63z M300.66,620.5
			c4.05-0.98,7.72-0.33,8.19,1.46c0.47,1.79-2.44,4.03-6.49,5.02c-4.05,0.98-7.72,0.33-8.19-1.46
			C293.69,623.73,296.6,621.49,300.66,620.5z M290,614.24c0.85-0.65,7.36,4.5,7.38,6.67c0,0,0,0.01,0,0.01c0,0,0-0.01,0-0.01
			c-0.26,0.07-3.65,1.53-3.31,1.64C290.72,622.96,286.32,615.22,290,614.24z M281.9,627.59c-3.08-1.07-4.52-0.86-0.23-2.14
			c3.34-1.09,8.23-2.28,11.9-2.28c-0.36,0.65-0.72,1.63-0.72,2.37C289.05,626.08,284.88,628.57,281.9,627.59z M273.57,634.06
			c-1.31-1.93,15.25-7.21,18.82-8.19c1.31,0,1.18,0.21,2.49,1.51C291.44,627.5,277.01,639.23,273.57,634.06z M293.7,635.13
			c-0.23,1.51-13.83,4.09-9.77-1.49c2.73-2.05,8.69-5.72,11.08-6.05c0.36,0,1.18,0.54,1.31,0.77
			C295.73,630.94,294.29,633.08,293.7,635.13z M294.29,635.69c-0.13-0.23-0.13-0.56,0-0.86l2.49-6.58c0.59,0,0.72,0,0.95,0.44
			c0.26,2.58,1.31,4.51,2.75,6.56C301.54,636.97,295.01,638.37,294.29,635.69z M301.44,635.36c-1.18-0.44-4.88-7.33-2.75-7.12
			c1.08,0.12,2.75-0.21,4.06-0.42c1.08,0.3,7.38,3.77,7.38,5.91C307.87,635.69,303.7,636.43,301.44,635.36z M318.95,630.41
			c1.41,0.95-1.8,3.77-8.46,2.47c-2.75-2.91-4.29-3.33-7.15-5.17l4.16-2.16C311.44,626.73,316.43,628.57,318.95,630.41z
			 M319.05,623.94c1.8,0.65,5.73,1.19,7.28,1.61c1.08,5.82-18.95,0.12-18.46-0.21c1.54-1.3,2.13-2.7,1.67-4.21
			c6.3,0,16.92-2.47,18.46-1.51C331.08,621.99,323.47,624.27,319.05,623.94z"/>
	</g>
	<g>
		<path class="st1" d="M285.07,649.02c-2.52-0.86-7.64,0.63-9.41,0c4.63-2.7,5.25-5.61,1.18-5.19v-1.19
			c-0.59-0.63-4.99,1.19-9.64,5.52c0-2.16,1.31-4.1-0.95-5.72c-2.85-1.07-5.84,2.26-5.48,6.58c-2.62-2.49-5.25-4.33-6.2-4
			c-2.39,1.4,0,3.68,0.13,5.61c0,0.33-1.44-3.02-4.29-5.07c-1.9-1.28-2.49-2.05-4.06-1.93c-2.98,1.19-0.95,7.21,3.34,8.93
			c-4.65,0.23-13.58,2.28-14.3,3.47c-0.36,0.86,1.08,1.07,4.29,2.05c-3.21,1.93-11.18,3.56-9.54,6.23c1.44,1.84,5.48,1.09,9.77-0.86
			c-2.62,5.49,7.87,3.35,10.49,2.28c0.82,2.47,7.25,2.05,7.25-0.44c5.01,1.72,8.36-0.65,9.54-2.05c10.72,0.53,11.77-3.23,5.24-5.49
			c6.53,0.53,11.06,1.19,11.06-2.7c-0.46-0.44-3.21-0.74-3.91-1.07C288.02,652.55,285.53,649.22,285.07,649.02z M278.79,644.6
			c1.21,1.19-4.04,4.51-4.27,4.63c-1.57,0.65-5.96,1.28-7.87,1.28c0.36-0.21,0.72-0.54,1.08-0.74
			C271.67,647.06,277.61,642.64,278.79,644.6z M276.43,642.76l-0.23,1.4c-4.42,1.63-5.25,3.35-10.36,6.14
			C266.17,649.02,272.96,643.29,276.43,642.76z M265.83,642.76c2.13,1.07,0.82,3.12,0.82,5.61c-0.12,0.09-1.11,1.5-1.29,1.59
			c-0.01,0-0.02,0.02-0.02,0.02c0,0,0.02-0.01,0.02-0.02c-0.1-0.15-3.19-1.34-4.32-0.73C260.82,649.11,261.05,641.57,265.83,642.76z
			 M254.62,645.34c1.18,0,3.93,2.05,5.37,3.88c-1.67,0-3.57,0.09-5.14,1.07C254.85,649.88,252.26,645.87,254.62,645.34z
			 M257.18,650.21c4.05-0.98,7.72-0.33,8.19,1.46c0.47,1.79-2.44,4.03-6.49,5.02c-4.05,0.98-7.72,0.33-8.19-1.46
			C250.22,653.44,253.13,651.2,257.18,650.21z M246.52,643.94c0.85-0.65,7.36,4.5,7.38,6.67c0,0,0,0.01,0,0.01c0,0,0-0.01,0-0.01
			c-0.26,0.07-3.65,1.53-3.31,1.64C247.24,652.67,242.85,644.92,246.52,643.94z M238.42,657.3c-3.08-1.07-4.52-0.86-0.23-2.14
			c3.34-1.09,8.23-2.28,11.9-2.28c-0.36,0.65-0.72,1.63-0.72,2.37C245.57,655.79,241.41,658.28,238.42,657.3z M230.1,663.77
			c-1.31-1.93,15.25-7.21,18.82-8.19c1.31,0,1.18,0.21,2.49,1.51C247.96,657.21,233.54,668.93,230.1,663.77z M250.23,664.84
			c-0.23,1.51-13.83,4.09-9.77-1.49c2.73-2.05,8.69-5.72,11.08-6.05c0.36,0,1.18,0.54,1.31,0.77
			C252.26,660.65,250.82,662.79,250.23,664.84z M250.82,665.4c-0.13-0.23-0.13-0.56,0-0.86l2.49-6.58c0.59,0,0.72,0,0.95,0.44
			c0.26,2.58,1.31,4.51,2.75,6.56C258.07,666.68,251.54,668.07,250.82,665.4z M257.96,665.07c-1.18-0.44-4.88-7.33-2.75-7.12
			c1.08,0.12,2.75-0.21,4.06-0.42c1.08,0.3,7.38,3.77,7.38,5.91C264.39,665.4,260.23,666.14,257.96,665.07z M275.47,660.11
			c1.41,0.95-1.8,3.77-8.46,2.47c-2.75-2.91-4.29-3.33-7.15-5.17l4.16-2.16C267.97,656.44,272.96,658.28,275.47,660.11z
			 M275.58,653.65c1.8,0.65,5.73,1.19,7.28,1.61c1.08,5.82-18.95,0.12-18.46-0.21c1.54-1.3,2.13-2.7,1.67-4.21
			c6.3,0,16.92-2.47,18.46-1.51C287.61,651.69,280,653.97,275.58,653.65z"/>
	</g>
	<g>
		<path class="st1" d="M377.24,643.2c-2.52-0.86-7.64,0.63-9.41,0c4.63-2.7,5.25-5.61,1.18-5.19v-1.19
			c-0.59-0.63-4.99,1.19-9.64,5.52c0-2.16,1.31-4.1-0.95-5.72c-2.85-1.07-5.84,2.26-5.48,6.58c-2.62-2.49-5.25-4.33-6.2-4
			c-2.39,1.4,0,3.68,0.13,5.61c0,0.33-1.44-3.02-4.29-5.07c-1.9-1.28-2.49-2.05-4.06-1.93c-2.98,1.19-0.95,7.21,3.34,8.93
			c-4.65,0.23-13.58,2.28-14.3,3.47c-0.36,0.86,1.08,1.07,4.29,2.05c-3.21,1.93-11.18,3.56-9.54,6.23c1.44,1.84,5.48,1.09,9.77-0.86
			c-2.62,5.49,7.87,3.35,10.49,2.28c0.82,2.47,7.25,2.05,7.25-0.44c5.01,1.72,8.36-0.65,9.54-2.05c10.72,0.53,11.77-3.23,5.24-5.49
			c6.53,0.53,11.06,1.19,11.06-2.7c-0.46-0.44-3.21-0.74-3.91-1.07C380.2,646.74,377.71,643.41,377.24,643.2z M370.97,638.78
			c1.21,1.19-4.04,4.51-4.27,4.63c-1.57,0.65-5.96,1.28-7.87,1.28c0.36-0.21,0.72-0.54,1.08-0.74
			C363.85,641.25,369.79,636.82,370.97,638.78z M368.6,636.94l-0.23,1.4c-4.42,1.63-5.25,3.35-10.36,6.14
			C358.34,643.2,365.13,637.48,368.6,636.94z M358.01,636.94c2.13,1.07,0.82,3.12,0.82,5.61c-0.12,0.09-1.11,1.5-1.29,1.59
			c-0.01,0-0.02,0.02-0.02,0.02c0,0,0.02-0.01,0.02-0.02c-0.1-0.15-3.19-1.34-4.32-0.73C353,643.29,353.23,635.75,358.01,636.94z
			 M346.8,639.52c1.18,0,3.93,2.05,5.37,3.88c-1.67,0-3.57,0.09-5.14,1.07C347.03,644.06,344.43,640.06,346.8,639.52z
			 M349.36,644.39c4.05-0.98,7.72-0.33,8.19,1.46c0.47,1.79-2.44,4.03-6.49,5.02c-4.05,0.98-7.72,0.33-8.19-1.46
			C342.4,647.62,345.3,645.38,349.36,644.39z M338.7,638.13c0.85-0.65,7.36,4.5,7.38,6.67c0,0,0,0.01,0,0.01c0,0,0-0.01,0-0.01
			c-0.26,0.07-3.65,1.53-3.31,1.64C339.42,646.85,335.02,639.11,338.7,638.13z M330.6,651.48c-3.08-1.07-4.52-0.86-0.23-2.14
			c3.34-1.09,8.23-2.28,11.9-2.28c-0.36,0.65-0.72,1.63-0.72,2.37C337.75,649.97,333.58,652.46,330.6,651.48z M322.27,657.95
			c-1.31-1.93,15.25-7.21,18.82-8.19c1.31,0,1.18,0.21,2.49,1.51C340.14,651.39,325.72,663.12,322.27,657.95z M342.4,659.02
			c-0.23,1.51-13.83,4.09-9.77-1.49c2.73-2.05,8.69-5.72,11.08-6.05c0.36,0,1.18,0.54,1.31,0.77
			C344.43,654.83,342.99,656.97,342.4,659.02z M342.99,659.58c-0.13-0.23-0.13-0.56,0-0.86l2.49-6.58c0.59,0,0.72,0,0.95,0.44
			c0.26,2.58,1.31,4.51,2.75,6.56C350.25,660.86,343.71,662.26,342.99,659.58z M350.14,659.25c-1.18-0.44-4.88-7.33-2.75-7.12
			c1.08,0.12,2.75-0.21,4.06-0.42c1.08,0.3,7.38,3.77,7.38,5.91C356.57,659.58,352.41,660.32,350.14,659.25z M367.65,654.3
			c1.41,0.95-1.8,3.77-8.46,2.47c-2.75-2.91-4.29-3.33-7.15-5.17l4.16-2.16C360.14,650.62,365.13,652.46,367.65,654.3z
			 M367.75,647.83c1.8,0.65,5.73,1.19,7.28,1.61c1.08,5.82-18.95,0.12-18.46-0.21c1.54-1.3,2.13-2.7,1.67-4.21
			c6.3,0,16.92-2.47,18.46-1.51C379.79,645.88,372.18,648.16,367.75,647.83z"/>
	</g>
	<g>
		<path class="st1" d="M328.59,674.78c-2.52-0.86-7.64,0.63-9.41,0c4.63-2.7,5.25-5.61,1.18-5.19v-1.19
			c-0.59-0.63-4.99,1.19-9.64,5.52c0-2.16,1.31-4.1-0.95-5.72c-2.85-1.07-5.84,2.26-5.48,6.58c-2.62-2.49-5.25-4.33-6.2-4
			c-2.39,1.4,0,3.68,0.13,5.61c0,0.33-1.44-3.02-4.29-5.07c-1.9-1.28-2.49-2.05-4.06-1.93c-2.98,1.19-0.95,7.21,3.34,8.93
			c-4.65,0.23-13.58,2.28-14.3,3.47c-0.36,0.86,1.08,1.07,4.29,2.05c-3.21,1.93-11.18,3.56-9.54,6.23c1.44,1.84,5.48,1.09,9.77-0.86
			c-2.62,5.49,7.87,3.35,10.49,2.28c0.82,2.47,7.25,2.05,7.25-0.44c5.01,1.72,8.36-0.65,9.54-2.05c10.72,0.53,11.77-3.23,5.24-5.49
			c6.53,0.53,11.06,1.19,11.06-2.7c-0.46-0.44-3.21-0.74-3.91-1.07C331.55,678.32,329.06,674.99,328.59,674.78z M322.32,670.36
			c1.21,1.19-4.04,4.51-4.27,4.63c-1.57,0.65-5.96,1.28-7.87,1.28c0.36-0.21,0.72-0.54,1.08-0.74
			C315.2,672.83,321.14,668.41,322.32,670.36z M319.95,668.52l-0.23,1.4c-4.42,1.63-5.25,3.35-10.36,6.14
			C309.7,674.78,316.48,669.06,319.95,668.52z M309.36,668.52c2.13,1.07,0.82,3.12,0.82,5.61c-0.12,0.09-1.11,1.5-1.29,1.59
			c-0.01,0-0.02,0.02-0.02,0.02c0,0,0.02-0.01,0.02-0.02c-0.1-0.15-3.19-1.34-4.32-0.73C304.35,674.87,304.58,667.34,309.36,668.52z
			 M298.15,671.11c1.18,0,3.93,2.05,5.37,3.88c-1.67,0-3.57,0.09-5.14,1.07C298.38,675.64,295.79,671.64,298.15,671.11z
			 M300.71,675.98c4.05-0.98,7.72-0.33,8.19,1.46c0.47,1.79-2.44,4.03-6.49,5.02c-4.05,0.98-7.72,0.33-8.19-1.46
			C293.75,679.21,296.66,676.96,300.71,675.98z M290.05,669.71c0.85-0.65,7.36,4.5,7.38,6.67c0,0,0,0.01,0,0.01c0,0,0-0.01,0-0.01
			c-0.26,0.07-3.65,1.53-3.31,1.64C290.77,678.44,286.38,670.69,290.05,669.71z M281.95,683.06c-3.08-1.07-4.52-0.86-0.23-2.14
			c3.34-1.09,8.23-2.28,11.9-2.28c-0.36,0.65-0.72,1.63-0.72,2.37C289.1,681.55,284.94,684.04,281.95,683.06z M273.62,689.53
			c-1.31-1.93,15.25-7.21,18.82-8.19c1.31,0,1.18,0.21,2.49,1.51C291.49,682.97,277.07,694.7,273.62,689.53z M293.76,690.6
			c-0.23,1.51-13.83,4.09-9.77-1.49c2.73-2.05,8.69-5.72,11.08-6.05c0.36,0,1.18,0.54,1.31,0.77
			C295.79,686.42,294.35,688.56,293.76,690.6z M294.35,691.16c-0.13-0.23-0.13-0.56,0-0.86l2.49-6.58c0.59,0,0.72,0,0.95,0.44
			c0.26,2.58,1.31,4.51,2.75,6.56C301.6,692.44,295.07,693.84,294.35,691.16z M301.49,690.84c-1.18-0.44-4.88-7.33-2.75-7.12
			c1.08,0.12,2.75-0.21,4.06-0.42c1.08,0.3,7.38,3.77,7.38,5.91C307.92,691.16,303.76,691.91,301.49,690.84z M319,685.88
			c1.41,0.95-1.8,3.77-8.46,2.47c-2.75-2.91-4.29-3.33-7.15-5.17l4.16-2.16C311.5,682.2,316.48,684.04,319,685.88z M319.11,679.41
			c1.8,0.65,5.73,1.19,7.28,1.61c1.08,5.82-18.95,0.12-18.46-0.21c1.54-1.3,2.13-2.7,1.67-4.21c6.3,0,16.92-2.47,18.46-1.51
			C331.14,677.46,323.53,679.74,319.11,679.41z"/>
	</g>
	<g>
		<path class="st1" d="M336.58,705.73c-2.52-0.86-7.64,0.63-9.41,0c4.63-2.7,5.25-5.61,1.18-5.19v-1.19
			c-0.59-0.63-4.99,1.19-9.64,5.52c0-2.16,1.31-4.1-0.95-5.72c-2.85-1.07-5.84,2.26-5.48,6.58c-2.62-2.49-5.25-4.33-6.2-4
			c-2.39,1.4,0,3.68,0.13,5.61c0,0.33-1.44-3.02-4.29-5.07c-1.9-1.28-2.49-2.05-4.06-1.93c-2.98,1.19-0.95,7.21,3.34,8.93
			c-4.65,0.23-13.58,2.28-14.3,3.47c-0.36,0.86,1.08,1.07,4.29,2.05c-3.21,1.93-11.18,3.56-9.54,6.23c1.44,1.84,5.48,1.09,9.77-0.86
			c-2.62,5.49,7.87,3.35,10.49,2.28c0.82,2.47,7.25,2.05,7.25-0.44c5.01,1.72,8.36-0.65,9.54-2.05c10.72,0.53,11.77-3.23,5.24-5.49
			c6.53,0.53,11.06,1.19,11.06-2.7c-0.46-0.44-3.21-0.74-3.91-1.07C339.54,709.27,337.04,705.94,336.58,705.73z M330.31,701.31
			c1.21,1.19-4.04,4.51-4.27,4.63c-1.57,0.65-5.96,1.28-7.87,1.28c0.36-0.21,0.72-0.54,1.08-0.74
			C323.18,703.78,329.12,699.36,330.31,701.31z M327.94,699.47l-0.23,1.4c-4.42,1.63-5.25,3.35-10.36,6.14
			C317.68,705.73,324.47,700.01,327.94,699.47z M317.35,699.47c2.13,1.07,0.82,3.12,0.82,5.61c-0.12,0.09-1.11,1.5-1.29,1.59
			c-0.01,0-0.02,0.02-0.02,0.02c0,0,0.02-0.01,0.02-0.02c-0.1-0.15-3.19-1.34-4.32-0.73C312.34,705.82,312.57,698.28,317.35,699.47z
			 M306.14,702.06c1.18,0,3.93,2.05,5.37,3.88c-1.67,0-3.57,0.09-5.14,1.07C306.37,706.59,303.77,702.59,306.14,702.06z
			 M308.7,706.93c4.05-0.98,7.72-0.33,8.19,1.46c0.47,1.79-2.44,4.03-6.49,5.02c-4.05,0.98-7.72,0.33-8.19-1.46
			C301.74,710.16,304.64,707.91,308.7,706.93z M298.04,700.66c0.85-0.65,7.36,4.5,7.38,6.67c0,0,0,0.01,0,0.01c0,0,0-0.01,0-0.01
			c-0.26,0.07-3.65,1.53-3.31,1.64C298.76,709.38,294.36,701.64,298.04,700.66z M289.94,714.01c-3.08-1.07-4.52-0.86-0.23-2.14
			c3.34-1.09,8.23-2.28,11.9-2.28c-0.36,0.65-0.72,1.63-0.72,2.37C297.09,712.5,292.92,714.99,289.94,714.01z M281.61,720.48
			c-1.31-1.93,15.25-7.21,18.82-8.19c1.31,0,1.18,0.21,2.49,1.51C299.48,713.92,285.06,725.65,281.61,720.48z M301.74,721.55
			c-0.23,1.51-13.83,4.09-9.77-1.49c2.73-2.05,8.69-5.72,11.08-6.05c0.36,0,1.18,0.54,1.31,0.77
			C303.77,717.36,302.33,719.5,301.74,721.55z M302.33,722.11c-0.13-0.23-0.13-0.56,0-0.86l2.49-6.58c0.59,0,0.72,0,0.95,0.44
			c0.26,2.58,1.31,4.51,2.75,6.56C309.58,723.39,303.05,724.79,302.33,722.11z M309.48,721.79c-1.18-0.44-4.88-7.33-2.75-7.12
			c1.08,0.12,2.75-0.21,4.06-0.42c1.08,0.3,7.38,3.77,7.38,5.91C315.91,722.11,311.74,722.86,309.48,721.79z M326.99,716.83
			c1.41,0.95-1.8,3.77-8.46,2.47c-2.75-2.91-4.29-3.33-7.15-5.17l4.16-2.16C319.48,713.15,324.47,714.99,326.99,716.83z
			 M327.09,710.36c1.8,0.65,5.73,1.19,7.28,1.61c1.08,5.82-18.95,0.12-18.46-0.21c1.54-1.3,2.13-2.7,1.67-4.21
			c6.3,0,16.92-2.47,18.46-1.51C339.13,708.41,331.52,710.69,327.09,710.36z"/>
	</g>
</g>
</svg>
