<?xml version="1.0" encoding="utf-8"?>
<!-- Generator: Adobe Illustrator 23.1.0, SVG Export Plug-In . SVG Version: 6.00 Build 0)  -->
<svg version="1.1" id="Logo" xmlns="http://www.w3.org/2000/svg" xmlns:xlink="http://www.w3.org/1999/xlink" x="0px" y="0px"
	 viewBox="0 0 595.3 841.9" style="enable-background:new 0 0 595.3 841.9;" xml:space="preserve">
<style type="text/css">
	.st0{fill-rule:evenodd;clip-rule:evenodd;fill:#2E4F9E;stroke:#231F20;stroke-width:0.22;stroke-miterlimit:22.93;}
	.st1{fill-rule:evenodd;clip-rule:evenodd;fill:#189560;stroke:#231F20;stroke-width:0.22;stroke-miterlimit:22.93;}
	.st2{fill-rule:evenodd;clip-rule:evenodd;fill:#E52628;stroke:#231F20;stroke-width:0.22;stroke-miterlimit:22.93;}
	.st3{fill-rule:evenodd;clip-rule:evenodd;fill:#F3E722;stroke:#F3E722;stroke-width:0.22;stroke-miterlimit:22.93;}
	.st4{fill:#FFFFFF;}
	.st5{fill:#FBEA26;}
	.st6{fill:none;stroke:#010101;stroke-width:0.5;stroke-miterlimit:10;}
	.st7{fill:#010101;}
	.st8{fill-rule:evenodd;clip-rule:evenodd;fill:#010101;}
	.st9{fill:#2E4F9E;}
	.st10{stroke:#1D1D1B;stroke-width:0.22;stroke-miterlimit:22.93;}
</style>
<g>
	<g id="Fondos_Colores">
		<path id="Fondo_azul_der" class="st0" d="M396.9,416.8v256.5c73.6-67.9,144.9-157.8,160.6-256.5H396.9z"/>
		<path id="Fondo_verde" class="st1" d="M197.6,416.8v254.6c32.5,28.7,66.8,55.2,102.9,79.3c33.1-23.1,64.7-48.4,94.5-75.6V416.8
			H197.6z"/>
		<path id="Fondo_azul_izq" class="st0" d="M37.6,416.8c14.2,96,78.9,182,158,252.9V416.8H37.6z"/>
		<path id="Fondo_rojo" class="st2" d="M518.3,194.5l-441.7,0.2H34.5l0.1,183c0,2,0,4.1,0.1,6.1h525.9c0-2.1,0.1-4.3,0.1-6.4
			l0.1-182.9H518.3z"/>
		<path id="Fondo_amarillo" class="st3" d="M297.6,84.8c-93.3,0-173.6,42.2-207.1,101.9l414.1-0.2C471,126.9,390.8,84.8,297.6,84.8z
			"/>
	</g>
	<rect id="Franja_blanca" x="29.4" y="383.9" class="st4" width="534.3" height="31"/>
	<g id="Laurel_izq">
		<path id="Tallo_laurel_der" class="st5" d="M179.3,586.9c-35-26.5-47.9-42.4-63.2-129.3c-0.4-0.6-3.2,0.5-3.2-0.4
			c16,91.7,29.3,105.7,67.4,134.4C179.6,591.3,180.3,587.6,179.3,586.9z"/>
		<path id="Hoja_laurel_relleno_der_10" class="st5" d="M154.4,547.9c-1.3,3.4-1.5,7-0.7,10.5c3.5,5.6,7.4,7.3,10.7,8.1
			c12.9,2.2,20.7-10.8,25.2-21C178.3,544.1,159.8,536,154.4,547.9z"/>
		<path id="Hoja_laurel_der_10" class="st6" d="M155.8,557.7c1.6,2.4,4.3,4.6,6,5.2c10.2,3.8,17.1-6.7,20.7-14.5
			C167.7,545.6,157.6,541.8,155.8,557.7z"/>
		<path id="Hoja_laurel_relleno_der_09" class="st5" d="M122.6,542.4c-10.7-1.7-16.1,4.2-25,6.7c14.5,14.3,42,30.8,43.3,8
			C135.1,548.5,127.8,543.4,122.6,542.4z"/>
		<path id="Hoja_laurel_der_09" class="st6" d="M105.2,550.7c9.1,10.6,16.1,11.8,25.4,13.6c3.2,0.3,7.3-2.7,7.3-7.2
			C124.9,541.1,114.4,543.4,105.2,550.7z"/>
		<path id="Hoja_laurel_relleno_der_08" class="st5" d="M137.6,528.8c0.1,2,0.4,3.9,0.7,5.9c2.3,3.2,5.5,5.6,9.2,6.8
			c12.7,2,17.5-10.8,21.6-21.1C158.7,520,137.4,510.2,137.6,528.8z"/>
		<path id="Hoja_laurel_der_08" class="st6" d="M140.2,533.8c1.7,2.1,4.2,3.5,6.8,4c8.7,1.8,13.8-7.1,15.8-14.5
			C152.4,522.3,136.6,514.9,140.2,533.8z"/>
		<path id="Hoja_laurel_relleno_der_07" class="st5" d="M128.9,527.5c-4.6-7.1-10.1-11.6-14.5-13c-10.8-4.4-15.4,3.7-23.3,5.9
			c9,8.9,20.2,14.2,28.6,15.8C125.2,536.7,129.2,535,128.9,527.5z"/>
		<path id="Hoja_laurel_der_07" class="st6" d="M126,526.9c-12.8-16.5-20.4-6.2-28.8-5C105.5,528.1,121.6,540.2,126,526.9z"/>
		<path id="Hoja_laurel_relleno_der_06" class="st5" d="M127.6,496c-1,3.5-1.1,7.1-0.1,10.6c3.4,3.4,8.9,7,12.7,6
			c10-2.4,9.1-4.9,14.3-19.2C141.7,490.1,131.3,488.7,127.6,496z"/>
		<path id="Hoja_laurel_der_06" class="st6" d="M129.3,500.2c-0.2,2.1-0.1,4.2,0.3,6.3c1.8,2,4.3,3.4,7,3.9
			c7.1-0.2,11.3-8.4,13.5-15C144.2,491.9,130.6,493.3,129.3,500.2z"/>
		<path id="Hoja_laurel_relleno_der_05" class="st5" d="M98.8,500.6c5.6,4.9,18.4,15.5,22.9,7.1c-3.3-10-11.9-16.7-15.4-18.3
			c-7.9-2.8-14.2-1.4-21.8-3.4C88.9,491.3,93.7,496.2,98.8,500.6z"/>
		<path id="Hoja_laurel_der_05" class="st6" d="M117.6,504c-7.5-15.9-18-12.1-25.4-13.5C95.4,496.7,113.6,513.8,117.6,504z"/>
		<path id="Hoja_laurel_relleno_der_04" class="st5" d="M122.2,474.5c-0.8,2-0.5,4,0.3,8.5c3.7,5,8.1,7.6,11.8,6.2
			c8.6,0,11.9-10.3,15.2-17.8C139.8,471,126.3,465,122.2,474.5z"/>
		<path id="Hoja_laurel_der_04" class="st6" d="M124.9,482.5c4.4,5.3,7.8,5.1,11.4,2.9c4.2-2.6,5.8-6.1,8-11
			C136.7,473.3,121.5,465.9,124.9,482.5z"/>
		<path id="Hoja_laurel_relleno_der_03" class="st5" d="M103,486c2.9,2.4,6,3.8,8.7,3.6c1.1,0.1,4.9-0.4,4.8-4.5
			c-9.6-18.9-25-19.8-35.7-24.6C87.4,470.7,93.9,478.7,103,486z"/>
		<path id="Hoja_laurel_der_03" class="st6" d="M113,485c-5-15.4-25.5-18.9-25-18.9C92,472.3,103.2,486.3,113,485z"/>
		<path id="Hoja_laurel_relleno_der_02" class="st5" d="M127.5,460.8c11.8,2.2,13.6-10.6,16-20.5c-7.6-0.3-18.1-3-23.4,1.9
			c-1.4,1.5-3.2,4.6-2.2,10.8C121.1,458.2,124.5,461.2,127.5,460.8z"/>
		<path id="Hoja_laurel_der_02" class="st6" d="M140.1,442.7c-9-2.5-16.8-0.8-19.1,4.6c-0.5,2.2-0.4,4.5,0.4,6.5
			C132.1,466.4,139.6,449.9,140.1,442.7z"/>
		<path id="Hoja_laurel_relleno_der_01" class="st5" d="M99.5,463c8,5,9.9,5,12.4,0.4c-1.7-9.3-5.9-13-9.5-16.3
			c-8.9-7.5-16.8-8.9-25.7-12.9C82.2,444,90.8,456.7,99.5,463z M109,462.4c-0.3,0.5-0.8,0.8-1.4,0.9
			C108.2,463.2,108.7,462.8,109,462.4z"/>
		<path id="Hoja_laurel_der_01" class="st6" d="M100.4,461.5c3.1,2.3,7.4,2.7,8.7,0.9c-1.7-16.1-16.8-18.1-25.3-21.9
			C87.6,449.1,96.4,458.5,100.4,461.5z"/>
	</g>
	<g id="Laurel_der">
		<path id="Tallo_laurel_izq" class="st5" d="M479.1,457.6c-15.2,86.9-28.2,102.8-63.1,129.3c-1,0.7-0.3,4.4-1,4.7
			C453,563,466.3,549,482.3,457.3C482.2,458.1,479.5,457,479.1,457.6z"/>
		<path id="Hoja_laurel_relleno_izq_10" class="st5" d="M472.6,542.4c-5.3,1-12.5,6.2-18.3,14.7c1.2,22.8,28.7,6.3,43.3-8
			C488.8,546.5,483.3,540.7,472.6,542.4z"/>
		<path id="Hoja_laurel_izq_10" class="st6" d="M457.4,557c-0.1,4.5,4,7.6,7.3,7.2c9.3-1.8,16.3-3,25.4-13.6
			C480.8,543.4,470.3,541.1,457.4,557z"/>
		<path id="Hoja_laurel_relleno_izq_09" class="st5" d="M430.9,566.5c3.3-0.8,7.1-2.5,10.7-8.1c0.8-3.5,0.5-7.2-0.7-10.5
			c-5.4-11.8-24-3.7-35.1-2.4C410.2,555.7,418,568.7,430.9,566.5z"/>
		<path id="Hoja_laurel_izq_09" class="st6" d="M433.4,562.8c1.7-0.6,4.3-2.8,6-5.2c-1.7-15.8-11.9-12-26.7-9.3
			C416.3,556.1,423.2,566.7,433.4,562.8z"/>
		<path id="Hoja_laurel_relleno_izq_08" class="st5" d="M480.8,514.5c-4.4,1.3-9.9,5.8-14.5,13c-0.3,7.5,3.7,9.2,9.2,8.7
			c8.3-1.6,19.5-6.9,28.5-15.8C496.1,518.2,491.6,510.2,480.8,514.5z"/>
		<path id="Hoja_laurel_izq_08" class="st6" d="M469.2,526.9c4.4,13.4,20.5,1.2,28.8-5C489.6,520.6,481.9,510.4,469.2,526.9z"/>
		<path id="Hoja_laurel_relleno_izq_07" class="st5" d="M447.6,541.5c3.7-1.3,6.9-3.6,9.2-6.8c0.4-1.9,0.6-3.9,0.7-5.9
			c0.2-18.6-21.1-8.8-31.5-8.4C430.1,530.7,434.9,543.4,447.6,541.5z"/>
		<path id="Hoja_laurel_izq_07" class="st6" d="M448.2,537.8c2.7-0.5,5.1-1.9,6.8-4c3.5-18.9-12.3-11.4-22.6-10.5
			C434.4,530.7,439.5,539.5,448.2,537.8z"/>
		<path id="Hoja_laurel_relleno_izq_06" class="st5" d="M473.5,507.7c4.5,8.4,17.4-2.2,22.9-7.1c5.1-4.5,9.8-9.3,14.1-14.6
			c-7.6,2-13.9,0.6-21.7,3.4C485.4,491,476.8,497.8,473.5,507.7z"/>
		<path id="Hoja_laurel_izq_06" class="st6" d="M477.6,504c3.9,9.8,22.2-7.2,25.4-13.5C495.7,491.8,485.2,488.1,477.6,504z"/>
		<path id="Hoja_laurel_relleno_izq_05" class="st5" d="M455,512.7c3.9,1,9.3-2.6,12.7-6c0.9-3.5,0.9-7.2-0.2-10.6
			c-3.7-7.3-14.1-5.9-26.9-2.6C445.9,507.7,445,510.3,455,512.7z"/>
		<path id="Hoja_laurel_izq_05" class="st6" d="M458.7,510.4c2.7-0.4,5.2-1.8,7-3.9c0.3-2.1,0.4-4.2,0.2-6.3
			c-1.3-6.9-14.9-8.3-20.7-4.9C447.4,502,451.6,510.1,458.7,510.4z"/>
		<path id="Hoja_laurel_relleno_izq_04" class="st5" d="M478.8,485.2c-0.1,4.1,3.7,4.6,4.8,4.5c2.6,0.1,5.7-1.2,8.7-3.6
			c9-7.4,15.6-15.4,22.2-25.5C503.8,465.4,488.3,466.3,478.8,485.2z"/>
		<path id="Hoja_laurel_izq_04" class="st6" d="M507.2,466.1c0.5,0-20,3.5-25,18.9C492,486.3,503.2,472.3,507.2,466.1z"/>
		<path id="Hoja_laurel_relleno_izq_03" class="st5" d="M460.9,489.2c3.7,1.4,8.2-1.2,11.8-6.2c0.8-4.4,1.1-6.5,0.3-8.5
			c-4.1-9.5-17.6-3.5-27.4-3.1C448.9,478.9,452.3,489.2,460.9,489.2z"/>
		<path id="Hoja_laurel_izq_03" class="st6" d="M458.9,485.4c3.6,2.3,7,2.5,11.4-2.9c3.5-16.7-11.8-9.3-19.4-8.1
			C453.1,479.3,454.7,482.8,458.9,485.4z"/>
		<path id="Hoja_laurel_relleno_izq_02" class="st5" d="M495.7,463c8.7-6.4,17.3-19.1,22.8-28.8c-8.9,3.9-16.8,5.3-25.7,12.9
			c-3.6,3.3-7.8,7-9.5,16.3C485.8,468.1,487.7,468.1,495.7,463z"/>
		<path id="Hoja_laurel_izq_02" class="st6" d="M494.8,461.5c4-3,12.8-12.4,16.7-21c-8.5,3.8-23.6,5.7-25.3,21.9
			C487.4,464.2,491.7,463.7,494.8,461.5z"/>
		<path id="Hoja_laurel_relleno_izq_01" class="st5" d="M475.2,442.2c-5.3-4.9-15.8-2.1-23.4-1.9c2.3,9.9,4.2,22.7,16,20.5
			c3,0.4,6.4-2.6,9.7-7.8C478.3,446.8,476.6,443.7,475.2,442.2z"/>
		<path id="Hoja_laurel_izq_01" class="st6" d="M473.8,453.8c0.8-2.1,0.9-4.4,0.4-6.5c-2.3-5.4-10.1-7.1-19.1-4.6
			C455.7,449.9,463.1,466.4,473.8,453.8z"/>
	</g>
	<g id="Flores">
		<path id="Flor_relleno_18" class="st5" d="M336.6,706c-2.5-0.9-7.6,0.6-9.4,0c4.6-2.7,5.3-5.6,1.2-5.2v-1.2
			c-0.6-0.6-5,1.2-9.6,5.5c0-2.2,1.3-4.1-1-5.7c-2.9-1.1-5.8,2.3-5.5,6.6c-2.6-2.5-5.3-4.3-6.2-4c-2.4,1.4,0,3.7,0.1,5.6
			c0,0.3-1.4-3-4.3-5.1c-1.9-1.3-2.5-2-4.1-1.9c-3,1.2-1,7.2,3.3,8.9c-4.6,0.2-13.6,2.3-14.3,3.5c-0.4,0.9,1.1,1.1,4.3,2
			c-3.2,1.9-11.2,3.6-9.5,6.2c1.4,1.8,5.5,1.1,9.8-0.9c-2.6,5.5,7.9,3.3,10.5,2.3c0.8,2.5,7.3,2.1,7.3-0.4c5,1.7,8.4-0.7,9.5-2.1
			c10.7,0.5,11.8-3.2,5.3-5.5c6.5,0.5,11,1.2,11-2.7c-0.5-0.4-3.2-0.7-3.9-1.1C339.5,709.5,337,706.2,336.6,706z M305.8,706l0.4,0.9
			L305.8,706z"/>
		<path id="Flor_delineado_18" class="st7" d="M336.6,706c-2.5-0.9-7.6,0.6-9.4,0c4.6-2.7,5.3-5.6,1.2-5.2v-1.2
			c-0.6-0.6-5,1.2-9.6,5.5c0-2.2,1.3-4.1-1-5.7c-2.9-1.1-5.8,2.3-5.5,6.6c-2.6-2.5-5.3-4.3-6.2-4c-2.4,1.4,0,3.7,0.1,5.6
			c0,0.3-1.4-3-4.3-5.1c-1.9-1.3-2.5-2-4.1-1.9c-3,1.2-1,7.2,3.3,8.9c-4.6,0.2-13.6,2.3-14.3,3.5c-0.4,0.9,1.1,1.1,4.3,2
			c-3.2,1.9-11.2,3.6-9.5,6.2c1.4,1.8,5.5,1.1,9.8-0.9c-2.6,5.5,7.9,3.3,10.5,2.3c0.8,2.5,7.3,2.1,7.3-0.4c5,1.7,8.4-0.7,9.5-2.1
			c10.7,0.5,11.8-3.2,5.3-5.5c6.5,0.5,11,1.2,11-2.7c-0.5-0.4-3.2-0.7-3.9-1.1C339.5,709.5,337,706.2,336.6,706z M330.3,701.5
			c1.2,1.2-4,4.5-4.3,4.6c-2.6,0.8-5.2,1.2-7.9,1.3c0.4-0.2,0.7-0.5,1.1-0.8C323.2,704,329.1,699.6,330.3,701.5z M327.9,699.7
			l-0.2,1.4c-4.4,1.6-5.3,3.3-10.4,6.2C317.6,706,324.4,700.3,327.9,699.7L327.9,699.7z M317.3,699.7c2.1,1.1,0.8,3.1,0.8,5.6
			c-0.1,0.1-1.1,1.5-1.3,1.6l0,0l0,0c-0.1-0.2-3.2-1.3-4.3-0.7C312.3,706.1,312.6,698.5,317.3,699.7L317.3,699.7z M306.1,702.3
			c1.2,0,3.9,2,5.4,3.9c-1.8-0.1-3.6,0.2-5.1,1.1C306.3,706.9,303.7,702.9,306.1,702.3L306.1,702.3z M308.7,707.1
			c4-1,7.7-0.3,8.2,1.5s-2.5,4-6.5,5s-7.7,0.3-8.2-1.4S304.6,708.2,308.7,707.1L308.7,707.1z M298,700.9c0.9-0.7,7.4,4.5,7.4,6.7
			l0,0c-0.3,0.1-3.6,1.5-3.3,1.6C298.7,709.6,294.3,701.9,298,700.9L298,700.9z M289.9,714.2c-3.1-1.1-4.5-0.9-0.2-2.1
			c3.8-1.3,7.8-2.1,11.9-2.3c-0.4,0.7-0.7,1.5-0.7,2.4C297.1,712.8,292.9,715.3,289.9,714.2L289.9,714.2z M281.6,720.7
			c-1.3-1.9,15.3-7.2,18.8-8.2c1.3,0,1.2,0.2,2.5,1.5C299.4,714.2,285,725.9,281.6,720.7z M301.7,721.8c-0.2,1.5-13.8,4.1-9.8-1.5
			c2.7-2,8.7-5.7,11.1-6c0.5,0.1,1,0.4,1.3,0.8C303.7,717.6,302.3,719.8,301.7,721.8z M302.3,722.4c-0.1-0.3-0.1-0.6,0-0.9l2.5-6.6
			c0.6,0,0.7,0,1,0.4c0.3,2.4,1.3,4.7,2.8,6.6C309.6,723.7,303,725,302.3,722.4z M309.4,722c-1.2-0.4-4.9-7.3-2.8-7.1
			c1.4,0,2.7-0.1,4.1-0.4c1.1,0.3,7.4,3.8,7.4,5.9C315.9,722.4,311.7,723.1,309.4,722z M327,717c1.4,1-1.8,3.8-8.5,2.5
			c-2.8-2.9-4.3-3.3-7.1-5.2l4.2-2.2C319.4,713.4,324.4,715.3,327,717L327,717z M327.1,710.6c1.8,0.7,5.7,1.2,7.3,1.6
			c1.1,5.8-19,0.1-18.5-0.2c1.5-1.3,2.1-2.7,1.7-4.2c6.3,0,16.9-2.5,18.5-1.5C339.1,708.7,331.5,710.9,327.1,710.6L327.1,710.6z"/>
		<path id="Flor_relleno_17" class="st5" d="M328.6,675c-2.5-0.9-7.6,0.6-9.4,0c4.6-2.7,5.3-5.6,1.2-5.2v-1.2
			c-0.6-0.6-5,1.2-9.6,5.5c0-2.2,1.3-4.1-1-5.7c-2.9-1.1-5.8,2.3-5.5,6.6c-2.6-2.5-5.3-4.3-6.2-4c-2.4,1.4,0,3.7,0.1,5.6
			c0,0.3-1.4-3-4.3-5.1c-1.9-1.3-2.5-2-4.1-1.9c-3,1.2-1,7.2,3.4,8.9c-4.7,0.2-13.6,2.3-14.3,3.5c-0.4,0.9,1.1,1.1,4.3,2
			c-3.2,1.9-11.2,3.6-9.5,6.2c1.4,1.8,5.5,1.1,9.8-0.9c-2.6,5.5,7.9,3.3,10.5,2.3c0.8,2.5,7.3,2,7.3-0.4c5,1.7,8.4-0.7,9.5-2
			c10.7,0.5,11.8-3.2,5.2-5.5c6.5,0.5,11.1,1.2,11.1-2.7c-0.5-0.4-3.2-0.7-3.9-1.1C331.5,678.5,329,675.3,328.6,675z M297.8,675
			c0.2,0.4,0.3,0.7,0.4,0.9C298.1,675.8,298,675.5,297.8,675L297.8,675z"/>
		<path id="Flor_delineado_17" class="st7" d="M328.6,675c-2.5-0.9-7.6,0.6-9.4,0c4.6-2.7,5.3-5.6,1.2-5.2v-1.2
			c-0.6-0.6-5,1.2-9.6,5.5c0-2.2,1.3-4.1-1-5.7c-2.9-1.1-5.8,2.3-5.5,6.6c-2.6-2.5-5.3-4.3-6.2-4c-2.4,1.4,0,3.7,0.1,5.6
			c0,0.3-1.4-3-4.3-5.1c-1.9-1.3-2.5-2-4.1-1.9c-3,1.2-1,7.2,3.4,8.9c-4.7,0.2-13.6,2.3-14.3,3.5c-0.4,0.9,1.1,1.1,4.3,2
			c-3.2,1.9-11.2,3.6-9.5,6.2c1.4,1.8,5.5,1.1,9.8-0.9c-2.6,5.5,7.9,3.3,10.5,2.3c0.8,2.5,7.3,2,7.3-0.4c5,1.7,8.4-0.7,9.5-2
			c10.7,0.5,11.8-3.2,5.2-5.5c6.5,0.5,11.1,1.2,11.1-2.7c-0.5-0.4-3.2-0.7-3.9-1.1C331.5,678.5,329,675.3,328.6,675z M322.3,670.6
			c1.2,1.2-4,4.5-4.3,4.6c-2.6,0.8-5.2,1.2-7.9,1.3c0.4-0.2,0.7-0.5,1.1-0.8C315.2,673.1,321.1,668.7,322.3,670.6L322.3,670.6z
			 M319.9,668.8l-0.2,1.4c-4.4,1.6-5.2,3.4-10.4,6.2C309.7,675,316.4,669.3,319.9,668.8L319.9,668.8z M309.4,668.8
			c2.1,1.1,0.8,3.1,0.8,5.6c-0.1,0.1-1.1,1.5-1.3,1.6l0,0l0,0c-0.1-0.2-3.2-1.3-4.3-0.7C304.3,675.1,304.6,667.6,309.4,668.8
			L309.4,668.8z M298.1,671.4c1.2,0,3.9,2,5.4,3.9c-1.8-0.1-3.6,0.2-5.1,1.1C298.3,675.9,295.8,671.9,298.1,671.4L298.1,671.4z
			 M300.7,676.2c4.1-1,7.7-0.3,8.2,1.5s-2.4,4-6.5,5s-7.7,0.3-8.2-1.5S296.6,677.2,300.7,676.2L300.7,676.2z M290,670
			c0.9-0.7,7.4,4.5,7.4,6.7l0,0c-0.3,0.1-3.6,1.5-3.3,1.6C290.7,678.7,286.3,670.9,290,670L290,670z M281.9,683.3
			c-3.1-1.1-4.5-0.9-0.2-2.1c3.8-1.3,7.8-2.1,11.9-2.3c-0.4,0.7-0.7,1.5-0.7,2.4C289.1,681.8,284.9,684.3,281.9,683.3L281.9,683.3z
			 M273.6,689.8c-1.3-1.9,15.3-7.2,18.8-8.2c1.3,0,1.2,0.2,2.5,1.5C291.5,683.2,277,695,273.6,689.8z M293.7,690.9
			c-0.2,1.5-13.8,4.1-9.8-1.5c2.7-2,8.7-5.7,11.1-6c0.5,0.1,1,0.4,1.3,0.8C295.8,686.7,294.3,688.8,293.7,690.9L293.7,690.9z
			 M294.3,691.4c-0.1-0.3-0.1-0.6,0-0.9l2.5-6.6c0.6,0,0.7,0,1,0.4c0.3,2.4,1.3,4.7,2.8,6.6C301.6,692.7,295,694.1,294.3,691.4
			L294.3,691.4z M301.5,691.1c-1.2-0.4-4.9-7.3-2.8-7.1c1.4,0,2.7-0.1,4.1-0.4c1.1,0.3,7.4,3.8,7.4,5.9
			C307.9,691.4,303.7,692.2,301.5,691.1L301.5,691.1z M319,686.1c1.4,0.9-1.8,3.8-8.5,2.5c-2.8-2.9-4.3-3.3-7.1-5.2l4.2-2.2
			C311.5,682.5,316.4,684.3,319,686.1L319,686.1z M319.1,679.7c1.8,0.7,5.7,1.2,7.3,1.6c1.1,5.8-19,0.1-18.5-0.2
			c1.5-1.3,2.1-2.7,1.7-4.2c6.3,0,16.9-2.5,18.5-1.5C331.1,677.7,323.5,680,319.1,679.7L319.1,679.7z"/>
		<path id="Flor_relleno_16" class="st5" d="M377.2,643.5c-2.5-0.9-7.6,0.6-9.4,0c4.6-2.7,5.3-5.6,1.2-5.2v-1.2
			c-0.6-0.6-5,1.2-9.6,5.5c0-2.2,1.3-4.1-1-5.7c-2.9-1.1-5.8,2.3-5.5,6.6c-2.6-2.5-5.3-4.3-6.2-4c-2.4,1.4,0,3.7,0.1,5.6
			c0,0.3-1.4-3-4.3-5.1c-1.9-1.3-2.5-2-4.1-1.9c-3,1.2-1,7.2,3.3,8.9c-4.6,0.2-13.6,2.3-14.3,3.5c-0.4,0.9,1.1,1.1,4.3,2.1
			c-3.2,1.9-11.2,3.6-9.5,6.2c1.4,1.8,5.5,1.1,9.8-0.9c-2.6,5.5,7.9,3.3,10.5,2.3c0.8,2.5,7.3,2,7.3-0.4c5,1.7,8.4-0.7,9.5-2
			c10.7,0.5,11.8-3.2,5.3-5.5c6.5,0.5,11,1.2,11-2.7c-0.5-0.4-3.2-0.7-3.9-1.1C380.2,647,377.7,643.7,377.2,643.5z M346.5,643.5
			l0.4,0.9L346.5,643.5z"/>
		<path id="Flor_delineado_16" class="st7" d="M377.2,643.5c-2.5-0.9-7.6,0.6-9.4,0c4.6-2.7,5.3-5.6,1.2-5.2v-1.2
			c-0.6-0.6-5,1.2-9.6,5.5c0-2.2,1.3-4.1-1-5.7c-2.9-1.1-5.8,2.3-5.5,6.6c-2.6-2.5-5.3-4.3-6.2-4c-2.4,1.4,0,3.7,0.1,5.6
			c0,0.3-1.4-3-4.3-5.1c-1.9-1.3-2.5-2-4.1-1.9c-3,1.2-1,7.2,3.4,8.9c-4.7,0.2-13.6,2.3-14.3,3.5c-0.4,0.9,1.1,1.1,4.3,2.1
			c-3.2,1.9-11.2,3.6-9.5,6.2c1.4,1.8,5.5,1.1,9.8-0.9c-2.6,5.5,7.9,3.3,10.5,2.3c0.8,2.5,7.3,2,7.3-0.4c5,1.7,8.4-0.7,9.5-2
			c10.7,0.5,11.8-3.2,5.3-5.5c6.5,0.5,11,1.2,11-2.7c-0.5-0.4-3.2-0.7-3.9-1.1C380.2,647,377.7,643.7,377.2,643.5z M370.9,639
			c1.2,1.2-4,4.5-4.3,4.6c-2.6,0.8-5.2,1.2-7.9,1.3c0.4-0.2,0.7-0.5,1.1-0.7C363.8,641.5,369.8,637.1,370.9,639L370.9,639z
			 M368.6,637.2l-0.2,1.4c-4.4,1.6-5.2,3.3-10.4,6.1C358.3,643.5,365.1,637.7,368.6,637.2z M358,637.2c2.1,1.1,0.8,3.1,0.8,5.6
			c-0.1,0.1-1.1,1.5-1.3,1.6l0,0l0,0c-0.1-0.2-3.2-1.3-4.3-0.7C353,643.5,353.2,636,358,637.2L358,637.2z M346.8,639.8
			c1.2,0,3.9,2,5.4,3.9c-1.8-0.1-3.6,0.2-5.1,1.1C347,644.3,344.4,640.3,346.8,639.8L346.8,639.8z M349.3,644.7c4-1,7.7-0.3,8.2,1.5
			s-2.4,4-6.5,5s-7.7,0.3-8.2-1.4S345.3,645.6,349.3,644.7L349.3,644.7z M338.7,638.4c0.9-0.7,7.4,4.5,7.4,6.7l0,0
			c-0.3,0.1-3.6,1.5-3.3,1.6C339.4,647.1,335,639.4,338.7,638.4L338.7,638.4z M330.6,651.7c-3.1-1.1-4.5-0.9-0.2-2.1
			c3.8-1.3,7.9-2.1,11.9-2.3c-0.4,0.7-0.7,1.5-0.7,2.4C337.7,650.2,333.6,652.7,330.6,651.7z M322.3,658.2
			c-1.3-1.9,15.3-7.2,18.8-8.2c1.3,0,1.2,0.2,2.5,1.5C340.1,651.7,325.7,663.4,322.3,658.2L322.3,658.2z M342.4,659.3
			c-0.2,1.5-13.8,4.1-9.8-1.5c2.7-2,8.7-5.7,11.1-6c0.5,0.1,1,0.4,1.3,0.8C344.4,655.1,343,657.2,342.4,659.3L342.4,659.3z
			 M343,659.8c-0.1-0.3-0.1-0.6,0-0.9l2.5-6.6c0.6,0,0.7,0,1,0.4c0.3,2.4,1.3,4.7,2.8,6.6C350.2,661.1,343.7,662.5,343,659.8
			L343,659.8z M350.1,659.5c-1.2-0.4-4.9-7.3-2.8-7.1c1.4,0,2.7-0.1,4.1-0.4c1.1,0.3,7.4,3.8,7.4,5.9
			C356.6,659.8,352.4,660.6,350.1,659.5L350.1,659.5z M367.6,654.5c1.4,1-1.8,3.8-8.5,2.5c-2.8-2.9-4.3-3.3-7.1-5.2l4.2-2.2
			C360.1,650.9,365.1,652.7,367.6,654.5z M367.7,648.1c1.8,0.7,5.7,1.2,7.3,1.6c1.1,5.8-19,0.1-18.5-0.2c1.5-1.3,2.1-2.7,1.7-4.2
			c6.3,0,16.9-2.5,18.5-1.5C379.8,646.1,372.1,648.4,367.7,648.1L367.7,648.1z"/>
		<path id="Flor_relleno_15" class="st5" d="M285,649.3c-2.5-0.9-7.6,0.6-9.4,0c4.6-2.7,5.3-5.6,1.2-5.2v-1.2
			c-0.6-0.6-5,1.2-9.6,5.5c0-2.2,1.3-4.1-1-5.7c-2.9-1.1-5.8,2.3-5.5,6.6c-2.6-2.5-5.3-4.3-6.2-4c-2.4,1.4,0,3.7,0.1,5.6
			c0,0.3-1.4-3-4.3-5.1c-1.9-1.3-2.5-2-4.1-1.9c-3,1.2-0.9,7.2,3.4,8.9c-4.7,0.2-13.6,2.3-14.3,3.5c-0.4,0.9,1.1,1.1,4.3,2
			c-3.2,1.9-11.2,3.6-9.5,6.2c1.4,1.8,5.5,1.1,9.8-0.9c-2.6,5.5,7.9,3.3,10.5,2.3c0.8,2.5,7.3,2,7.3-0.4c5,1.7,8.3-0.7,9.5-2
			c10.7,0.5,11.8-3.2,5.2-5.5c6.5,0.5,11.1,1.2,11.1-2.7c-0.5-0.4-3.2-0.8-3.9-1.1C288,652.8,285.5,649.5,285,649.3z M254.3,649.3
			c0.2,0.4,0.3,0.7,0.4,0.9C254.6,650,254.5,649.7,254.3,649.3L254.3,649.3z"/>
		<path id="Flor_delineado_15" class="st7" d="M285,649.3c-2.5-0.9-7.6,0.6-9.4,0c4.6-2.7,5.2-5.6,1.2-5.2v-1.2
			c-0.6-0.6-5,1.2-9.6,5.5c0-2.2,1.3-4.1-1-5.7c-2.9-1.1-5.8,2.3-5.5,6.6c-2.6-2.5-5.3-4.3-6.2-4c-2.4,1.4,0,3.7,0.1,5.6
			c0,0.3-1.4-3-4.3-5.1c-1.9-1.3-2.5-2-4.1-1.9c-3,1.2-1,7.2,3.3,8.9c-4.7,0.2-13.6,2.3-14.3,3.5c-0.4,0.9,1.1,1.1,4.3,2
			c-3.2,1.9-11.2,3.6-9.5,6.2c1.4,1.8,5.5,1.1,9.8-0.9c-2.6,5.5,7.9,3.3,10.5,2.3c0.8,2.5,7.3,2,7.3-0.4c5,1.7,8.3-0.7,9.5-2
			c10.7,0.5,11.8-3.2,5.2-5.5c6.5,0.5,11.1,1.2,11.1-2.7c-0.5-0.4-3.2-0.8-3.9-1.1C288,652.8,285.5,649.5,285,649.3z M278.8,644.9
			c1.2,1.2-4,4.5-4.3,4.6c-2.6,0.8-5.2,1.2-7.9,1.3c0.4-0.2,0.7-0.5,1.1-0.7C271.6,647.3,277.6,642.9,278.8,644.9z M276.4,643
			l-0.2,1.4c-4.4,1.6-5.2,3.3-10.4,6.1C266.1,649.3,272.9,643.5,276.4,643z M265.8,643c2.1,1.1,0.8,3.1,0.8,5.6
			c-0.1,0.1-1.1,1.5-1.3,1.6l0,0c-0.1-0.2-3.2-1.3-4.3-0.7C260.8,649.4,261,641.8,265.8,643z M254.6,645.6c1.2,0,3.9,2,5.4,3.9
			c-1.8-0.1-3.6,0.2-5.1,1.1C254.8,650.1,252.2,646.1,254.6,645.6z M257.1,650.5c4.1-1,7.7-0.3,8.2,1.5s-2.4,4-6.5,5
			s-7.7,0.3-8.2-1.5S253.1,651.5,257.1,650.5L257.1,650.5z M246.5,644.2c0.9-0.7,7.4,4.5,7.4,6.7l0,0c-0.3,0.1-3.6,1.5-3.3,1.6
			C247.2,652.9,242.8,645.2,246.5,644.2L246.5,644.2z M238.4,657.5c-3.1-1.1-4.5-0.9-0.2-2.1c3.8-1.3,7.9-2.1,11.9-2.3
			c-0.4,0.7-0.7,1.5-0.7,2.4C245.6,656,241.4,658.5,238.4,657.5z M230.1,664c-1.3-1.9,15.2-7.2,18.8-8.2c1.3,0,1.2,0.2,2.5,1.5
			C247.9,657.5,233.5,669.2,230.1,664L230.1,664z M250.2,665.1c-0.2,1.5-13.8,4.1-9.8-1.5c2.7-2,8.7-5.7,11.1-6
			c0.5,0.1,1,0.4,1.3,0.8C252.2,660.9,250.8,663,250.2,665.1L250.2,665.1z M250.8,665.6c-0.1-0.3-0.1-0.6,0-0.9l2.5-6.6
			c0.6,0,0.7,0,1,0.4c0.3,2.4,1.3,4.7,2.8,6.6C258,666.9,251.5,668.3,250.8,665.6L250.8,665.6z M257.9,665.3
			c-1.2-0.4-4.9-7.3-2.8-7.1c1.4,0,2.7-0.1,4.1-0.4c1.1,0.3,7.4,3.8,7.4,5.9C264.4,665.7,260.2,666.4,257.9,665.3L257.9,665.3z
			 M275.4,660.3c1.4,1-1.8,3.8-8.5,2.5c-2.8-2.9-4.3-3.3-7.1-5.2l4.2-2.2C267.9,656.7,272.9,658.5,275.4,660.3L275.4,660.3z
			 M275.5,653.8c1.8,0.7,5.7,1.2,7.3,1.6c1.1,5.8-19,0.1-18.5-0.2c1.5-1.3,2.1-2.7,1.7-4.2c6.3,0,16.9-2.5,18.5-1.5
			C287.6,652,280,654.2,275.5,653.8L275.5,653.8z"/>
		<path id="Flor_relleno_14" class="st5" d="M328.5,619.5c-2.5-0.9-7.6,0.6-9.4,0c4.6-2.7,5.2-5.6,1.2-5.2v-1.2
			c-0.6-0.6-5,1.2-9.6,5.5c0-2.2,1.3-4.1-1-5.7c-2.9-1.1-5.8,2.3-5.5,6.6c-2.6-2.5-5.2-4.3-6.2-4c-2.4,1.4,0,3.7,0.1,5.6
			c0,0.3-1.4-3-4.3-5.1c-1.9-1.3-2.5-2.1-4.1-1.9c-3,1.2-1,7.2,3.3,8.9c-4.6,0.2-13.6,2.3-14.3,3.5c-0.4,0.9,1.1,1.1,4.3,2
			c-3.2,1.9-11.2,3.6-9.5,6.2c1.4,1.8,5.5,1.1,9.8-0.9c-2.6,5.5,7.9,3.3,10.5,2.3c0.8,2.5,7.3,2,7.3-0.4c5,1.7,8.4-0.7,9.5-2
			c10.7,0.5,11.8-3.2,5.3-5.5c6.5,0.5,11,1.2,11-2.7c-0.5-0.4-3.2-0.7-3.9-1.1C331.5,623.1,329,619.8,328.5,619.5z M297.8,619.6
			c0.2,0.4,0.3,0.7,0.4,0.9C298.1,620.3,297.9,620,297.8,619.6L297.8,619.6z"/>
		<path id="Flor_delineado_14" class="st7" d="M328.5,619.5c-2.5-0.9-7.6,0.6-9.4,0c4.6-2.7,5.2-5.6,1.2-5.2v-1.2
			c-0.6-0.6-5,1.2-9.6,5.5c0-2.2,1.3-4.1-1-5.7c-2.9-1.1-5.8,2.3-5.5,6.6c-2.6-2.5-5.2-4.3-6.2-4c-2.4,1.4,0,3.7,0.1,5.6
			c0,0.3-1.4-3-4.3-5.1c-1.9-1.3-2.5-2.1-4.1-1.9c-3,1.2-1,7.2,3.3,8.9c-4.6,0.2-13.6,2.3-14.3,3.5c-0.4,0.9,1.1,1.1,4.3,2
			c-3.2,1.9-11.2,3.6-9.5,6.2c1.4,1.8,5.5,1.1,9.8-0.9c-2.6,5.5,7.9,3.3,10.5,2.3c0.8,2.5,7.3,2,7.3-0.4c5,1.7,8.4-0.7,9.5-2
			c10.7,0.5,11.8-3.2,5.3-5.5c6.5,0.5,11,1.2,11-2.7c-0.5-0.4-3.2-0.7-3.9-1.1C331.5,623.1,329,619.8,328.5,619.5z M322.2,615.1
			c1.2,1.2-4,4.5-4.3,4.6c-2.6,0.8-5.2,1.2-7.9,1.3c0.4-0.2,0.7-0.5,1.1-0.7C315.1,617.6,321,613.2,322.2,615.1L322.2,615.1z
			 M319.9,613.3l-0.2,1.4c-4.4,1.6-5.3,3.3-10.4,6.1C309.6,619.5,316.4,613.8,319.9,613.3L319.9,613.3z M309.3,613.3
			c2.1,1.1,0.8,3.1,0.8,5.6c-0.1,0.1-1.1,1.5-1.3,1.6l0,0l0,0c-0.1-0.2-3.2-1.3-4.3-0.7C304.3,619.7,304.5,612.1,309.3,613.3
			L309.3,613.3z M298.1,615.9c1.2,0,3.9,2,5.4,3.9c-1.8-0.1-3.6,0.2-5.1,1.1C298.3,620.4,295.7,616.4,298.1,615.9L298.1,615.9z
			 M300.6,620.7c4-1,7.7-0.3,8.2,1.5s-2.4,4-6.5,5s-7.7,0.3-8.2-1.5S296.6,621.7,300.6,620.7L300.6,620.7z M290,614.5
			c0.8-0.7,7.4,4.5,7.4,6.7l0,0c-0.3,0.1-3.6,1.5-3.3,1.6C290.7,623.2,286.3,615.5,290,614.5z M281.9,627.9
			c-3.1-1.1-4.5-0.9-0.2-2.1c3.8-1.3,7.9-2.1,11.9-2.3c-0.4,0.7-0.7,1.5-0.7,2.4C289,626.3,284.8,628.8,281.9,627.9L281.9,627.9z
			 M273.6,634.3c-1.3-1.9,15.3-7.2,18.8-8.2c1.3,0,1.2,0.2,2.5,1.5C291.4,627.8,277,639.5,273.6,634.3z M293.7,635.4
			c-0.2,1.5-13.8,4.1-9.8-1.5c2.7-2,8.7-5.7,11.1-6c0.5,0.1,1,0.4,1.3,0.8C295.7,631.2,294.3,633.3,293.7,635.4L293.7,635.4z
			 M294.3,636c-0.1-0.3-0.1-0.6,0-0.9l2.5-6.6c0.6,0,0.7,0,1,0.4c0.3,2.4,1.2,4.7,2.8,6.6C301.5,637.2,295,638.6,294.3,636
			L294.3,636z M301.4,635.6c-1.2-0.4-4.9-7.3-2.8-7.1c1.4,0,2.7-0.1,4.1-0.4c1.1,0.3,7.4,3.8,7.4,5.9
			C307.8,636,303.7,636.7,301.4,635.6L301.4,635.6z M319,630.6c1.4,1-1.8,3.8-8.5,2.5c-2.8-2.9-4.3-3.3-7.1-5.2l4.2-2.2
			C311.4,627,316.4,628.8,319,630.6L319,630.6z M319.1,624.2c1.8,0.7,5.7,1.2,7.3,1.6c1.1,5.8-19,0.1-18.5-0.2
			c1.5-1.3,2.1-2.7,1.7-4.2c6.3,0,16.9-2.5,18.5-1.5C331,622.2,323.4,624.5,319.1,624.2L319.1,624.2z"/>
		<path id="Flor_relleno_13" class="st5" d="M256.6,620.6c-2.5-0.9-7.6,0.6-9.4,0c4.6-2.7,5.2-5.6,1.2-5.2v-1.2
			c-0.6-0.6-5,1.2-9.6,5.5c0-2.2,1.3-4.1-0.9-5.7c-2.9-1.1-5.8,2.3-5.5,6.6c-2.6-2.5-5.3-4.3-6.2-4c-2.4,1.4,0,3.7,0.1,5.6
			c0,0.3-1.4-3-4.3-5.1c-1.9-1.3-2.5-2-4.1-1.9c-3,1.2-1,7.2,3.3,8.9c-4.7,0.2-13.6,2.3-14.3,3.5c-0.4,0.9,1.1,1.1,4.3,2
			c-3.2,1.9-11.2,3.6-9.5,6.2c1.4,1.8,5.5,1.1,9.8-0.9c-2.6,5.5,7.9,3.3,10.5,2.3c0.8,2.5,7.3,2.1,7.3-0.4c5,1.7,8.4-0.7,9.5-2.1
			c10.7,0.5,11.8-3.2,5.2-5.5c6.5,0.5,11.1,1.2,11.1-2.7c-0.5-0.4-3.2-0.7-3.9-1.1C259.6,624.1,257,620.8,256.6,620.6z M225.8,620.7
			c0.2,0.4,0.3,0.7,0.4,0.9C226.2,621.3,226,621,225.8,620.7L225.8,620.7z"/>
		<path id="Flor_delineado_13" class="st7" d="M256.6,620.6c-2.5-0.9-7.6,0.6-9.4,0c4.6-2.7,5.2-5.6,1.2-5.2v-1.2
			c-0.6-0.6-5,1.2-9.6,5.5c0-2.2,1.3-4.1-0.9-5.7c-2.9-1.1-5.8,2.3-5.5,6.6c-2.6-2.5-5.3-4.3-6.2-4c-2.4,1.4,0,3.7,0.1,5.6
			c0,0.3-1.4-3-4.3-5.1c-1.9-1.3-2.5-2-4.1-1.9c-3,1.2-1,7.2,3.3,8.9c-4.7,0.2-13.6,2.3-14.3,3.5c-0.4,0.9,1.1,1.1,4.3,2
			c-3.2,1.9-11.2,3.6-9.5,6.2c1.4,1.8,5.5,1.1,9.8-0.9c-2.6,5.5,7.9,3.3,10.5,2.3c0.8,2.5,7.3,2.1,7.3-0.4c5,1.7,8.4-0.7,9.5-2.1
			c10.7,0.5,11.8-3.2,5.2-5.5c6.5,0.5,11.1,1.2,11.1-2.7c-0.5-0.4-3.2-0.7-3.9-1.1C259.6,624.1,257,620.8,256.6,620.6z M250.3,616.2
			c1.2,1.2-4,4.5-4.3,4.6c-2.6,0.8-5.2,1.2-7.9,1.3c0.4-0.2,0.7-0.5,1.1-0.7C243.2,618.6,249.1,614.2,250.3,616.2L250.3,616.2z
			 M247.9,614.3l-0.2,1.4c-4.4,1.6-5.2,3.3-10.4,6.1C237.7,620.6,244.5,614.9,247.9,614.3L247.9,614.3z M237.3,614.3
			c2.1,1.1,0.8,3.1,0.8,5.6c-0.1,0.1-1.1,1.5-1.3,1.6l0,0l0,0c-0.1-0.2-3.2-1.3-4.3-0.7C232.3,620.7,232.6,613.2,237.3,614.3
			L237.3,614.3z M226.1,616.9c1.2,0,3.9,2,5.4,3.9c-1.8-0.1-3.6,0.2-5.1,1.1C226.4,621.5,223.8,617.5,226.1,616.9L226.1,616.9z
			 M228.7,621.8c4.1-1,7.7-0.3,8.2,1.4s-2.4,4-6.5,5s-7.7,0.3-8.2-1.4S224.6,622.8,228.7,621.8L228.7,621.8z M218,615.5
			c0.9-0.7,7.4,4.5,7.4,6.7l0,0c-0.3,0.1-3.6,1.5-3.3,1.6C218.8,624.3,214.4,616.5,218,615.5z M209.9,628.9
			c-3.1-1.1-4.5-0.9-0.2-2.1c3.8-1.3,7.8-2.1,11.9-2.3c-0.4,0.7-0.7,1.5-0.7,2.4C217.1,627.4,212.9,629.9,209.9,628.9L209.9,628.9z
			 M201.6,635.4c-1.3-1.9,15.2-7.2,18.8-8.2c1.3,0,1.2,0.2,2.5,1.5C219.5,628.8,205.1,640.5,201.6,635.4z M221.7,636.4
			c-0.2,1.5-13.8,4.1-9.8-1.5c2.7-2,8.7-5.7,11.1-6c0.5,0.1,1,0.4,1.3,0.8C223.8,632.2,222.3,634.4,221.7,636.4L221.7,636.4z
			 M222.3,637c-0.1-0.3-0.1-0.6,0-0.9l2.5-6.6c0.6,0,0.7,0,0.9,0.4c0.3,2.4,1.3,4.7,2.8,6.6C229.6,638.3,223.1,639.7,222.3,637
			L222.3,637z M229.4,636.7c-1.2-0.4-4.9-7.3-2.8-7.1c1.4,0,2.7-0.1,4.1-0.4c1.1,0.3,7.4,3.8,7.4,5.9
			C235.9,637,231.7,637.7,229.4,636.7L229.4,636.7z M246.9,631.7c1.4,1-1.8,3.8-8.4,2.5c-2.8-2.9-4.3-3.3-7.1-5.2l4.2-2.1
			C239.5,628,244.5,629.9,246.9,631.7L246.9,631.7z M247.1,625.2c1.8,0.7,5.7,1.2,7.3,1.6c1.1,5.8-18.9,0.1-18.5-0.2
			c1.6-1.3,2.1-2.7,1.7-4.2c6.3,0,16.9-2.5,18.5-1.5C259.1,623.3,251.5,625.5,247.1,625.2L247.1,625.2z"/>
		<path id="Flor_relleno_12" class="st5" d="M372.5,589.3c-2.5-0.9-7.6,0.6-9.4,0c4.6-2.7,5.3-5.6,1.2-5.2v-1.2
			c-0.6-0.6-5,1.2-9.6,5.5c0-2.2,1.3-4.1-1-5.7c-2.9-1.1-5.8,2.3-5.5,6.6c-2.6-2.5-5.3-4.3-6.2-4c-2.4,1.4,0,3.7,0.1,5.6
			c0,0.3-1.4-3-4.3-5.1c-1.9-1.3-2.5-2-4.1-1.9c-3,1.2-1,7.2,3.4,8.9c-4.7,0.2-13.6,2.3-14.3,3.5c-0.4,0.9,1.1,1.1,4.3,2
			c-3.2,1.9-11.2,3.6-9.5,6.2c1.4,1.8,5.5,1.1,9.8-0.9c-2.6,5.5,7.9,3.3,10.5,2.3c0.8,2.5,7.3,2,7.3-0.4c5,1.7,8.4-0.7,9.5-2
			c10.7,0.5,11.8-3.2,5.2-5.5c6.5,0.5,11.1,1.2,11.1-2.7c-0.5-0.4-3.2-0.8-3.9-1.1C375.4,592.8,372.9,589.5,372.5,589.3z
			 M341.7,589.3c0.2,0.4,0.3,0.7,0.4,0.9C342,590,341.9,589.7,341.7,589.3z"/>
		<path id="Flor_delineado_12" class="st7" d="M372.5,589.3c-2.5-0.9-7.6,0.6-9.4,0c4.6-2.7,5.3-5.6,1.2-5.2v-1.2
			c-0.6-0.6-5,1.2-9.6,5.5c0-2.2,1.3-4.1-1-5.7c-2.9-1.1-5.8,2.3-5.5,6.6c-2.6-2.5-5.3-4.3-6.2-4c-2.4,1.4,0,3.7,0.1,5.6
			c0,0.3-1.4-3-4.3-5.1c-1.9-1.3-2.5-2-4.1-1.9c-3,1.2-1,7.2,3.4,8.9c-4.7,0.2-13.6,2.3-14.3,3.5c-0.4,0.9,1.1,1.1,4.3,2
			c-3.2,1.9-11.2,3.5-9.5,6.2c1.4,1.8,5.5,1.1,9.8-0.9c-2.6,5.5,7.9,3.3,10.5,2.3c0.8,2.5,7.3,2,7.3-0.4c5,1.7,8.4-0.7,9.5-2
			c10.7,0.5,11.8-3.2,5.2-5.5c6.5,0.5,11.1,1.2,11.1-2.7c-0.5-0.4-3.2-0.7-3.9-1.1C375.4,592.8,372.9,589.5,372.5,589.3z
			 M366.2,584.9c1.2,1.2-4,4.5-4.3,4.6c-2.6,0.8-5.2,1.2-7.9,1.3c0.4-0.2,0.7-0.5,1.1-0.7C359.1,587.3,365,582.9,366.2,584.9
			L366.2,584.9z M363.8,583l-0.2,1.4c-4.4,1.6-5.2,3.3-10.4,6.1C353.6,589.3,360.3,583.5,363.8,583L363.8,583z M353.2,583
			c2.1,1.1,0.8,3.1,0.8,5.6c-0.1,0.1-1.1,1.5-1.3,1.6l0,0l0,0c-0.1-0.2-3.2-1.3-4.3-0.7C348.2,589.4,348.4,581.8,353.2,583
			L353.2,583z M342,585.6c1.2,0,3.9,2,5.4,3.9c-1.8-0.1-3.6,0.2-5.1,1.1C342.3,590.1,339.7,586.1,342,585.6L342,585.6z M344.6,590.5
			c4-1,7.7-0.3,8.2,1.4s-2.4,4-6.5,5s-7.7,0.3-8.2-1.4S340.6,591.5,344.6,590.5z M333.9,584.3c0.9-0.7,7.4,4.5,7.4,6.7l0,0
			c-0.3,0.1-3.6,1.5-3.3,1.6C334.6,592.9,330.3,585.2,333.9,584.3L333.9,584.3z M325.8,597.5c-3.1-1.1-4.5-0.9-0.2-2.1
			c3.8-1.3,7.9-2.1,11.9-2.3c-0.4,0.7-0.7,1.5-0.7,2.4C333,596.1,328.8,598.5,325.8,597.5z M317.5,604c-1.3-1.9,15.3-7.2,18.8-8.2
			c1.3,0,1.2,0.2,2.5,1.5C335.4,597.5,320.9,609.2,317.5,604L317.5,604z M337.6,605.1c-0.2,1.5-13.8,4.1-9.8-1.5
			c2.8-2.1,8.8-5.7,11.1-6.1c0.5,0.1,1,0.4,1.3,0.8C339.7,600.9,338.2,603.1,337.6,605.1z M338.2,605.7c-0.1-0.3-0.1-0.6,0-0.9
			l2.5-6.6c0.6,0,0.7,0,1,0.4c0.3,2.4,1.3,4.7,2.8,6.6C345.5,606.9,338.9,608.3,338.2,605.7L338.2,605.7z M345.3,605.3
			c-1.2-0.4-4.9-7.3-2.8-7.1c1.4,0,2.7-0.1,4.1-0.4c1.1,0.3,7.4,3.8,7.4,5.9C351.8,605.7,347.6,606.4,345.3,605.3L345.3,605.3z
			 M362.8,600.3c1.4,1-1.8,3.8-8.5,2.5c-2.8-2.9-4.3-3.3-7.1-5.2l4.2-2.2C355.4,596.7,360.3,598.5,362.8,600.3L362.8,600.3z
			 M362.9,593.9c1.8,0.7,5.7,1.2,7.3,1.6c1.1,5.8-19,0.1-18.5-0.2c1.5-1.3,2.1-2.7,1.7-4.2c6.3,0,16.9-2.5,18.5-1.5
			C375,592,367.4,594.2,362.9,593.9L362.9,593.9z"/>
		<path id="Flor_relleno_11" class="st5" d="M293,590.3c-2.5-0.9-7.6,0.6-9.4,0c4.6-2.7,5.3-5.6,1.2-5.2v-1.2
			c-0.6-0.6-5,1.2-9.6,5.5c0-2.2,1.3-4.1-1-5.7c-2.9-1.1-5.8,2.3-5.5,6.6c-2.6-2.5-5.2-4.3-6.2-4c-2.4,1.4,0,3.7,0.1,5.6
			c0,0.3-1.4-3-4.3-5.1c-1.9-1.3-2.5-2-4.1-1.9c-3,1.2-0.9,7.2,3.3,8.9c-4.7,0.2-13.6,2.3-14.3,3.5c-0.4,0.9,1.1,1.1,4.3,2.1
			c-3.2,1.9-11.2,3.6-9.5,6.2c1.4,1.8,5.5,1.1,9.8-0.9c-2.6,5.5,7.9,3.3,10.5,2.3c0.8,2.5,7.3,2,7.3-0.4c5,1.7,8.4-0.7,9.5-2
			c10.7,0.5,11.8-3.2,5.3-5.5c6.5,0.5,11,1.2,11-2.7c-0.5-0.4-3.2-0.7-3.9-1.1C296,593.9,293.5,590.5,293,590.3z M262.3,590.4
			l0.4,0.9L262.3,590.4z"/>
		<path id="Flor_delineado_11" class="st7" d="M293,590.3c-2.5-0.9-7.6,0.6-9.4,0c4.6-2.7,5.3-5.6,1.2-5.2v-1.2
			c-0.6-0.6-5,1.2-9.6,5.5c0-2.2,1.3-4.1-1-5.7c-2.9-1.1-5.8,2.3-5.5,6.6c-2.6-2.5-5.2-4.3-6.2-4c-2.4,1.4,0,3.7,0.1,5.6
			c0,0.3-1.4-3-4.3-5.1c-1.9-1.3-2.5-2.1-4.1-1.9c-3,1.2-0.9,7.2,3.3,8.9c-4.7,0.2-13.6,2.3-14.3,3.5c-0.4,0.9,1.1,1.1,4.3,2
			c-3.2,1.9-11.2,3.6-9.5,6.2c1.4,1.8,5.5,1.1,9.8-0.9c-2.6,5.5,7.9,3.3,10.5,2.3c0.8,2.5,7.3,2,7.3-0.4c5,1.7,8.4-0.7,9.5-2
			c10.7,0.5,11.8-3.2,5.3-5.5c6.5,0.5,11,1.2,11-2.7c-0.5-0.4-3.2-0.7-3.9-1.1C296,593.9,293.5,590.5,293,590.3z M286.8,585.9
			c1.2,1.2-4,4.5-4.3,4.6c-2.6,0.8-5.2,1.2-7.9,1.3c0.4-0.2,0.7-0.5,1.1-0.7C279.6,588.4,285.6,583.9,286.8,585.9L286.8,585.9z
			 M284.4,584.1l-0.2,1.4c-4.4,1.6-5.3,3.3-10.4,6.1C274.1,590.3,280.9,584.6,284.4,584.1L284.4,584.1z M273.8,584.1
			c2.1,1.1,0.8,3.1,0.8,5.6c-0.1,0.1-1.1,1.5-1.3,1.6l0,0l0,0c-0.1-0.2-3.2-1.3-4.3-0.7C268.8,590.4,269,582.9,273.8,584.1
			L273.8,584.1z M262.6,586.6c1.2,0,3.9,2,5.4,3.9c-1.8-0.1-3.6,0.2-5.1,1.1C262.8,591.2,260.2,587.2,262.6,586.6z M265.1,591.5
			c4-1,7.7-0.3,8.2,1.4s-2.4,4-6.5,5s-7.7,0.3-8.2-1.4S261.1,592.5,265.1,591.5L265.1,591.5z M254.5,585.2c0.9-0.7,7.4,4.5,7.4,6.7
			l0,0c-0.3,0.1-3.6,1.5-3.3,1.6C255.2,594,250.8,586.2,254.5,585.2L254.5,585.2z M246.4,598.6c-3.1-1.1-4.5-0.9-0.2-2.1
			c3.8-1.3,7.8-2.1,11.9-2.3c-0.4,0.7-0.7,1.5-0.7,2.4C253.6,597.1,249.4,599.5,246.4,598.6L246.4,598.6z M238,605.1
			c-1.3-1.9,15.3-7.2,18.8-8.2c1.3,0,1.2,0.2,2.5,1.5C255.9,598.5,241.6,610.2,238,605.1L238,605.1z M258.2,606.1
			c-0.2,1.5-13.8,4.1-9.8-1.5c2.7-2,8.7-5.7,11.1-6c0.5,0.1,1,0.4,1.3,0.8C260.2,602,258.8,604.1,258.2,606.1L258.2,606.1z
			 M258.8,606.7c-0.1-0.3-0.1-0.6,0-0.9l2.5-6.6c0.6,0,0.7,0,1,0.4c0.3,2.4,1.3,4.7,2.8,6.6C266,608,259.5,609.4,258.8,606.7
			L258.8,606.7z M265.9,606.4c-1.2-0.4-4.9-7.3-2.8-7.1c1.4,0,2.7-0.1,4.1-0.4c1.1,0.3,7.4,3.8,7.4,5.9
			C272.4,606.7,268.2,607.4,265.9,606.4L265.9,606.4z M283.4,601.4c1.4,1-1.8,3.8-8.5,2.5c-2.8-2.9-4.3-3.3-7.1-5.2l4.2-2.2
			C275.9,597.7,280.9,599.5,283.4,601.4L283.4,601.4z M283.5,594.9c1.8,0.7,5.7,1.2,7.3,1.6c1.1,5.8-19,0.1-18.5-0.2
			c1.5-1.3,2.1-2.7,1.7-4.2c6.3,0,16.9-2.5,18.5-1.5C295.6,593,288,595.3,283.5,594.9L283.5,594.9z"/>
		<path id="Flor_relleno_10" class="st5" d="M346.9,560.5c-2.5-0.9-7.6,0.6-9.4,0c4.6-2.7,5.2-5.6,1.2-5.2v-1.2
			c-0.6-0.6-5,1.2-9.6,5.5c0-2.2,1.3-4.1-1-5.7c-2.9-1.1-5.8,2.3-5.5,6.6c-2.6-2.5-5.2-4.3-6.2-4c-2.4,1.4,0,3.7,0.1,5.6
			c0,0.3-1.4-3-4.3-5.1c-1.9-1.3-2.5-2-4.1-1.9c-3,1.2-1,7.2,3.3,8.9c-4.6,0.2-13.6,2.3-14.3,3.5c-0.4,0.9,1.1,1.1,4.3,2
			c-3.2,1.9-11.2,3.6-9.5,6.2c1.4,1.8,5.5,1.1,9.8-0.9c-2.6,5.5,7.9,3.3,10.5,2.3c0.8,2.5,7.3,2,7.3-0.4c5,1.7,8.4-0.7,9.5-2
			c10.7,0.5,11.8-3.2,5.2-5.5c6.5,0.5,11.1,1.2,11.1-2.7c-0.5-0.4-3.2-0.7-3.9-1.1C349.8,564,347.3,560.7,346.9,560.5z M316.1,560.5
			c0.2,0.4,0.3,0.7,0.4,0.9C316.5,561.3,316.3,560.9,316.1,560.5z"/>
		<path id="Flor_delineado_10" class="st7" d="M346.9,560.5c-2.5-0.9-7.6,0.6-9.4,0c4.6-2.7,5.2-5.6,1.2-5.2v-1.2
			c-0.6-0.6-5,1.2-9.6,5.5c0-2.2,1.3-4.1-1-5.7c-2.9-1.1-5.8,2.3-5.5,6.6c-2.6-2.5-5.3-4.3-6.2-4c-2.4,1.4,0,3.7,0.1,5.6
			c0,0.3-1.4-3-4.3-5.1c-1.9-1.3-2.5-2-4.1-1.9c-3,1.2-1,7.2,3.3,8.9c-4.7,0.2-13.6,2.3-14.3,3.5c-0.4,0.9,1.1,1.1,4.3,2
			c-3.2,1.9-11.2,3.6-9.5,6.2c1.4,1.8,5.5,1.1,9.8-0.9c-2.6,5.5,7.9,3.3,10.5,2.3c0.8,2.5,7.3,2,7.3-0.4c5,1.7,8.4-0.7,9.5-2
			c10.7,0.5,11.8-3.2,5.2-5.5c6.5,0.5,11.1,1.2,11.1-2.7c-0.5-0.4-3.2-0.7-3.9-1.1C349.8,564,347.3,560.7,346.9,560.5z M340.6,556.1
			c1.2,1.2-4,4.5-4.3,4.6c-2.6,0.8-5.2,1.2-7.9,1.3c0.4-0.2,0.7-0.5,1.1-0.8C333.5,558.5,339.4,554.1,340.6,556.1z M338.2,554.3
			l-0.2,1.4c-4.4,1.6-5.2,3.4-10.4,6.2C328,560.5,334.8,554.8,338.2,554.3L338.2,554.3z M327.6,554.3c2.1,1.1,0.8,3.1,0.8,5.6
			c-0.1,0.1-1.1,1.5-1.3,1.6l0,0l0,0c-0.1-0.2-3.2-1.3-4.3-0.7C322.6,560.6,322.9,553.1,327.6,554.3L327.6,554.3z M316.4,556.8
			c1.2,0,3.9,2.1,5.4,3.9c-1.8-0.1-3.6,0.2-5.1,1.1C316.7,561.4,314.1,557.4,316.4,556.8L316.4,556.8z M319,561.7
			c4.1-1,7.7-0.3,8.2,1.5s-2.4,4-6.5,5s-7.7,0.3-8.2-1.5S314.9,562.7,319,561.7L319,561.7z M308.3,555.4c0.9-0.7,7.4,4.5,7.4,6.7
			l0,0c-0.3,0.1-3.6,1.5-3.3,1.6C309.1,564.2,304.7,556.4,308.3,555.4L308.3,555.4z M300.2,568.8c-3.1-1.1-4.5-0.9-0.2-2.1
			c3.8-1.3,7.9-2.1,11.9-2.3c-0.4,0.7-0.7,1.5-0.7,2.4C307.4,567.3,303.2,569.8,300.2,568.8L300.2,568.8z M291.9,575.3
			c-1.3-1.9,15.2-7.2,18.8-8.2c1.3,0,1.2,0.2,2.5,1.5C309.8,568.7,295.4,580.4,291.9,575.3L291.9,575.3z M312,576.3
			c-0.2,1.5-13.8,4.1-9.8-1.5c2.7-2,8.7-5.7,11.1-6c0.5,0.1,1,0.4,1.3,0.8C314.1,572.1,312.6,574.3,312,576.3L312,576.3z
			 M312.6,576.9c-0.1-0.3-0.1-0.6,0-0.9l2.5-6.6c0.6,0,0.7,0,1,0.4c0.3,2.4,1.3,4.7,2.8,6.6C319.9,578.2,313.4,579.5,312.6,576.9
			L312.6,576.9z M319.8,576.6c-1.2-0.4-4.9-7.3-2.8-7.1c1.4,0,2.7-0.1,4.1-0.4c1.1,0.3,7.4,3.8,7.4,5.9
			C326.2,576.9,322,577.6,319.8,576.6L319.8,576.6z M337.3,571.6c1.4,1-1.8,3.8-8.5,2.5c-2.8-2.9-4.3-3.3-7.1-5.2l4.2-2.2
			C329.8,567.9,334.8,569.8,337.3,571.6L337.3,571.6z M337.4,565.1c1.8,0.7,5.7,1.2,7.3,1.6c1.1,5.8-19,0.1-18.5-0.2
			c1.5-1.3,2.1-2.7,1.7-4.2c6.3,0,16.9-2.5,18.5-1.5C349.4,563.2,341.8,565.5,337.4,565.1L337.4,565.1z"/>
		<path id="Flor_relleno_09" class="st5" d="M266.9,562.7c-2.5-0.9-7.6,0.6-9.4,0c4.6-2.7,5.2-5.6,1.2-5.2v-1.2
			c-0.6-0.6-5,1.2-9.6,5.5c0-2.2,1.3-4.1-0.9-5.7c-2.9-1.1-5.8,2.3-5.5,6.6c-2.6-2.5-5.2-4.3-6.2-4c-2.4,1.4,0,3.7,0.1,5.6
			c0,0.3-1.4-3-4.3-5.1c-1.9-1.3-2.5-2-4.1-1.9c-3,1.2-1,7.2,3.3,8.9c-4.6,0.2-13.6,2.3-14.3,3.5c-0.4,0.9,1.1,1.1,4.3,2
			c-3.2,1.9-11.2,3.6-9.5,6.2c1.4,1.8,5.5,1.1,9.8-0.9c-2.6,5.5,7.9,3.3,10.5,2.3c0.8,2.5,7.3,2.1,7.3-0.4c5,1.7,8.4-0.7,9.5-2.1
			c10.7,0.5,11.8-3.2,5.2-5.5c6.5,0.5,11.1,1.2,11.1-2.7c-0.5-0.4-3.2-0.7-3.9-1.1C269.8,566.3,267.3,562.9,266.9,562.7z
			 M236.1,562.8c0.2,0.4,0.3,0.7,0.4,0.9C236.5,563.5,236.3,563.2,236.1,562.8L236.1,562.8z"/>
		<path id="Flor_delineado_09" class="st7" d="M266.9,562.7c-2.5-0.9-7.6,0.6-9.4,0c4.6-2.7,5.2-5.6,1.2-5.2v-1.2
			c-0.6-0.6-5,1.2-9.6,5.5c0-2.2,1.3-4.1-0.9-5.7c-2.9-1.1-5.8,2.3-5.5,6.6c-2.6-2.5-5.2-4.3-6.2-4c-2.4,1.4,0,3.7,0.1,5.6
			c0,0.3-1.4-3-4.3-5.1c-1.9-1.3-2.5-2-4.1-1.9c-3,1.2-1,7.2,3.3,8.9c-4.6,0.2-13.6,2.3-14.3,3.5c-0.4,0.9,1.1,1.1,4.3,2
			c-3.2,1.9-11.2,3.6-9.5,6.2c1.4,1.8,5.5,1.1,9.8-0.9c-2.6,5.5,7.9,3.3,10.5,2.3c0.8,2.5,7.3,2.1,7.3-0.4c5,1.7,8.4-0.7,9.5-2.1
			c10.7,0.5,11.8-3.2,5.2-5.5c6.5,0.5,11.1,1.2,11.1-2.7c-0.5-0.4-3.2-0.7-3.9-1.1C269.8,566.3,267.3,562.9,266.9,562.7z
			 M260.6,558.3c1.2,1.2-4,4.5-4.3,4.6c-2.6,0.8-5.2,1.2-7.9,1.3c0.4-0.2,0.7-0.5,1.1-0.7C253.5,560.8,259.4,556.4,260.6,558.3z
			 M258.3,556.5l-0.2,1.4c-4.4,1.6-5.2,3.3-10.4,6.1C248,562.7,254.8,557,258.3,556.5z M247.6,556.5c2.1,1.1,0.8,3.1,0.8,5.6
			c-0.1,0.1-1.1,1.5-1.3,1.6l0,0l0,0c-0.1-0.2-3.2-1.3-4.3-0.7C242.6,562.8,242.9,555.3,247.6,556.5L247.6,556.5z M236.4,559.1
			c1.2,0,3.9,2.1,5.4,3.9c-1.8-0.1-3.6,0.2-5.1,1.1C236.7,563.6,234.1,559.6,236.4,559.1L236.4,559.1z M239,564
			c4.1-1,7.7-0.3,8.2,1.5s-2.4,4-6.5,5s-7.7,0.3-8.2-1.5S234.9,564.9,239,564L239,564z M228.3,557.7c0.9-0.7,7.4,4.5,7.4,6.7l0,0
			c-0.3,0.1-3.6,1.5-3.3,1.6C229.1,566.4,224.7,558.6,228.3,557.7L228.3,557.7z M220.2,571.1c-3.1-1.1-4.5-0.9-0.2-2.1
			c3.8-1.3,7.8-2.1,11.9-2.3c-0.4,0.7-0.7,1.5-0.7,2.4C227.4,569.5,223.2,572,220.2,571.1L220.2,571.1z M211.9,577.5
			c-1.3-1.9,15.2-7.2,18.8-8.2c1.3,0,1.2,0.2,2.5,1.5C229.8,570.9,215.4,582.7,211.9,577.5z M232,578.5c-0.2,1.5-13.8,4.1-9.8-1.5
			c2.7-2,8.7-5.7,11.1-6c0.5,0.1,1,0.4,1.3,0.8C234.1,574.4,232.6,576.5,232,578.5z M232.6,579.1c-0.1-0.3-0.1-0.6,0-0.9l2.5-6.6
			c0.6,0,0.7,0,0.9,0.4c0.3,2.4,1.3,4.7,2.8,6.6C239.9,580.4,233.4,581.8,232.6,579.1L232.6,579.1z M239.8,578.8
			c-1.2-0.4-4.9-7.3-2.8-7.1c1.4,0,2.7-0.1,4.1-0.4c1.1,0.3,7.4,3.8,7.4,5.9C246.2,579.1,242,579.9,239.8,578.8L239.8,578.8z
			 M257.3,573.8c1.4,1-1.8,3.8-8.5,2.5c-2.8-2.9-4.3-3.3-7.1-5.2l4.2-2.2C249.8,570.2,254.8,572,257.3,573.8L257.3,573.8z
			 M257.4,567.3c1.8,0.7,5.7,1.2,7.3,1.6c1.1,5.8-18.9,0.1-18.5-0.2c1.6-1.3,2.1-2.7,1.7-4.2c6.3,0,16.9-2.5,18.5-1.5
			C269.4,565.4,261.8,567.7,257.4,567.3L257.4,567.3z"/>
		<path id="Flor_relleno_08" class="st5" d="M374,525.8c-2.5-0.9-7.6,0.6-9.4,0c4.6-2.7,5.2-5.6,1.2-5.2v-1.2
			c-0.6-0.6-5,1.2-9.6,5.5c0-2.2,1.3-4.1-1-5.7c-2.9-1.1-5.8,2.3-5.5,6.6c-2.6-2.5-5.2-4.3-6.2-4c-2.4,1.4,0,3.7,0.1,5.6
			c0,0.3-1.4-3-4.3-5.1c-1.9-1.3-2.5-2-4.1-1.9c-3,1.2-1,7.2,3.3,8.9c-4.6,0.2-13.6,2.3-14.3,3.5c-0.4,0.9,1.1,1.1,4.3,2
			c-3.2,1.9-11.2,3.6-9.5,6.2c1.4,1.8,5.5,1.1,9.8-0.9c-2.6,5.5,7.9,3.3,10.5,2.3c0.8,2.5,7.3,2,7.3-0.4c5,1.7,8.4-0.7,9.5-2
			c10.7,0.5,11.8-3.2,5.2-5.5c6.5,0.5,11.1,1.2,11.1-2.7c-0.5-0.4-3.2-0.7-3.9-1.1C377,529.3,374.5,526,374,525.8z M343.3,525.9
			c0.2,0.4,0.3,0.7,0.4,0.9C343.6,526.5,343.4,526.2,343.3,525.9z"/>
		<path id="Flor_delineado_08" class="st7" d="M374,525.8c-2.5-0.9-7.6,0.6-9.4,0c4.6-2.7,5.2-5.6,1.2-5.2v-1.2
			c-0.6-0.6-5,1.2-9.6,5.5c0-2.2,1.3-4.1-1-5.7c-2.9-1.1-5.8,2.3-5.5,6.6c-2.6-2.5-5.2-4.3-6.2-4c-2.4,1.4,0,3.7,0.1,5.6
			c0,0.3-1.4-3-4.3-5.1c-1.9-1.3-2.5-2-4.1-1.9c-3,1.2-1,7.2,3.3,8.9c-4.6,0.2-13.6,2.3-14.3,3.5c-0.4,0.9,1.1,1.1,4.3,2
			c-3.2,1.9-11.2,3.6-9.5,6.2c1.4,1.8,5.5,1.1,9.8-0.9c-2.6,5.5,7.9,3.3,10.5,2.3c0.8,2.5,7.3,2,7.3-0.4c5,1.7,8.4-0.7,9.5-2
			c10.7,0.5,11.8-3.2,5.2-5.5c6.5,0.5,11.1,1.2,11.1-2.7c-0.5-0.4-3.2-0.7-3.9-1.1C377,529.3,374.5,526,374,525.8z M367.7,521.4
			c1.2,1.2-4,4.5-4.3,4.6c-2.6,0.8-5.2,1.2-7.9,1.3c0.4-0.2,0.7-0.5,1.1-0.8C360.6,523.9,366.6,519.4,367.7,521.4L367.7,521.4z
			 M365.4,519.5l-0.2,1.4c-4.4,1.6-5.2,3.3-10.4,6.2C355.1,525.8,361.9,520.1,365.4,519.5z M354.8,519.5c2.1,1.1,0.8,3.1,0.8,5.6
			c-0.1,0.1-1.1,1.5-1.3,1.6l0,0l0,0c-0.1-0.2-3.2-1.3-4.3-0.7C349.8,525.9,350,518.4,354.8,519.5L354.8,519.5z M343.6,522.1
			c1.2,0,3.9,2,5.4,3.9c-1.8-0.1-3.6,0.2-5.1,1.1C343.8,526.7,341.2,522.7,343.6,522.1z M346.1,527c4.1-1,7.7-0.3,8.2,1.5
			s-2.4,4-6.5,5s-7.7,0.3-8.2-1.4S342.1,528,346.1,527L346.1,527z M335.5,520.7c0.9-0.7,7.4,4.5,7.4,6.7l0,0
			c-0.3,0.1-3.6,1.5-3.3,1.6C336.2,529.5,331.8,521.7,335.5,520.7L335.5,520.7z M327.4,534.1c-3.1-1.1-4.5-0.9-0.2-2.1
			c3.8-1.3,7.8-2.1,11.9-2.3c-0.4,0.7-0.7,1.5-0.7,2.4C334.5,532.6,330.4,535.1,327.4,534.1L327.4,534.1z M319,540.5
			c-1.3-1.9,15.2-7.2,18.8-8.2c1.3,0,1.2,0.2,2.5,1.5C336.9,534,322.5,545.7,319,540.5z M339.2,541.6c-0.2,1.5-13.8,4.1-9.8-1.5
			c2.7-2,8.7-5.7,11.1-6c0.5,0.1,1,0.4,1.3,0.8C341.2,537.4,339.8,539.6,339.2,541.6L339.2,541.6z M339.8,542.2
			c-0.1-0.3-0.1-0.6,0-0.9l2.5-6.6c0.6,0,0.7,0,1,0.4c0.3,2.4,1.3,4.7,2.8,6.6C347,543.5,340.5,544.9,339.8,542.2L339.8,542.2z
			 M346.9,541.8c-1.2-0.4-4.9-7.3-2.8-7.1c1.4,0,2.7-0.1,4.1-0.4c1.1,0.3,7.4,3.8,7.4,5.9C353.3,542.2,349.2,542.9,346.9,541.8
			L346.9,541.8z M364.4,536.8c1.4,1-1.8,3.8-8.5,2.5c-2.8-2.9-4.3-3.3-7.1-5.2l4.2-2.2C356.9,533.2,361.9,535.1,364.4,536.8
			L364.4,536.8z M364.5,530.4c1.8,0.7,5.7,1.2,7.3,1.6c1.1,5.8-18.9,0.1-18.5-0.2c1.5-1.3,2.1-2.7,1.7-4.2c6.3,0,16.9-2.5,18.5-1.5
			C376.6,528.5,368.9,530.8,364.5,530.4L364.5,530.4z"/>
		<path id="Flor_relleno_07" class="st5" d="M299.1,526.8c-2.5-0.9-7.6,0.6-9.4,0c4.6-2.7,5.2-5.6,1.2-5.2v-1.2
			c-0.6-0.6-5,1.2-9.6,5.5c0-2.2,1.3-4.1-1-5.7c-2.9-1.1-5.8,2.3-5.5,6.6c-2.6-2.5-5.2-4.3-6.2-4c-2.4,1.4,0,3.7,0.1,5.6
			c0,0.3-1.4-3-4.3-5.1c-1.9-1.3-2.5-2-4.1-1.9c-3,1.2-1,7.2,3.3,8.9c-4.6,0.2-13.6,2.3-14.3,3.5c-0.4,0.9,1.1,1.1,4.3,2.1
			c-3.2,1.9-11.2,3.6-9.5,6.2c1.4,1.8,5.5,1.1,9.8-0.9c-2.6,5.5,7.9,3.3,10.5,2.3c0.8,2.5,7.3,2,7.3-0.4c5,1.7,8.4-0.7,9.5-2
			c10.7,0.5,11.8-3.2,5.2-5.5c6.5,0.5,11.1,1.2,11.1-2.7c-0.5-0.4-3.2-0.7-3.9-1.1C302,530.4,299.6,527.1,299.1,526.8z M268.4,526.9
			c0.2,0.4,0.3,0.7,0.4,0.9C268.7,527.6,268.5,527.3,268.4,526.9z"/>
		<path id="Flor_delineado_07" class="st7" d="M299.1,526.8c-2.5-0.9-7.6,0.6-9.4,0c4.6-2.7,5.2-5.6,1.2-5.2v-1.2
			c-0.6-0.6-5,1.2-9.6,5.5c0-2.2,1.3-4.1-1-5.7c-2.9-1.1-5.8,2.3-5.5,6.6c-2.6-2.5-5.2-4.3-6.2-4c-2.4,1.4,0,3.7,0.1,5.6
			c0,0.3-1.4-3-4.3-5.1c-1.9-1.3-2.5-2-4.1-1.9c-3,1.2-1,7.2,3.3,8.9c-4.6,0.2-13.6,2.3-14.3,3.5c-0.4,0.9,1.1,1.1,4.3,2.1
			c-3.2,1.9-11.2,3.6-9.5,6.2c1.4,1.8,5.5,1.1,9.8-0.9c-2.6,5.5,7.9,3.3,10.5,2.3c0.8,2.5,7.3,2,7.3-0.4c5,1.7,8.4-0.7,9.5-2
			c10.7,0.5,11.8-3.2,5.2-5.5c6.5,0.5,11.1,1.2,11.1-2.7c-0.5-0.4-3.2-0.7-3.9-1.1C302,530.4,299.6,527.1,299.1,526.8z M292.8,522.4
			c1.2,1.2-4,4.5-4.3,4.6c-2.6,0.8-5.2,1.2-7.9,1.3c0.4-0.2,0.7-0.5,1.1-0.8C285.7,524.9,291.6,520.5,292.8,522.4z M290.5,520.6
			l-0.2,1.4c-4.4,1.6-5.2,3.3-10.4,6.2C280.2,526.8,287,521.1,290.5,520.6z M279.9,520.6c2.1,1.1,0.8,3.1,0.8,5.6
			c-0.1,0.1-1.1,1.5-1.3,1.6l0,0l0,0c-0.1-0.2-3.2-1.3-4.3-0.7C274.8,526.9,275.1,519.4,279.9,520.6z M268.6,523.2
			c1.2,0,3.9,2,5.4,3.9c-1.8-0.1-3.6,0.2-5.1,1.1C268.9,527.7,266.3,523.7,268.6,523.2z M271.2,528c4.1-1,7.7-0.3,8.2,1.5
			s-2.4,4-6.5,5s-7.7,0.3-8.2-1.4S267.2,529,271.2,528z M260.6,521.8c0.9-0.7,7.4,4.5,7.4,6.7l0,0c-0.3,0.1-3.6,1.5-3.3,1.6
			C261.3,530.5,256.9,522.7,260.6,521.8z M252.5,535.1c-3.1-1.1-4.5-0.9-0.2-2.1c3.8-1.3,7.8-2.1,11.9-2.3c-0.4,0.7-0.7,1.5-0.7,2.4
			C259.6,533.6,255.4,536.1,252.5,535.1L252.5,535.1z M244.2,541.6c-1.3-1.9,15.2-7.2,18.8-8.2c1.3,0,1.2,0.2,2.5,1.5
			C262,535,247.6,546.8,244.2,541.6L244.2,541.6z M264.3,542.7c-0.2,1.5-13.8,4.1-9.8-1.5c2.7-2,8.7-5.7,11.1-6
			c0.5,0.1,1,0.4,1.3,0.8C266.3,538.5,264.8,540.6,264.3,542.7L264.3,542.7z M264.9,543.2c-0.1-0.3-0.1-0.6,0-0.9l2.5-6.6
			c0.6,0,0.7,0,1,0.4c0.3,2.4,1.3,4.7,2.8,6.6C272.1,544.5,265.6,545.9,264.9,543.2L264.9,543.2z M272,542.9
			c-1.2-0.4-4.9-7.3-2.8-7.1c1.4,0,2.7-0.1,4.1-0.4c1.1,0.3,7.4,3.8,7.4,5.9C278.4,543.2,274.3,544,272,542.9L272,542.9z
			 M289.5,537.9c1.4,1-1.8,3.8-8.5,2.5c-2.8-2.9-4.3-3.3-7.1-5.2l4.2-2.2C282,534.3,287,536.1,289.5,537.9L289.5,537.9z
			 M289.6,531.4c1.8,0.7,5.7,1.2,7.3,1.6c1.1,5.8-18.9,0.1-18.5-0.2c1.5-1.3,2.1-2.7,1.7-4.2c6.3,0,16.9-2.5,18.5-1.5
			C301.6,529.5,294,531.8,289.6,531.4L289.6,531.4z"/>
		<path id="Flor_relleno_06" class="st5" d="M352.4,495.5c-2.5-0.9-7.6,0.6-9.4,0c4.6-2.7,5.3-5.6,1.2-5.2v-1.2
			c-0.6-0.6-5,1.2-9.6,5.5c0-2.2,1.3-4.1-1-5.7c-2.9-1.1-5.8,2.3-5.5,6.6c-2.6-2.5-5.2-4.3-6.2-4c-2.4,1.4,0,3.7,0.1,5.6
			c0,0.3-1.4-3-4.3-5.1c-1.9-1.3-2.5-2-4.1-1.9c-3,1.2-1,7.2,3.3,8.9c-4.6,0.2-13.6,2.3-14.3,3.5c-0.4,0.9,1.1,1.1,4.3,2
			c-3.2,1.9-11.2,3.6-9.5,6.2c1.4,1.8,5.5,1.1,9.8-0.9c-2.6,5.5,7.9,3.4,10.5,2.3c0.8,2.5,7.3,2.1,7.3-0.4c5,1.7,8.4-0.7,9.5-2
			c10.7,0.5,11.8-3.2,5.3-5.5c6.5,0.5,11,1.2,11-2.7c-0.5-0.4-3.2-0.8-3.9-1.1C355.4,499.1,352.9,495.7,352.4,495.5z M321.7,495.6
			l0.4,0.9L321.7,495.6z"/>
		<path id="Flor_delineado_06" class="st7" d="M352.4,495.5c-2.5-0.9-7.6,0.6-9.4,0c4.6-2.7,5.3-5.6,1.2-5.2v-1.2
			c-0.6-0.6-5,1.2-9.6,5.5c0-2.2,1.3-4.1-1-5.7c-2.9-1.1-5.8,2.3-5.5,6.6c-2.6-2.5-5.3-4.3-6.2-4c-2.4,1.4,0,3.7,0.1,5.6
			c0,0.3-1.4-3-4.3-5.1c-1.9-1.3-2.5-2-4.1-1.9c-3,1.2-1,7.2,3.3,8.9c-4.6,0.2-13.6,2.3-14.3,3.5c-0.4,0.9,1.1,1.1,4.3,2
			c-3.2,1.9-11.2,3.6-9.5,6.2c1.4,1.8,5.5,1.1,9.8-0.9c-2.6,5.5,7.9,3.4,10.5,2.3c0.8,2.5,7.3,2.1,7.3-0.4c5,1.7,8.4-0.7,9.5-2
			c10.7,0.5,11.8-3.2,5.3-5.5c6.5,0.5,11,1.2,11-2.7c-0.5-0.4-3.2-0.8-3.9-1.1C355.4,499.1,352.9,495.7,352.4,495.5z M346.2,491.1
			c1.2,1.2-4,4.5-4.3,4.6c-2.6,0.8-5.2,1.2-7.9,1.3c0.4-0.2,0.7-0.5,1.1-0.7C339,493.6,345,489.2,346.2,491.1L346.2,491.1z
			 M343.8,489.3l-0.2,1.4c-4.4,1.6-5.3,3.4-10.4,6.1C333.6,495.5,340.3,489.8,343.8,489.3L343.8,489.3z M333.2,489.3
			c2.1,1.1,0.8,3.1,0.8,5.6c-0.1,0.1-1.1,1.5-1.3,1.6l0,0l0,0c-0.1-0.2-3.2-1.3-4.3-0.7C328.2,495.6,328.4,488.1,333.2,489.3
			L333.2,489.3z M322,491.9c1.2,0,3.9,2,5.4,3.9c-1.8-0.1-3.6,0.2-5.1,1.1C322.2,496.4,319.6,492.4,322,491.9L322,491.9z
			 M324.6,496.7c4-1,7.7-0.3,8.2,1.5s-2.5,4-6.5,5s-7.7,0.3-8.2-1.5S320.5,497.7,324.6,496.7z M313.9,490.5c0.9-0.6,7.4,4.5,7.4,6.7
			l0,0c-0.3,0.1-3.6,1.5-3.3,1.6C314.6,499.2,310.2,491.4,313.9,490.5L313.9,490.5z M305.8,503.8c-3.1-1.1-4.5-0.9-0.2-2.1
			c3.8-1.3,7.8-2.1,11.9-2.3c-0.4,0.7-0.7,1.5-0.7,2.4C312.9,502.3,308.8,504.8,305.8,503.8L305.8,503.8z M297.5,510.3
			c-1.3-1.9,15.3-7.2,18.8-8.2c1.3,0,1.2,0.2,2.5,1.5C315.3,503.7,300.9,515.5,297.5,510.3L297.5,510.3z M317.6,511.4
			c-0.2,1.5-13.8,4.1-9.8-1.5c2.7-2,8.7-5.7,11.1-6c0.5,0.1,1,0.4,1.3,0.8C319.6,507.2,318.2,509.3,317.6,511.4z M318.2,511.9
			c-0.1-0.3-0.1-0.6,0-0.9l2.5-6.6c0.6,0,0.7,0,1,0.4c0.3,2.4,1.3,4.7,2.8,6.6C325.4,513.2,318.9,514.6,318.2,511.9L318.2,511.9z
			 M325.3,511.6c-1.2-0.5-4.9-7.3-2.8-7.1c1.4,0,2.7-0.1,4.1-0.4c1.1,0.3,7.4,3.8,7.4,5.9C331.8,511.9,327.6,512.7,325.3,511.6
			L325.3,511.6z M342.8,506.6c1.4,1-1.8,3.8-8.5,2.5c-2.8-2.9-4.3-3.3-7.1-5.2l4.2-2.2C335.3,503,340.3,504.8,342.8,506.6
			L342.8,506.6z M342.9,500.1c1.8,0.6,5.7,1.2,7.3,1.6c1.1,5.8-19,0.1-18.5-0.2c1.5-1.3,2.1-2.7,1.7-4.2c6.3,0,16.9-2.5,18.5-1.5
			C355,498.2,347.4,500.5,342.9,500.1L342.9,500.1z"/>
		<path id="Flor_relleno_05" class="st5" d="M272.4,497.8c-2.5-0.9-7.6,0.6-9.4,0c4.6-2.7,5.3-5.6,1.2-5.2v-1.2
			c-0.6-0.6-5,1.2-9.6,5.5c0-2.2,1.3-4.1-1-5.7c-2.9-1.1-5.8,2.3-5.5,6.6c-2.6-2.5-5.3-4.3-6.2-4c-2.4,1.4,0,3.7,0.1,5.6
			c0,0.3-1.4-3-4.3-5.1c-1.9-1.3-2.5-2-4.1-1.9c-3,1.2-0.9,7.2,3.4,8.9c-4.7,0.2-13.6,2.3-14.3,3.5c-0.4,0.9,1.1,1.1,4.3,2
			c-3.2,1.9-11.2,3.6-9.5,6.2c1.4,1.8,5.5,1.1,9.8-0.9c-2.6,5.5,7.9,3.3,10.5,2.3c0.8,2.5,7.3,2,7.3-0.4c5,1.7,8.4-0.7,9.5-2
			c10.7,0.5,11.8-3.2,5.2-5.5c6.5,0.5,11.1,1.2,11.1-2.7c-0.5-0.4-3.2-0.7-3.9-1.1C275.4,501.3,272.9,498,272.4,497.8z M241.7,497.8
			c0.2,0.4,0.3,0.7,0.4,0.9C242,498.5,241.9,498.2,241.7,497.8L241.7,497.8z"/>
		<path id="Flor_delineado_05" class="st7" d="M272.4,497.8c-2.5-0.9-7.6,0.6-9.4,0c4.6-2.7,5.3-5.6,1.2-5.2v-1.2
			c-0.6-0.6-5,1.2-9.6,5.5c0-2.2,1.3-4.1-1-5.7c-2.9-1.1-5.8,2.3-5.5,6.6c-2.6-2.5-5.3-4.3-6.2-4c-2.4,1.4,0,3.7,0.1,5.6
			c0,0.3-1.4-3-4.3-5.1c-1.9-1.3-2.5-2-4.1-1.9c-3,1.2-0.9,7.2,3.4,8.9c-4.7,0.2-13.6,2.3-14.3,3.5c-0.4,0.9,1.1,1.1,4.3,2
			c-3.2,1.9-11.2,3.6-9.5,6.2c1.4,1.8,5.5,1.1,9.8-0.9c-2.6,5.5,7.9,3.3,10.5,2.3c0.8,2.5,7.3,2,7.3-0.4c5,1.7,8.4-0.7,9.5-2
			c10.7,0.5,11.8-3.2,5.2-5.5c6.5,0.5,11.1,1.2,11.1-2.7c-0.5-0.5-3.2-0.8-3.9-1.1C275.4,501.3,272.9,498,272.4,497.8z M266.2,493.3
			c1.2,1.2-4,4.5-4.3,4.6c-2.6,0.8-5.2,1.2-7.9,1.3c0.4-0.2,0.7-0.5,1.1-0.8C259,495.8,265,491.4,266.2,493.3L266.2,493.3z
			 M263.8,491.5l-0.2,1.4c-4.4,1.6-5.2,3.4-10.4,6.1C253.6,497.8,260.3,492,263.8,491.5z M253.2,491.5c2.1,1.1,0.8,3.1,0.8,5.6
			c-0.1,0.1-1.1,1.5-1.3,1.6l0,0c-0.1-0.2-3.2-1.3-4.3-0.7C248.2,497.9,248.4,490.3,253.2,491.5z M242,494.1c1.2,0,3.9,2,5.4,3.9
			c-1.8-0.1-3.6,0.2-5.1,1.1C242.2,498.6,239.6,494.6,242,494.1L242,494.1z M244.5,499c4.1-1,7.7-0.3,8.2,1.5s-2.4,4-6.5,5
			s-7.7,0.3-8.2-1.5S240.5,499.9,244.5,499L244.5,499z M233.9,492.7c0.9-0.6,7.4,4.5,7.4,6.7l0,0c-0.3,0.1-3.6,1.5-3.3,1.6
			C234.6,501.4,230.2,493.7,233.9,492.7L233.9,492.7z M225.8,506.1c-3.1-1.1-4.5-0.9-0.2-2.1c3.8-1.3,7.9-2.1,11.9-2.3
			c-0.4,0.7-0.7,1.5-0.7,2.4C232.9,504.5,228.8,507,225.8,506.1L225.8,506.1z M217.5,512.5c-1.3-1.9,15.3-7.2,18.8-8.2
			c1.3,0,1.2,0.2,2.5,1.5C235.3,506,220.9,517.7,217.5,512.5z M237.6,513.6c-0.2,1.5-13.8,4.1-9.8-1.5c2.7-2,8.7-5.7,11.1-6
			c0.5,0.1,1,0.4,1.3,0.8C239.6,509.4,238.2,511.5,237.6,513.6z M238.2,514.1c-0.1-0.3-0.1-0.6,0-0.9l2.5-6.6c0.6,0,0.7,0,1,0.5
			c0.3,2.4,1.3,4.7,2.8,6.6C245.4,515.4,238.9,516.8,238.2,514.1L238.2,514.1z M245.3,513.8c-1.2-0.4-4.9-7.3-2.8-7.1
			c1.4,0,2.7-0.1,4.1-0.4c1.1,0.3,7.4,3.8,7.4,5.9C251.8,514.1,247.6,514.9,245.3,513.8L245.3,513.8z M262.8,508.9
			c1.4,1-1.8,3.8-8.5,2.5c-2.8-2.9-4.3-3.3-7.1-5.2l4.2-2.2C255.3,505.2,260.3,507,262.8,508.9L262.8,508.9z M262.9,502.4
			c1.8,0.6,5.7,1.2,7.3,1.6c1.1,5.8-18.9,0.1-18.5-0.2c1.5-1.3,2.1-2.7,1.7-4.2c6.3,0,16.9-2.5,18.5-1.5
			C275,500.4,267.4,502.7,262.9,502.4L262.9,502.4z"/>
		<path id="Flor_relleno_04" class="st5" d="M375.6,463.3c-2.5-0.9-7.6,0.6-9.4,0c4.6-2.7,5.3-5.6,1.2-5.2V457
			c-0.6-0.6-5,1.2-9.6,5.5c0-2.2,1.3-4.1-1-5.7c-2.9-1.1-5.8,2.3-5.5,6.6c-2.6-2.5-5.2-4.3-6.2-4c-2.4,1.4,0,3.7,0.1,5.6
			c0,0.3-1.4-3-4.3-5.1c-1.9-1.3-2.5-2-4.1-1.9c-3,1.2-1,7.2,3.3,8.9c-4.6,0.2-13.6,2.3-14.3,3.5c-0.4,0.9,1.1,1.1,4.3,2
			c-3.2,1.9-11.2,3.6-9.5,6.2c1.4,1.8,5.5,1.1,9.8-0.9c-2.6,5.5,7.9,3.4,10.5,2.3c0.8,2.5,7.3,2,7.3-0.4c5,1.7,8.4-0.6,9.5-2
			c10.7,0.5,11.8-3.2,5.3-5.5c6.5,0.5,11,1.2,11-2.7c-0.5-0.4-3.2-0.7-3.9-1.1C378.6,466.9,376,463.5,375.6,463.3z M344.8,463.4
			c0.2,0.4,0.3,0.7,0.4,0.9C345.1,464.1,345,463.8,344.8,463.4L344.8,463.4z"/>
		<path id="Flor_delineado_04" class="st7" d="M375.6,463.3c-2.5-0.9-7.6,0.6-9.4,0c4.6-2.7,5.3-5.6,1.2-5.2V457
			c-0.6-0.6-5,1.2-9.6,5.5c0-2.2,1.3-4.1-1-5.7c-2.9-1.1-5.8,2.3-5.5,6.6c-2.6-2.5-5.2-4.3-6.2-4c-2.4,1.4,0,3.7,0.1,5.6
			c0,0.3-1.4-3-4.3-5.1c-1.9-1.3-2.5-2-4.1-1.9c-3,1.2-1,7.2,3.3,8.9c-4.6,0.2-13.6,2.3-14.3,3.5c-0.4,0.9,1.1,1.1,4.3,2
			c-3.2,1.9-11.2,3.6-9.5,6.2c1.4,1.8,5.5,1.1,9.8-0.9c-2.6,5.5,7.9,3.4,10.5,2.3c0.8,2.5,7.3,2,7.3-0.4c5,1.7,8.4-0.6,9.5-2
			c10.7,0.5,11.8-3.2,5.3-5.5c6.5,0.5,11,1.2,11-2.7c-0.5-0.4-3.2-0.7-3.9-1.1C378.6,466.9,376,463.5,375.6,463.3z M369.3,458.9
			c1.2,1.2-4,4.5-4.3,4.6c-2.6,0.8-5.2,1.2-7.9,1.3c0.4-0.2,0.7-0.5,1.1-0.8C362.2,461.4,368.1,457,369.3,458.9L369.3,458.9z
			 M366.9,457.1l-0.2,1.4c-4.4,1.6-5.3,3.4-10.4,6.1C356.7,463.3,363.5,457.6,366.9,457.1L366.9,457.1z M356.4,457.1
			c2.1,1.1,0.8,3.1,0.8,5.6c-0.1,0.1-1.1,1.5-1.3,1.6l0,0l0,0c-0.1-0.1-3.2-1.3-4.3-0.7C351.3,463.4,351.6,455.9,356.4,457.1
			L356.4,457.1z M345.1,459.7c1.2,0,3.9,2,5.4,3.9c-1.8-0.1-3.6,0.2-5.1,1.1C345.4,464.2,342.8,460.2,345.1,459.7L345.1,459.7z
			 M347.7,464.5c4-1,7.7-0.3,8.2,1.5s-2.4,4-6.5,5s-7.7,0.3-8.2-1.5S343.6,465.5,347.7,464.5L347.7,464.5z M337,458.3
			c0.9-0.7,7.4,4.5,7.4,6.7l0,0c-0.3,0.1-3.6,1.5-3.3,1.6C337.8,467,333.3,459.2,337,458.3L337,458.3z M328.9,471.6
			c-3.1-1.1-4.5-0.9-0.2-2.1c3.8-1.3,7.8-2.1,11.9-2.3c-0.4,0.7-0.7,1.5-0.7,2.4C336.1,470.1,331.9,472.6,328.9,471.6L328.9,471.6z
			 M320.6,478.1c-1.3-1.9,15.3-7.2,18.8-8.2c1.3,0,1.2,0.2,2.5,1.5C338.5,471.5,324,483.2,320.6,478.1z M340.7,479.2
			c-0.2,1.5-13.8,4.1-9.8-1.5c2.7-2,8.7-5.7,11.1-6c0.5,0.1,1,0.4,1.3,0.8C342.8,475,341.3,477.1,340.7,479.2L340.7,479.2z
			 M341.3,479.7c-0.1-0.3-0.1-0.6,0-0.9l2.5-6.6c0.6,0,0.7,0,1,0.4c0.3,2.4,1.3,4.7,2.8,6.6C348.6,481,342,482.4,341.3,479.7
			L341.3,479.7z M348.4,479.4c-1.2-0.4-4.9-7.3-2.8-7.1c1.4,0,2.7-0.1,4.1-0.4c1.1,0.3,7.4,3.8,7.4,5.9
			C354.9,479.7,350.7,480.5,348.4,479.4L348.4,479.4z M366,474.4c1.4,1-1.8,3.8-8.5,2.5c-2.8-2.9-4.3-3.3-7.1-5.2l4.2-2.1
			C358.5,470.8,363.5,472.6,366,474.4L366,474.4z M366.1,467.9c1.8,0.6,5.7,1.2,7.3,1.6c1.1,5.8-19,0.1-18.5-0.2
			c1.5-1.3,2.1-2.7,1.7-4.2c6.3,0,16.9-2.5,18.5-1.5C378.1,466,370.5,468.3,366.1,467.9L366.1,467.9z"/>
		<path id="Flor_relleno_03" class="st5" d="M304.1,464.4c-2.5-0.9-7.6,0.6-9.4,0c4.6-2.7,5.2-5.6,1.2-5.2V458
			c-0.6-0.6-5,1.2-9.6,5.5c0-2.2,1.3-4.1-1-5.7c-2.9-1.1-5.8,2.3-5.5,6.6c-2.6-2.5-5.3-4.3-6.2-4c-2.4,1.4,0,3.7,0.1,5.6
			c0,0.3-1.4-3-4.3-5.1c-1.9-1.3-2.5-2-4.1-1.9c-3,1.2-1,7.2,3.3,8.9c-4.7,0.2-13.6,2.3-14.3,3.5c-0.4,0.9,1.1,1.1,4.3,2
			c-3.2,1.9-11.2,3.6-9.5,6.2c1.4,1.8,5.5,1.1,9.8-0.9c-2.6,5.5,7.9,3.4,10.5,2.3c0.8,2.5,7.3,2,7.3-0.4c5,1.7,8.4-0.6,9.5-2
			c10.7,0.5,11.8-3.2,5.2-5.5c6.5,0.5,11.1,1.2,11.1-2.7c-0.5-0.4-3.2-0.7-3.9-1.1C307.1,467.9,304.6,464.5,304.1,464.4z
			 M273.4,464.4c0.2,0.4,0.3,0.7,0.4,0.9C273.7,465.1,273.6,464.8,273.4,464.4L273.4,464.4z"/>
		<path id="Flor_delineado_03" class="st7" d="M304.1,464.4c-2.5-0.9-7.6,0.6-9.4,0c4.6-2.7,5.3-5.6,1.2-5.2V458
			c-0.6-0.6-5,1.2-9.6,5.5c0-2.2,1.3-4.1-1-5.7c-2.9-1.1-5.8,2.3-5.5,6.6c-2.6-2.5-5.3-4.3-6.2-4c-2.4,1.4,0,3.7,0.1,5.6
			c0,0.3-1.4-3-4.3-5.1c-1.9-1.3-2.5-2-4.1-1.9c-3,1.2-1,7.2,3.4,8.9c-4.7,0.2-13.6,2.3-14.3,3.5c-0.4,0.9,1.1,1.1,4.3,2
			c-3.2,1.9-11.2,3.6-9.5,6.2c1.4,1.8,5.5,1.1,9.8-0.9c-2.6,5.5,7.9,3.4,10.5,2.3c0.8,2.5,7.3,2,7.3-0.4c5,1.7,8.4-0.6,9.5-2
			c10.7,0.5,11.8-3.2,5.2-5.5c6.5,0.5,11.1,1.2,11.1-2.7c-0.5-0.4-3.2-0.7-3.9-1.1C307.1,467.9,304.6,464.5,304.1,464.4z
			 M297.9,459.9c1.2,1.2-4,4.5-4.3,4.6c-2.6,0.8-5.2,1.2-7.9,1.3c0.4-0.2,0.7-0.5,1.1-0.8C290.8,462.4,296.7,458,297.9,459.9
			L297.9,459.9z M295.5,458.1l-0.2,1.4c-4.4,1.6-5.2,3.4-10.4,6.1C285.3,464.4,292,458.6,295.5,458.1L295.5,458.1z M284.9,458.1
			c2.1,1.1,0.8,3.1,0.8,5.6c-0.1,0.1-1.1,1.5-1.3,1.6l0,0l0,0c-0.1-0.1-3.2-1.3-4.3-0.7C279.9,464.5,280.1,456.9,284.9,458.1
			L284.9,458.1z M273.7,460.7c1.2,0,3.9,2,5.4,3.9c-1.8-0.1-3.6,0.2-5.1,1.1C273.9,465.2,271.3,461.2,273.7,460.7L273.7,460.7z
			 M276.3,465.6c4.1-1,7.7-0.3,8.2,1.5s-2.4,4-6.5,5s-7.7,0.3-8.2-1.5S272.2,466.5,276.3,465.6L276.3,465.6z M265.6,459.3
			c0.9-0.7,7.4,4.5,7.4,6.7l0,0c-0.3,0.1-3.6,1.5-3.3,1.6C266.3,468,261.9,460.3,265.6,459.3z M257.5,472.6
			c-3.1-1.1-4.5-0.9-0.2-2.1c3.8-1.3,7.9-2.1,11.9-2.3c-0.4,0.7-0.7,1.5-0.7,2.4C264.6,471.1,260.5,473.6,257.5,472.6L257.5,472.6z
			 M249.1,479.1c-1.3-1.9,15.3-7.2,18.8-8.2c1.3,0,1.2,0.2,2.5,1.5C267,472.5,252.6,484.3,249.1,479.1L249.1,479.1z M269.3,480.2
			c-0.2,1.5-13.8,4.1-9.8-1.5c2.7-2,8.7-5.7,11.1-6c0.5,0.1,1,0.4,1.3,0.8C271.3,476,269.9,478.1,269.3,480.2L269.3,480.2z
			 M269.9,480.7c-0.1-0.3-0.1-0.6,0-0.9l2.5-6.6c0.6,0,0.7,0,1,0.4c0.3,2.4,1.3,4.7,2.8,6.6C277.1,482,270.6,483.4,269.9,480.7
			L269.9,480.7z M277,480.4c-1.2-0.4-4.9-7.3-2.8-7.1c1.4,0,2.7-0.1,4.1-0.4c1.1,0.3,7.4,3.8,7.4,5.9
			C283.5,480.7,279.3,481.5,277,480.4L277,480.4z M294.6,475.5c1.4,1-1.8,3.8-8.5,2.5c-2.8-2.9-4.3-3.3-7.1-5.2l4.2-2.2
			C287,471.8,292,473.6,294.6,475.5z M294.7,469c1.8,0.6,5.7,1.2,7.3,1.6c1.1,5.8-19,0.1-18.5-0.2c1.5-1.3,2.1-2.7,1.7-4.2
			c6.3,0,16.9-2.5,18.5-1.5C306.7,467,299.1,469.3,294.7,469L294.7,469z"/>
		<path id="Flor_relleno_02" class="st5" d="M354,434.5c-2.5-0.9-7.6,0.6-9.4,0c4.6-2.7,5.3-5.6,1.2-5.2v-1.2
			c-0.6-0.6-5,1.2-9.6,5.5c0-2.2,1.3-4.1-1-5.7c-2.9-1.1-5.8,2.3-5.5,6.6c-2.6-2.5-5.3-4.3-6.2-4c-2.4,1.4,0,3.7,0.1,5.6
			c0,0.3-1.4-3-4.3-5.1c-1.9-1.3-2.5-2-4.1-1.9c-3,1.2-1,7.2,3.4,8.9c-4.7,0.2-13.6,2.3-14.3,3.5c-0.4,0.9,1.1,1.1,4.3,2
			c-3.2,1.9-11.2,3.6-9.5,6.2c1.4,1.8,5.5,1.1,9.8-0.9c-2.6,5.5,7.9,3.4,10.5,2.3c0.8,2.5,7.3,2,7.3-0.5c5,1.7,8.4-0.6,9.5-2
			c10.7,0.5,11.8-3.2,5.2-5.5c6.5,0.5,11.1,1.2,11.1-2.7c-0.5-0.4-3.2-0.8-3.9-1.1C356.9,438.1,354.4,434.8,354,434.5z M323.2,434.6
			c0.2,0.4,0.3,0.7,0.4,0.9C323.6,435.3,323.4,435,323.2,434.6L323.2,434.6z"/>
		<path id="Flor_delineado_02" class="st7" d="M354,434.5c-2.5-0.9-7.6,0.6-9.4,0c4.6-2.7,5.2-5.6,1.2-5.2v-1.2
			c-0.6-0.6-5,1.2-9.6,5.5c0-2.2,1.3-4.1-1-5.7c-2.9-1.1-5.8,2.3-5.5,6.6c-2.6-2.5-5.3-4.3-6.2-4c-2.4,1.4,0,3.7,0.1,5.6
			c0,0.3-1.4-3-4.3-5.1c-1.9-1.3-2.5-2-4.1-1.9c-3,1.2-1,7.2,3.3,8.9c-4.7,0.2-13.6,2.3-14.3,3.5c-0.4,0.9,1.1,1.1,4.3,2
			c-3.2,1.9-11.2,3.6-9.5,6.2c1.4,1.8,5.5,1.1,9.8-0.9c-2.6,5.5,7.9,3.4,10.5,2.3c0.8,2.5,7.3,2,7.3-0.5c5,1.7,8.4-0.6,9.5-2
			c10.7,0.5,11.8-3.2,5.2-5.5c6.5,0.5,11.1,1.2,11.1-2.7c-0.5-0.4-3.2-0.8-3.9-1.1C356.9,438.1,354.4,434.8,354,434.5z M347.7,430.1
			c1.2,1.2-4,4.5-4.3,4.6c-2.6,0.8-5.2,1.2-7.9,1.3c0.4-0.2,0.7-0.5,1.1-0.7C340.6,432.6,346.6,428.2,347.7,430.1L347.7,430.1z
			 M345.4,428.3l-0.2,1.4c-4.4,1.6-5.2,3.4-10.4,6.1C335.1,434.5,341.9,428.8,345.4,428.3L345.4,428.3z M334.8,428.3
			c2.1,1.1,0.8,3.1,0.8,5.6c-0.1,0.1-1.1,1.5-1.3,1.6l0,0c-0.1-0.2-3.2-1.3-4.3-0.7C329.7,434.6,330,427.1,334.8,428.3L334.8,428.3z
			 M323.6,430.9c1.2,0,3.9,2,5.4,3.9c-1.8-0.1-3.6,0.2-5.1,1.1C323.8,435.4,321.2,431.4,323.6,430.9z M326.1,435.8
			c4.1-1,7.7-0.3,8.2,1.5s-2.4,4-6.5,5s-7.7,0.3-8.2-1.5S322,436.7,326.1,435.8L326.1,435.8z M315.4,429.5c0.9-0.6,7.4,4.5,7.4,6.7
			l0,0c-0.3,0.1-3.6,1.5-3.3,1.6C316.2,438.2,311.8,430.5,315.4,429.5z M307.3,442.9c-3.1-1.1-4.5-0.9-0.2-2.1
			c3.8-1.3,7.9-2.1,11.9-2.3c-0.4,0.7-0.7,1.5-0.7,2.4C314.5,441.3,310.3,443.8,307.3,442.9L307.3,442.9z M299,449.4
			c-1.3-1.9,15.2-7.2,18.8-8.2c1.3,0,1.2,0.2,2.5,1.5C316.9,442.7,302.5,454.5,299,449.4L299,449.4z M319.1,450.4
			c-0.2,1.5-13.8,4.1-9.8-1.5c2.7-2,8.7-5.7,11.1-6c0.5,0.1,1,0.4,1.3,0.8C321.2,446.2,319.7,448.3,319.1,450.4L319.1,450.4z
			 M319.7,451c-0.1-0.3-0.1-0.6,0-0.9l2.5-6.6c0.6,0,0.7,0,1,0.4c0.3,2.4,1.3,4.7,2.8,6.6C327,452.2,320.5,453.6,319.7,451
			L319.7,451z M326.9,450.7c-1.2-0.5-4.9-7.3-2.8-7.1c1.4,0,2.7-0.1,4.1-0.4c1.1,0.3,7.4,3.8,7.4,5.9
			C333.3,450.9,329.1,451.7,326.9,450.7L326.9,450.7z M344.4,445.7c1.4,1-1.8,3.8-8.5,2.5c-2.8-2.9-4.3-3.3-7.1-5.2l4.2-2.2
			C336.9,442,341.9,443.8,344.4,445.7L344.4,445.7z M344.5,439.2c1.8,0.6,5.7,1.2,7.3,1.6c1.1,5.8-19,0.1-18.5-0.2
			c1.5-1.3,2.1-2.7,1.7-4.2c6.3,0,16.9-2.5,18.5-1.5C356.6,437.2,348.9,439.5,344.5,439.2L344.5,439.2z"/>
		<path id="Flor_relleno_01" class="st5" d="M274,436.8c-2.5-0.9-7.6,0.6-9.4,0c4.6-2.7,5.2-5.6,1.2-5.2v-1.2
			c-0.6-0.6-5,1.2-9.6,5.5c0-2.2,1.3-4.1-1-5.7c-2.9-1.1-5.8,2.3-5.5,6.6c-2.6-2.5-5.2-4.3-6.2-4c-2.4,1.4,0,3.7,0.1,5.6
			c0,0.3-1.4-3-4.3-5.1c-1.9-1.3-2.5-2-4.1-1.9c-3,1.2-0.9,7.2,3.3,8.9c-4.6,0.2-13.6,2.3-14.3,3.5c-0.4,0.9,1.1,1.1,4.3,2
			c-3.2,1.9-11.2,3.6-9.5,6.2c1.4,1.8,5.5,1.1,9.8-0.9c-2.6,5.5,7.9,3.4,10.5,2.3c0.8,2.5,7.3,2,7.3-0.4c5,1.7,8.4-0.6,9.5-2
			c10.7,0.5,11.8-3.2,5.2-5.5c6.5,0.5,11.1,1.2,11.1-2.7c-0.5-0.4-3.2-0.7-3.9-1.1C276.9,440.3,274.4,437,274,436.8z M243.2,436.8
			c0.2,0.4,0.3,0.7,0.4,0.9C243.6,437.5,243.4,437.2,243.2,436.8z"/>
		<path id="Flor_delineado_01" class="st7" d="M274,436.8c-2.5-0.9-7.6,0.6-9.4,0c4.6-2.7,5.2-5.6,1.2-5.2v-1.2
			c-0.6-0.6-5,1.2-9.6,5.5c0-2.2,1.3-4.1-1-5.7c-2.9-1.1-5.8,2.3-5.5,6.6c-2.6-2.5-5.2-4.3-6.2-4c-2.4,1.4,0,3.7,0.1,5.6
			c0,0.3-1.4-3-4.3-5.1c-1.9-1.3-2.5-2-4.1-1.9c-3,1.2-0.9,7.2,3.3,8.9c-4.6,0.2-13.6,2.3-14.3,3.5c-0.4,0.9,1.1,1.1,4.3,2
			c-3.2,1.9-11.2,3.6-9.5,6.2c1.4,1.8,5.5,1.1,9.8-0.9c-2.6,5.5,7.9,3.4,10.5,2.3c0.8,2.5,7.3,2,7.3-0.4c5,1.7,8.4-0.6,9.5-2
			c10.7,0.5,11.8-3.2,5.2-5.5c6.5,0.5,11.1,1.2,11.1-2.7c-0.5-0.4-3.2-0.7-3.9-1.1C276.9,440.3,274.4,437,274,436.8z M267.7,432.4
			c1.2,1.2-4,4.5-4.3,4.6c-2.6,0.8-5.2,1.2-7.9,1.3c0.4-0.2,0.7-0.5,1.1-0.8C260.6,434.8,266.6,430.4,267.7,432.4z M265.3,430.5
			l-0.2,1.4c-4.4,1.6-5.3,3.4-10.4,6.1C255.1,436.8,261.9,431.1,265.3,430.5z M254.7,430.5c2.1,1.1,0.8,3.1,0.8,5.6
			c-0.1,0.1-1.1,1.5-1.3,1.6l0,0l0,0c-0.1-0.1-3.2-1.3-4.3-0.7C249.7,436.9,250,429.3,254.7,430.5L254.7,430.5z M243.6,433.1
			c1.2,0,3.9,2,5.4,3.9c-1.8-0.1-3.6,0.2-5.1,1.1C243.8,437.6,241.2,433.6,243.6,433.1z M246.1,438c4.1-1,7.7-0.3,8.2,1.5
			s-2.4,4-6.5,5s-7.7,0.3-8.2-1.5S242,439,246.1,438L246.1,438z M235.5,431.7c0.8-0.6,7.4,4.5,7.4,6.7l0,0c-0.3,0.1-3.6,1.5-3.3,1.6
			C236.2,440.4,231.8,432.7,235.5,431.7L235.5,431.7z M227.4,445.1c-3.1-1.1-4.5-0.9-0.2-2.1c3.8-1.3,7.8-2.1,11.9-2.3
			c-0.4,0.7-0.7,1.5-0.7,2.4C234.5,443.5,230.3,446,227.4,445.1L227.4,445.1z M219,451.5c-1.3-1.9,15.2-7.2,18.8-8.2
			c1.3,0,1.2,0.2,2.5,1.5C236.9,445,222.5,456.7,219,451.5z M239.1,452.6c-0.2,1.5-13.8,4.1-9.8-1.5c2.7-2,8.7-5.7,11.1-6
			c0.5,0.1,1,0.4,1.3,0.8C241.2,448.4,239.7,450.5,239.1,452.6z M239.7,453.2c-0.1-0.3-0.1-0.6,0-0.9l2.5-6.6c0.6,0,0.7,0,0.9,0.5
			c0.3,2.4,1.3,4.7,2.8,6.6C247,454.4,240.5,455.8,239.7,453.2z M246.9,452.8c-1.2-0.4-4.9-7.3-2.8-7.1c1.4,0,2.7-0.1,4.1-0.4
			c1.1,0.3,7.4,3.8,7.4,5.9C253.3,453.2,249.1,453.9,246.9,452.8L246.9,452.8z M264.4,447.9c1.4,1-1.8,3.8-8.5,2.5
			c-2.8-2.9-4.3-3.3-7.1-5.2l4.2-2.2C256.9,444.2,261.9,446,264.4,447.9z M264.5,441.4c1.8,0.6,5.7,1.2,7.3,1.6
			c1.1,5.8-18.9,0.1-18.5-0.2c1.6-1.3,2.1-2.7,1.7-4.2c6.3,0,16.9-2.5,18.5-1.5C276.6,439.5,268.9,441.7,264.5,441.4z"/>
	</g>
	<g id="Textos">
		<path id="Floreat_Veritas" class="st3" d="M91,278.7c0.4-0.7,0.8-1.3,1.1-1.8c0.4-0.4,0.6-0.9,0.5-1.4c-0.1-1.1-0.7-2.1-1.7-2.7
			l0.9-0.9l17.5,14.6l-2.1,7.2l-1.4-0.5c0.1-4.6-2-9-5.6-11.9c-0.8-0.8-1.8-1.4-2.9-1.9c-0.4-0.2-0.9-0.2-1.2,0.1
			c-0.5,0.2-1,0.5-1.3,1l-0.5,0.5l-4.3,5c0.5,0.2,0.9,0.6,1.3,0.9c0.9,0.8,1.8,1.5,2.8,2.1c0.6,0.3,1.3,0.5,1.9,0.6
			c0.9,0,2.1-0.8,3.4-2.1l0.9,0.7l-7.9,9.3l-0.9-0.7c1.3-2,1.9-3.5,1.6-4.6c-0.2-0.6-0.5-1.2-0.9-1.7c-0.4-0.3-1.3-1.1-2.4-2.1
			l-1.3-0.9l-5.4,6.3c-0.5,0.6-1,1.3-1.3,2.1c-0.3,0.5-0.4,1-0.3,1.5c0.5,0.9,1.1,1.8,1.9,2.5l-0.6,0.8l-9.2-7.7l0.6-0.8
			c1,0.5,1.5,0.9,2.1,1.1c0.1,0.1,0.5,0.1,0.9,0c0.9-0.1,1.8-0.6,2.3-1.4L91,278.7L91,278.7z M102,305.7l-0.8,0.8
			c-0.4,0.9-1.2,1.6-2.1,2c-0.9,0.4-1.9,0.1-3.2-0.9l-0.6,0.9l17,12.9l7.7-4.8l-0.4-1.3c-2.6,1.1-5.4,1.6-8.2,1.3
			c-2.2-0.3-4.3-1.1-6.1-2.5c-0.6-0.4-1.2-1-1.5-1.6c-0.5-0.3-0.6-0.9-0.4-1.4c0.2-0.7,0.5-1.4,0.9-2c0.2-0.2,0.4-0.4,0.6-0.7
			l10.1-13.6c0.6-1,1.7-1.6,2.8-1.7c0.5-0.2,0.6,0,1.1,0.2c0.2,0.3,0.7,0.5,1.4,1l0.9-1.1l-9.3-7l-0.9,1c0.9,0.5,1.6,1.4,1.8,2.4
			c0.1,0.9-0.2,1.8-0.9,2.5L102,305.7L102,305.7z M127,315.7c-0.8,1.4-1.4,2.9-1.9,4.5c-0.4,1.4-0.4,2.9-0.3,4.4
			c0.1,1.3,0.6,2.6,1.3,3.8c0.8,1.2,1.8,2.3,3.1,3h0.1l0.1-0.1c1.2,0.8,2.6,1.2,4.1,1.4c1.4,0,2.7-0.3,4-0.9
			c1.3-0.7,2.5-1.6,3.5-2.8c1.3-1,2.3-2.2,3.1-3.6c1-1.8,1.8-3.8,2.3-5.8c0.2-1.8-0.1-3.6-0.7-5.3c-0.7-1.8-2-3.2-3.7-4.2
			c-1.1-0.7-2.4-1.1-3.7-1.4c-1.3-0.2-2.6-0.1-3.8,0.3c-1.3,0.5-2.6,1.2-3.7,2.1C129.4,312.6,128.1,314.1,127,315.7L127,315.7z
			 M122.8,313.5c1.1-1.8,2.5-3.4,4.2-4.6c1.2-1.3,3.1-1.9,4.8-2.5c1.8-0.4,3.7-0.5,5.6-0.1c4.1,0.4,7.9,2.6,10.3,6
			c1.1,1.5,1.9,3.2,2.3,5c0.4,1.8,0.5,3.6,0.2,5.4c-0.3,1.8-1,3.6-1.9,5.2c-1,1.5-2.1,2.9-3.5,4c-1.4,1.3-3.1,2.2-4.9,2.8
			c-1.8,0.6-3.7,0.9-5.6,0.7c-2-0.4-4-1.1-5.7-2.3c-2-1.1-3.8-2.6-5.3-4.4c-1-1.7-1.8-3.5-2.3-5.4c-0.2-1.8-0.1-3.6,0.3-5.3
			C121.4,316.4,122,314.8,122.8,313.5L122.8,313.5z M161.4,324.5l-4,8.2l4.4,2.1l1.5,0.7c4.4,2.1,7.3,1.2,9.1-2.5
			c0.5-1.1,0.6-2.3,0.3-3.5c-0.5-1.1-1.2-2.1-2.2-2.8c-1-0.8-2.1-1.5-3.2-2.1c-1.2-0.5-2.5-0.9-3.8-1.2
			C162.7,323.1,161.7,323.6,161.4,324.5C161.3,324.5,161.3,324.5,161.4,324.5L161.4,324.5z M149.7,339.1l7.5-16.2
			c0.6-1.1,0.6-1.9,0.1-2.5c-0.6-0.8-1.4-1.5-2.3-1.9l0.6-1.3l12,5.6l2,0.9c2.6,1.3,4.7,2.7,5.6,4.1c0.6,0.5,1.1,1.2,1.4,2
			c0.2,0.8,0.3,1.6,0.3,2.4c-0.1,1.1-0.4,2.2-0.8,3.2c-0.6,1.1-1.5,2-2.6,2.6c-1,0.5-2.2,0.8-3.4,0.9c-1.3,0-2.5-0.2-3.8-0.6
			c0.9,3.4,1.5,6.9,1.9,10.5c0.1,1.2,0.5,2.4,1.1,3.4c0.2,0.6,1.1,1.3,1.9,2l-0.5,1.1l-6.2-2.8l-2.8-15.8l-5.2-2.5l-3.6,7.4
			c-0.6,1.3-0.7,2.2-0.4,2.9c0.5,1,1.3,1.8,2.4,2.1l-0.4,1l-11.1-5.2l0.4-1c0.8,0.4,1.7,0.6,2.6,0.7c0.7,0,1.3-0.3,1.7-0.9
			C148.7,341.1,149.1,340.3,149.7,339.1L149.7,339.1z M182,334.3c0.3-0.9,0.5-1.7,0.7-2.1c0-0.5-0.1-1-0.3-1.4
			c-0.3-0.7-1-1.3-2.5-1.8l0.5-1.5l22.3,7.7l0.3,7.9l-1.4-0.1c-0.6-2.3-1.9-4.3-3.8-5.8c-1.8-1.6-3.8-2.9-6.1-3.7
			c-1-0.4-2.1-0.6-3.1-0.8c-1.2,0.1-2.3,1-2.6,2.1l-2.1,6.2c0.6,0.3,1,0.3,1.3,0.5c1.7,0.5,2.9,0.9,3.6,1.1c0.7,0.2,1.3,0.2,2,0
			c1.1-0.9,2-2,2.6-3.4l1.5,0.5l-4.1,11.8l-1.4-0.5c0.6-2.4,0.5-3.9-0.1-5.1c-0.9-1-2.1-1.7-3.4-2l-2.6-0.9l-2.8,8.2
			c-0.4,0.8-0.4,1.8-0.1,2.6c0.3,1,1.1,1.7,2.1,2c0.5,0.3,1.1,0.5,1.6,0.7c1.7,0.6,3.5,0.9,5.2,0.7c1.8,0,3.6-0.3,5.3-0.9
			c1.7-0.7,3.4-1.6,4.9-2.6l1.1,1l-6.4,7l-22.6-8l0.3-0.9c0.2,0,0.5,0.2,0.9,0.3c0.3,0.1,0.5,0.1,0.8,0c0.2,0.1,0.6,0.1,0.8,0.1
			c0.2-0.1,0.4-0.2,0.6-0.3c0.8-0.5,1.3-1.3,1.6-2.1L182,334.3L182,334.3z M216,342.1l-7.2,11l9.1,2.1L216,342.1L216,342.1z
			 M202.5,358.3c-0.5,0.8-1.2,1.5-1.9,2.1c-0.6,0.4-1.2,0.8-1.8,1.1c-0.6,0.2-1.3,0.2-1.9,0.1l-0.1,1l10.3,2.6l0.1-1
			c-0.9-0.3-1.7-0.7-2.4-1.4c-0.4-0.4-0.7-1-0.5-1.6c0.1-0.7,0.5-1.4,0.9-2c0.4-0.9,0.8-1.7,1.4-2.4c0.4-0.6,0.8-1.3,1.1-2l10.4,2.4
			c0.2,0.8,0.2,1.8,0.5,3c0.1,0.9,0.2,1.8,0.2,2.7c0.1,0.5,0.2,0.9,0.3,1.4c-0.3,1.5-1.6,2.1-3.7,1.6l-0.1,1l11.1,2.7l0.2-0.9
			c-0.3-0.2-0.7-0.3-1.1-0.5c-0.3-0.2-0.7-0.4-0.9-0.6c-0.3-0.5-0.6-1.1-0.9-1.6c-0.2-0.9-0.4-1.8-0.4-2.7l-3.6-23.8l-3.7-0.9
			L202.5,358.3L202.5,358.3z M238.9,367.1l3.4-18.6c0.1-0.6,0.1-1.2,0-1.8c-0.1-0.5-0.5-0.7-1.3-0.7c-1.3-0.3-2.6-0.3-3.9,0
			c-1.3,0.3-2.5,0.8-3.5,1.6c-1,0.8-2,1.6-2.8,2.6l-1.2-0.8l3.1-6.4l23.5,4.2l1.1,7.3l-1.5,0.4c-0.3-1.3-0.9-2.6-1.8-3.6
			c-0.7-1.1-1.6-2-2.6-2.8c-1-0.6-2-1.1-3.1-1.3c-0.4-0.1-0.9-0.1-1.4-0.1c-0.3,0-0.5,0.2-0.6,0.5c-0.2,0.4-0.3,0.7-0.3,1.1v0.3
			l-3.5,18.8c-0.2,0.7-0.1,1.5,0.1,2.2c0.1,0.6,0.5,1.2,1,1.5c0.9,0.4,1.8,0.7,2.8,0.8l-0.2,1.1l-12.6-2.2l0.1-1
			c0.9,0.2,1.8,0.3,2.7,0.2c0.7,0,1.3-0.3,1.6-0.9C238.5,368.9,238.8,368,238.9,367.1L238.9,367.1z M340.8,357.1
			c-1-1.3-2-2.1-2.7-2.1c-0.7-0.4-1.6-0.5-2.4-0.4l-0.5-1.3l11.6-3.1l0.5,1.2c-0.9,0.2-1.8,0.7-2.5,1.3c-0.5,0.3-0.7,0.9-0.4,1.3
			c0.2,0.8,0.6,1.6,1.2,2.2l11.5,15.8l2.3-20.1c0-0.4,0-0.8-0.1-1.2c-0.3-0.7-0.8-1.3-1.5-1.7c-1-0.2-1.9,0-2.8,0.3l-0.4-1.3l10.7-3
			l0.3,1.3c-0.8,0.1-1.5,0.5-2.1,1.1c-0.6,0.4-1,1-1.2,1.7c-0.4,1-0.6,2.1-0.7,3.2l-3,23.5l-2.4,0.7L340.8,357.1L340.8,357.1z
			 M371.7,348.9c-0.3-0.7-0.6-1.4-0.9-2.1c-0.2-0.4-0.6-0.8-1-1c-0.7-0.5-2-0.3-3.3,0.1l-0.5-1.3l22.5-7.2l5.1,6.2l-1.3,0.8
			c-1.9-1.4-4.2-2.3-6.5-2.6c-2.3-0.2-4.7,0.1-6.9,0.9c-1,0.2-2,0.7-2.8,1.3c-1.2,0.5-1.3,1.5-0.9,3l2.1,6.3
			c0.5-0.1,0.9-0.3,1.4-0.5c1.5-0.4,2.6-1,3.3-1.2c0.7-0.2,1.3-0.7,1.6-1.4c0.4-1.4,0.3-2.8-0.1-4.2l1.5-0.5l3.8,12l-1.5,0.4
			c-0.4-1.7-1.5-3.1-3-3.8c-1.2-0.3-2.6-0.3-3.8,0.2l-2.5,1l2.5,8.3c0.2,0.8,0.6,1.6,1.2,2.1c0.9,0.6,2,0.7,3,0.4
			c0.2-0.1,0.7-0.1,1.7-0.3c1.7-0.6,3.4-1.6,4.8-2.7c1.4-1.1,2.6-2.4,3.6-3.9c1.1-1.5,1.8-3.2,2.4-5l1.5,0.1l-0.9,9.4l-22.8,7.3
			l-0.5-0.9c0.3,0,0.5-0.2,0.8-0.2c0.5-0.4,0.7-0.3,0.9-0.5c0.2-0.1,0.4-0.4,0.5-0.6c0.1-0.1,0.2-0.3,0.3-0.5c0.3-0.8,0.3-1.7,0-2.5
			l-5.2-16.9L371.7,348.9z M404,353.9c0.4,0.8,0.7,1.7,0.9,2.5c0.1,0.6,0,1.2-0.5,1.7c-0.6,0.7-1.4,1.2-2.2,1.5l0.5,1.1l11.2-5
			l-0.5-1c-1.1,0.5-2.2,0.6-3.4,0.5c-0.9-0.5-1.5-1.3-1.8-2.3l-3.4-7.4l5.2-2.3l13.8,7.9l6.3-2.6l-0.5-1c-0.9,0.3-1.8,0.4-2.7,0.1
			c-1.2-0.1-2.4-0.6-3.4-1.4c-3.9-2.4-6.9-4.1-9.3-5.4c1.2-0.6,2.2-1.4,3-2.4c0.8-0.9,1.3-2,1.4-3.2c0.3-1.2,0.2-2.3-0.1-3.5
			c-0.5-1.1-1.2-2.2-2.1-3c-0.6-0.6-1.3-1.1-2.1-1.3c-0.8-0.3-1.6-0.4-2.4-0.4c-2.4,0.1-4.7,0.7-6.7,1.8l-2,0.9l-12,5.3l0.4,1.3
			c1-0.4,2-0.7,3.1-0.7c0.9,0.2,1.6,0.9,1.8,1.8L404,353.9L404,353.9z M400.6,335.8c-0.5-0.9-0.1-2,0.8-2.5c0,0,0,0,0,0
			c1-1,2.1-1.7,3.4-2.1c1.2-0.5,2.4-0.8,3.7-1c1.1-0.3,2.3-0.2,3.4,0.2c1.1,0.5,2,1.3,2.6,2.4c1.5,4,0.4,6.8-4.1,8.7l-1.5,0.7
			l-4.4,2L400.6,335.8z M424.4,325.7c-0.7-1.1-1.1-1.7-1.9-1.9c-0.8-0.3-1.6-0.2-2.4,0.2l-0.5,0.3l-0.7-1.1l9.7-5.2l0.6,1.2
			l-0.3,0.1c0,0.2-0.3,0.4-0.7,0.5c-0.4,0.5-0.7,0.6-0.7,1.1c-0.2,0.3-0.3,0.7-0.3,1.1c0,0.7,0.2,1.4,0.7,2l8.7,16.5
			c0.4,0.8,1.1,1.5,2,1.8c0.9,0.2,1.9,0,2.6-0.5l0.6,1.1l-9.7,5l-0.6-0.9c0.8-0.4,1.5-1,2-1.8c0.2-0.9,0.1-1.9-0.5-2.7L424.4,325.7
			L424.4,325.7z M451.3,330.4c0.6,0.7,0.9,1.6,0.9,2.5c0.3,0.7-0.1,1.1-0.7,1.5c-0.6,0.8-1.3,1.4-2.1,1.8l0.5,0.9l11.5-6.5l-0.7-1.2
			c-0.8,0.6-1.7,1-2.6,1.2c-0.7,0.2-1.4-0.1-1.8-0.7c-0.5-0.1-1-0.9-1.4-1.6l-9.9-17c0-0.1-0.2-0.2-0.2-0.2
			c-0.4-0.5-0.5-0.8-0.4-1.1c-0.1-0.3,0-0.6,0.1-0.9c0.4-0.3,0.9-0.6,1.3-0.8c1-0.6,2.1-0.9,3.3-0.9c1.2-0.3,2.5-0.2,3.6,0.3
			c1.4,0.4,2.7,0.9,3.9,1.7l1-1.2l-5.7-5.2l-21.4,12l1.9,7.4l1.4-0.1c-0.1-1.3,0-2.7,0.3-4c0.4-1.2,1-2.3,1.8-3.4
			c0.9-1.1,2-2,3.2-2.8c0.6-0.3,1-0.5,1.3-0.2c0.5,0.4,0.9,0.9,1.1,1.5L451.3,330.4L451.3,330.4z M467.7,294.1l2.9,12.9l7.6-5.1
			L467.7,294.1L467.7,294.1z M469.9,315.4l-4.8-23.3l3.4-2.1l19.3,14c0.8,0.6,1.5,1.1,2.4,1.5c0.6,0,1,0.3,1.5,0.3
			c0.4,0.2,0.9-0.1,1.2-0.1c0.3-0.3,0.8-0.5,1.2-0.5l0.5,1l-9.7,6.1l-0.7-1c2-1,2.4-2.4,1.5-3.6c-0.3-0.3-0.8-0.7-1.1-0.9
			c-0.5-0.4-1.3-0.8-2.3-1.6s-1.8-1.2-2.4-1.8l-8.8,5.7c0.2,0.5,0.3,1.1,0.6,2.2c0.1,0.9,0.3,1.8,0.6,2.7c0,0.7,0.3,1.4,0.7,2
			c0.3,0.7,1,0.6,1.5,0.8c0.9-0.1,1.8-0.4,2.6-0.7l0.7,0.9l-9,5.6l-0.5-0.9c0.5-0.5,0.9-1,1.2-1.5c0.3-0.6,0.5-1.3,0.5-2
			C470.3,317.2,470.1,316.3,469.9,315.4L469.9,315.4z M498.9,285.8c3.1-1.4,5.2-1.4,6.6,0.5c0.8,0.8,1.2,2,1.1,3.1
			c0,1.2-0.3,2.3-0.9,3.4c-0.5,1.1-1.3,2.1-2.3,2.9c-0.8,0.6-1.4,0.7-1.6,0.9c-1.8,1.3-4,1.8-6.3,1.7c-2.4-0.2-4.7-0.8-6.9-1.7
			l-0.9,1.1l8.1,5.8l1.2-1l-0.9-2.1c3.1,0,6.2-1.1,8.6-3.1c1.4-1.2,2.6-2.6,3.7-4.2c0.8-1.7,1.2-3.5,1.1-5.4c0-1.8-0.7-3.5-1.8-4.8
			c-2.3-2.7-5-3.3-8.6-2c-0.9,0.5-2.4,0.9-4.6,2c-1.5,0.9-3.1,1.6-4.7,2.1c-1,0.5-2.1,0.8-3.2,0.9c-1.2-0.1-2.2-0.7-3-1.6
			c-0.6-1-0.7-2.2-0.3-3.3c0.6-1.3,1.5-2.5,2.6-3.4c1.6-1.4,3.7-2.2,5.8-2.3c2.1-0.2,4.3,0,6.3,0.7l0.7-1.2l-6.6-4.3l-1.2,0.9
			l0.6,1.8c-1.2-0.2-2.4,0-3.5,0.6c-1.3,0.6-2.6,1.3-3.8,2.1c-0.7,0.6-1.4,1.4-1.9,1.8c-0.6,0.7-1.1,1.5-1.5,2.4
			c-0.5,0.7-0.8,1.5-1,2.4c-0.1,0.8,0,1.6,0.2,2.4c0.2,1.2,0.7,2.3,1.4,3.3c0.9,0.8,2,1.5,3.1,2.1c1.2,0,2.4-0.1,3.6-0.4
			c1.3-0.3,2.6-0.8,3.9-1.4C493.6,288.2,495.6,287.3,498.9,285.8L498.9,285.8z"/>
		<path id="Simbolo_UTN" class="st3" d="M261.1,336.5h-22.9c1.9-30.8,22-47.2,44.7-51.2v-0.8h-44.8v-20.7h44.8v-1
			c-24.1-4.2-45.2-21.3-45-50.6h22.6c0,15.4,10,25.6,22.4,29.4v-29.3h22.5v29.3c11.4-3.6,20.8-13.2,22.3-29.4h22.8
			c-0.2,30.2-21.3,46.9-45.2,50.8v0.9h45.2v20.7h-45.1v0.9c24.1,4.3,45.3,22,45.3,51.1h-22.6c0-15.6-10.2-25.8-22.7-29.5v29.5h-22.5
			v-29.3C271.8,311,262.6,320.5,261.1,336.5z"/>
		<path id="G" class="st8" d="M428.8,121.4c0.3,3.2,0.5,6.5,0.8,9.7c0.3,3.2,0.5,6.4,0.8,9.5l-1.7-0.7c-1.4-4.7-3.5-9.2-6.3-13.3
			c-3.5-5.2-8.4-9.3-14.2-11.8c-7.8-3.2-13.9-1.7-18,4.6c-1.8,3-3.2,6.2-3.9,9.6c-0.9,4.1-1.3,8.2-1.3,12.4
			c-0.1,7,1.1,13.9,3.4,20.4c2.3,6.1,5.3,10.6,9,13.5c3.3,2.6,7.3,4.1,11.4,4.2c2.2,0,4.5-0.2,6.7-0.8c2.1-0.5,4.2-1.4,6.2-2.4
			v-18.1c0-3.1-0.2-5.3-0.7-6.3c-0.5-1.1-1.2-2.1-2.2-2.8c-1.6-1-3.4-1.7-5.2-2.1v-1.8c8,2.1,16,4.5,24,7v1.5l-1.2-0.4
			c-2.4-0.7-4-0.5-4.9,0.7c-0.6,0.9-0.9,2.9-0.9,6v17.7c-3.3,1.6-6.8,2.9-10.4,3.8c-3.7,0.9-7.6,1.4-11.4,1.4
			c-12,0-21.1-4.7-27.3-14.5c-2.4-3.8-4.2-7.9-5.3-12.3c-1.2-4.5-1.8-9.2-1.7-13.9c-0.1-6.7,1.3-13.3,4-19.5
			c3.1-6.8,7.3-11.5,12.8-13.6c4.5-1.7,9.9-1.1,16.1,1.6c2.2,0.9,4.2,2,6.1,3.4c2.7,1.9,5.3,4,7.9,6.3c1.1,1,2.2,1.9,3.4,2.7
			c0.4,0.3,1,0.3,1.5,0c0.4-0.3,0.7-1.2,0.8-2.7L428.8,121.4z"/>
		<path id="R" class="st8" d="M372.1,181.1l-16.7-0.1c-3.5-6.6-7.1-13.4-10.6-20.2s-7-13.9-10.5-20.9c-1.5,0-2.7,0-3.7-0.1
			c-0.4,0-0.8-0.1-1.3-0.1s-0.9-0.1-1.4-0.1v25.8c0,5.6,0.5,9,1.3,10.4c1.1,1.9,3.1,3,5.2,2.9h2.4v2.4l-26.6-0.1v-2.4h2.3
			c2.5,0.1,4.7-1.4,5.6-3.7c0.6-1.4,1-4.6,1-9.6v-57.7c0-5.6-0.4-9.1-1.3-10.5c-1.1-2-3.1-3.2-5.3-3.2l-2.3-0.1v-2.4
			c7.5,0.4,15.1,0.8,22.6,1.6c6.6,0.7,11.5,2.2,14.6,4c3.4,2.1,6.2,5.1,8,8.7c2.2,4,3.3,8.5,3.3,13c0.2,4.6-1.2,9.2-3.7,13
			c-2.5,3.6-6.4,5.9-11.6,7.1c2.1,4.3,4.3,8.6,6.4,12.8s4.3,8.4,6.5,12.5c2.9,5.6,5.4,9.4,7.6,11.3c2.4,1.9,5.2,3.2,8.2,3.5
			L372.1,181.1L372.1,181.1z M328,135.4c0.6,0,1.1,0.1,1.5,0.1l1,0.1c5.9,0.4,10.3-1.2,13.3-4.5s4.5-7.7,4.5-13.2
			c0.2-4.8-1.1-9.5-3.6-13.6c-2-3.5-5.6-5.8-9.6-6.3c-2.4-0.2-4.8,0-7.1,0.5L328,135.4L328,135.4z"/>
		<path id="E" class="st8" d="M271,96.9V132c4.6-0.2,9.1-0.3,13.7-0.4c3.5-0.1,5.9-0.9,7.1-2.4c1.6-2,2.5-5.6,2.7-10.7h1.7v31.3
			h-1.7c-0.2-2.8-0.6-5.7-1.3-8.4c-0.5-1.5-1.4-2.7-2.7-3.6c-1.3-0.9-3.2-1.3-5.8-1.2c-4.6,0.1-9.1,0.2-13.7,0.4v29.3
			c-0.1,2.4,0,4.8,0.4,7.2c0.2,0.8,0.7,1.5,1.3,2c1,0.6,2.3,0.9,3.5,0.8h10.5c3.5,0,6-0.4,7.6-1.1c1.9-1,3.4-2.4,4.6-4.2
			c2.4-3.9,4.4-8,5.8-12.4h1.9l-5.4,22.5c-16,0-32,0-47.9,0.1v-2.4h2.2c1.5,0,3-0.6,4.2-1.5c1-0.8,1.7-1.9,2-3.1
			c0.5-2.8,0.6-5.7,0.5-8.5v-57.2c0-5.6-0.4-9-1.2-10.2c-1.1-1.6-2.9-2.2-5.5-1.9c-0.8,0.1-1.5,0.2-2.2,0.3v-2.4
			c15.9-1.8,31.9-2.8,47.9-3c0.2,6.6,0.4,13.2,0.6,19.8h-1.8c-0.6-4.8-1.4-8.1-2.1-9.8c-0.7-1.7-1.9-3.1-3.5-4.1
			c-1.2-0.7-3.4-1-6.4-0.9C282.3,96.2,276.7,96.5,271,96.9z"/>
		<path id="I" class="st8" d="M249.1,178.7v2.3c-8.9,0-17.7,0-26.6,0.1v-2.2h2.2c2.3,0.1,4.4-1,5.6-3c0.8-1.3,1.1-4.5,1.1-9.4v-53.7
			c0-4.2-0.2-6.9-0.6-8.2c-0.3-1-1-1.8-1.9-2.2c-1.3-0.7-2.8-0.8-4.2-0.4l-2.2,0.6v-2.2c8.9-2.2,17.7-4.1,26.6-5.7v2.3l-2.2,0.3
			c-2.4,0.3-4.5,1.8-5.5,4c-0.8,1.5-1.1,4.8-1.1,9.8v54.8c0,4.3,0.2,7.1,0.6,8.5c0.3,1.1,1,2,1.9,2.7c1.2,0.9,2.7,1.5,4.2,1.5H249.1
			z"/>
		<path id="C" class="st8" d="M214,101c0.2,4.4,0.5,8.7,0.7,13.1s0.5,8.8,0.7,13.2l-1.4,0.3c-1.9-7.5-4.5-12.5-8.1-14.8
			s-7.7-2.5-12.6-0.6c-4.3,1.8-8.1,4.5-11.1,8c-3.5,4-6.2,8.6-7.8,13.6c-1,2.8-1.7,5.6-2.1,8.5c-0.5,3.2-0.7,6.3-0.7,9.5
			c-0.1,4.8,0.8,9.6,2.7,14.1c1.7,3.8,4.5,7,8.1,9.1c3.7,2.3,8,3.4,12.4,3.2c3.8,0,7.5-1.2,10.6-3.4c3.1-2.2,6.5-6.7,10.1-13.4
			l1.4,1.1c-3.1,7.2-6.7,12.4-10.9,15.6c-4.2,3.2-9.5,4.8-14.8,4.7c-10.3,0-18.1-3.9-23.9-10.9c-2-2.4-3.6-5.1-4.8-8
			c-1.1-3-1.6-6.2-1.6-9.4c0-2.8,0.3-5.7,1-8.4c0.8-3,1.8-6,3.1-8.8c2.9-6.3,6.7-12,11.4-17c4.9-5.2,10.1-9.3,15.9-11.7
			c4.2-1.8,8.8-2.2,13.2-1c0.9,0.3,1.8,0.5,2.7,0.3c0.9-0.3,1.7-0.9,2.1-1.8c0.9-1.5,1.5-3.1,1.7-4.8L214,101z"/>
	</g>
	<g id="Franjas_azules">
		<polygon id="Franja_azul_31" class="st9" points="552.2,385.6 541.7,414.6 551.7,414.6 560,391.7 560.6,385.6 		"/>
		<polygon id="Franja_azul_30" class="st9" points="534.8,385.6 524.3,414.6 534.3,414.6 544.8,385.6 		"/>
		<polygon id="Franja_azul_29" class="st9" points="517.3,385.6 506.8,414.6 516.9,414.6 527.4,385.6 		"/>
		<polygon id="Franja_azul_28" class="st9" points="499.9,385.6 489.4,414.6 499.4,414.6 509.9,385.6 		"/>
		<polygon id="Franja_azul_27" class="st9" points="482.5,385.6 471.9,414.6 482,414.6 492.5,385.6 		"/>
		<polygon id="Franja_azul_26" class="st9" points="465,385.6 454.5,414.6 464.5,414.6 475,385.6 		"/>
		<polygon id="Franja_azul_25" class="st9" points="447.6,385.6 437.1,414.6 447.1,414.6 457.6,385.6 		"/>
		<polygon id="Franja_azul_24" class="st9" points="430.1,385.6 419.6,414.6 429.6,414.6 440.2,385.6 		"/>
		<polygon id="Franja_azul_23" class="st9" points="412.7,385.6 402.2,414.6 412.2,414.6 422.7,385.6 		"/>
		<polygon id="Franja_azul_22" class="st9" points="395.2,385.6 384.7,414.6 394.8,414.6 405.3,385.6 		"/>
		<polygon id="Franja_azul_21" class="st9" points="377.8,385.6 367.3,414.6 377.3,414.6 387.8,385.6 		"/>
		<polygon id="Franja_azul_20" class="st9" points="360.4,385.6 349.8,414.6 359.9,414.6 370.4,385.6 		"/>
		<polygon id="Franja_azul_19" class="st9" points="342.9,385.6 332.4,414.6 342.4,414.6 352.9,385.6 		"/>
		<polygon id="Franja_azul_18" class="st9" points="325.5,385.6 315,414.6 325,414.6 335.5,385.6 		"/>
		<polygon id="Franja_azul_17" class="st9" points="308,385.6 297.5,414.6 307.5,414.6 318,385.6 		"/>
		<polygon id="Franja_azul_16" class="st9" points="290.6,385.6 280.1,414.6 290.1,414.6 300.6,385.6 		"/>
		<polygon id="Franja_azul_15" class="st9" points="273.1,385.6 262.6,414.6 272.6,414.6 283.2,385.6 		"/>
		<polygon id="Franja_azul_14" class="st9" points="255.7,385.6 245.2,414.6 255.2,414.6 265.7,385.6 		"/>
		<polygon id="Franja_azul_13" class="st9" points="238.2,385.6 227.7,414.6 237.8,414.6 248.3,385.6 		"/>
		<polygon id="Franja_azul_12" class="st9" points="220.8,385.6 210.3,414.6 220.3,414.6 230.8,385.6 		"/>
		<polygon id="Franja_azul_11" class="st9" points="203.4,385.6 192.9,414.6 202.9,414.6 213.4,385.6 		"/>
		<polygon id="Franja_azul_10" class="st9" points="185.9,385.6 175.4,414.6 185.4,414.6 195.9,385.6 		"/>
		<polygon id="Franja_azul_09" class="st9" points="168.5,385.6 158,414.6 168,414.6 178.5,385.6 		"/>
		<polygon id="Franja_azul_08" class="st9" points="151,385.6 140.5,414.6 150.5,414.6 161.1,385.6 		"/>
		<polygon id="Franja_azul_07" class="st9" points="133.6,385.6 123.1,414.6 133.1,414.6 143.6,385.6 		"/>
		<polygon id="Franja_azul_06" class="st9" points="116.1,385.6 105.6,414.6 115.7,414.6 126.2,385.6 		"/>
		<polygon id="Franja_azul_05" class="st9" points="98.7,385.6 88.2,414.6 98.2,414.6 108.7,385.6 		"/>
		<polygon id="Franja_azul_04" class="st9" points="81.3,385.6 70.7,414.6 80.8,414.6 91.3,385.6 		"/>
		<polygon id="Franja_azul_03" class="st9" points="63.8,385.6 53.3,414.6 63.3,414.6 73.8,385.6 		"/>
		<polygon id="Franja_azul_02" class="st9" points="46.4,385.6 46.4,385.7 46.4,385.7 40.9,400.8 36.8,411.9 37.1,414.6 45.9,414.6 
			56.4,385.6 		"/>
		<polygon id="Franja_azul_01" class="st9" points="39,385.6 34.2,385.6 35.2,395.8 36.3,393.1 		"/>
	</g>
	<g id="Contornos">
		<rect id="Vertical_02" x="394.5" y="416.3" class="st7" width="2.9" height="259.6"/>
		<rect id="Vertical_01" x="195.3" y="416.3" class="st7" width="2.9" height="259.6"/>
		<rect id="Horizontal_02" x="29.4" y="414.1" class="st7" width="534.3" height="2.9"/>
		<rect id="Horizontal_01" x="29.4" y="382.8" class="st7" width="534.3" height="2.9"/>
		<path id="Contorno_escudo" class="st7" d="M24.3,186.3l0.1,190.1c0,159.1,139.2,295.1,276.2,387.5
			c106.3-74.2,270.3-222,270.3-387.8l0.1-190L24.3,186.3z M560.7,377.1c0,159.6-157.9,302-260.2,373.4
			c-131.8-89-265.8-219.8-265.8-373.1l-0.1-183l526.3-0.2L560.7,377.1z"/>
		<path id="Contorno_arco" class="st10" d="M297.7,84.5c93.1,0,173.2,42.1,206.7,101.6h9.8C480.1,122.9,395.8,78,297.7,78
			S115.1,123,81.1,186.3h9.8C124.3,126.7,204.5,84.5,297.7,84.5z"/>
	</g>
</g>
</svg>
