<?xml version="1.0" encoding="utf-8"?>
<!-- Generator: Adobe Illustrator 23.1.0, SVG Export Plug-In . SVG Version: 6.00 Build 0)  -->
<svg version="1.1" id="Capa_1" xmlns="http://www.w3.org/2000/svg" xmlns:xlink="http://www.w3.org/1999/xlink" x="0px" y="0px"
	 viewBox="0 0 120 243" style="enable-background:new 0 0 120 243;" xml:space="preserve">
<style type="text/css">
	.st0{opacity:8.000000e-02;}
	.st1{fill:#020203;}
</style>
<g class="st0">
	<path class="st1" d="M42.9,122.9c-3-5.6-10.4-9.5-19-9.5s-16,3.9-19,9.5H0v16.6c0,0.2,0,0.4,0,0.6l0,0c0,0.4,0,0.9,0.1,1.3
		c0.1,0.4,0.1,0.8,0.2,1.2l0,0l0,0c1.6,12.6,12.9,23.4,24,30.9C33.6,167,48,154.1,48,139.6v-16.7L42.9,122.9z M46.1,139.8
		c0,13.4-13.3,25.4-22,31.4c-10.3-6.9-20.7-16.9-22.2-28.6l0,0l0,0c0-0.4-0.1-0.8-0.1-1.1c0-0.4-0.1-0.8,0-1.2l0,0
		c0-0.2,0-0.4,0-0.6v-15.4h4.6c2.7-5.2,9.6-8.8,17.6-8.8s14.8,3.7,17.6,8.8h4.6L46.1,139.8z"/>
	<path class="st1" d="M42.9,9.5c-3-5.6-10.4-9.5-19-9.5s-16,3.9-19,9.5H0v16.7c0,0.2,0,0.4,0,0.6l0,0c0,0.4,0,0.9,0.1,1.3
		s0.1,0.8,0.2,1.2l0,0l0,0c1.6,12.6,12.9,23.4,24,30.9c9.3-6.5,23.7-19.5,23.7-34V9.6L42.9,9.5z M46.1,26.5C46.1,40,32.8,52,24.1,58
		C13.9,51,3.5,41,2,29.3l0,0l0,0c0-0.3-0.1-0.8-0.1-1.1c0-0.4-0.1-0.8,0-1.2l0,0c0-0.2,0-0.4,0-0.6V11h4.6C9.1,5.9,15.9,2.2,24,2.2
		S38.9,5.8,41.6,11h4.6L46.1,26.5z"/>
	<path class="st1" d="M103.8,66.2c-3-5.5-10.4-9.5-19-9.5s-16,4-19,9.5h-5v16.7c0,0.2,0,0.4,0,0.7l0,0c0,0.4,0,0.8,0.1,1.3
		c0,0.4,0.1,0.8,0.2,1.2l0,0l0,0c1.7,12.6,12.9,23.3,24,30.8c9.3-6.5,23.7-19.5,23.7-34V66.2H103.8z M107,83.1
		c0,13.4-13.3,25.4-21.9,31.4C74.8,107.6,64.4,97.7,62.9,86l0,0l0,0c0-0.3-0.1-0.7-0.1-1.1s-0.1-0.8,0-1.2l0,0c0-0.2,0-0.4,0-0.6
		V67.7h4.6c2.8-5.1,9.6-8.8,17.6-8.8c7.9,0,14.8,3.7,17.6,8.8h4.6L107,83.1z"/>
	<path class="st1" d="M103.8,179.6c-3-5.6-10.4-9.5-19-9.5s-16,3.9-19,9.5h-5v16.6c0,0.2,0,0.4,0,0.6l0,0c0,0.4,0,0.9,0.1,1.3
		c0,0.4,0.1,0.8,0.2,1.2l0,0l0,0c1.7,12.6,12.9,23.4,24,30.9c9.3-6.5,23.7-19.4,23.7-33.9v-16.6L103.8,179.6z M107,196.5
		c0,13.4-13.3,25.4-21.9,31.4C74.8,221,64.4,211,62.9,199.3l0,0l0,0c0-0.4-0.1-0.8-0.1-1.1c0-0.4-0.1-0.8,0-1.2l0,0
		c0-0.2,0-0.4,0-0.6V181h4.6c2.8-5.1,9.6-8.8,17.6-8.8c7.9,0,14.8,3.6,17.6,8.8h4.6L107,196.5z"/>
</g>
</svg>
